<?xml version="1.0" encoding="UTF-8"?>
<svg id="Layer_1" data-name="Layer 1" xmlns="http://www.w3.org/2000/svg" xmlns:xlink="http://www.w3.org/1999/xlink" viewBox="0 0 283.03 79.45">
  <defs>
    <style>
      .cls-1 {
        fill: #1e9e49;
      }

      .cls-2 {
        fill: #0d529d;
      }

      .cls-3 {
        fill: #13409b;
      }

      .cls-4 {
        fill: #092783;
      }

      .cls-5 {
        fill: #a5b8f7;
      }

      .cls-6 {
        fill: #6b96da;
      }

      .cls-7 {
        fill: #0a61a0;
      }

      .cls-8 {
        fill: none;
      }

      .cls-9 {
        fill: #073686;
      }

      .cls-10 {
        clip-path: url(#clippath-1);
      }

      .cls-11 {
        fill: #071e81;
      }

      .cls-12 {
        fill: #011e84;
      }

      .cls-13 {
        fill: #2c70b9;
      }

      .cls-14 {
        fill: #3c55a0;
      }

      .cls-15 {
        clip-path: url(#clippath);
      }

      .cls-16 {
        fill: #85a4eb;
      }

      .cls-17 {
        fill: #4e84cb;
      }
    </style>
    <clipPath id="clippath">
      <rect class="cls-8" x="-39.37" y="-85.12" width="361.77" height="249.7"/>
    </clipPath>
    <clipPath id="clippath-1">
      <rect class="cls-8" x="-39.37" y="-85.12" width="361.77" height="249.7"/>
    </clipPath>
  </defs>
  <g class="cls-15">
    <path class="cls-1" d="M16.23,23.66h4.76c.68,0,1.3-.1,1.85-.31.55-.21,1.03-.51,1.43-.9.4-.39.71-.85.93-1.39.22-.54.33-1.15.33-1.83s-.11-1.3-.33-1.85c-.22-.55-.53-1.01-.92-1.39-.39-.38-.86-.67-1.41-.88-.55-.21-1.17-.31-1.85-.31h-4.69l.44-.44v22.34h-4.54V10.73h9.45c1.22,0,2.36.2,3.41.6,1.05.4,1.95.97,2.71,1.7.76.73,1.36,1.62,1.8,2.66.44,1.04.66,2.19.66,3.46s-.22,2.42-.66,3.46c-.44,1.04-1.04,1.93-1.8,2.67-.76.74-1.66,1.32-2.71,1.72-1.05.4-2.17.6-3.37.6h-5.49v-3.96Z"/>
  </g>
  <g>
    <path d="M60.59,58.82h.35l5.37,5.95-.09.04v-5.88h1.16v8.42h-.35l-5.36-5.94.09-.04v5.85h-1.18v-8.4Z"/>
    <path d="M75.92,64.23c0,.43-.08.84-.24,1.22-.16.38-.38.72-.67,1-.29.28-.62.5-1.02.67-.39.16-.82.25-1.28.25s-.89-.08-1.28-.25c-.39-.17-.73-.39-1.02-.67-.29-.28-.51-.62-.67-1-.16-.38-.24-.79-.24-1.22v-5.3h1.16v5.23c0,.28.05.55.15.81.1.25.24.48.42.66s.4.34.65.45c.25.11.53.17.83.17s.57-.06.82-.17c.25-.11.47-.26.65-.45.18-.19.32-.41.42-.66.1-.25.15-.52.15-.81v-5.23h1.16v5.3Z"/>
    <path d="M78.03,67.22v-8.3h3.28c.38,0,.72.06,1.05.18.32.12.6.29.84.51.24.22.43.48.56.79s.2.65.2,1.03c0,.3-.04.57-.13.83-.09.25-.21.48-.36.69-.16.2-.34.38-.56.52-.22.15-.46.26-.73.33l1.75,3.42h-1.33l-1.65-3.3h-1.93s0-.96,0-.96h2.08c.24,0,.47-.04.67-.11.2-.07.38-.17.52-.3.14-.13.26-.29.33-.47.08-.18.12-.39.12-.62,0-.24-.04-.46-.12-.64-.08-.18-.19-.34-.33-.46-.15-.12-.32-.22-.52-.28-.2-.06-.42-.09-.66-.09h-2.06l.14-.14v7.38h-1.16Z"/>
    <path d="M88.89,60.08c-.3-.15-.61-.22-.92-.22-.23,0-.43.03-.62.08s-.34.13-.47.23c-.13.1-.23.21-.3.35-.07.13-.11.28-.11.45,0,.21.05.39.15.54.1.15.23.28.4.39.17.12.37.23.61.33.24.11.49.22.76.35.34.15.65.3.93.45.28.15.53.32.73.5.21.18.37.4.49.65.12.25.18.55.18.91,0,.3-.06.58-.18.86s-.3.52-.53.72c-.23.21-.53.38-.88.5-.35.12-.75.19-1.22.19-.3,0-.59-.03-.87-.1-.28-.07-.54-.17-.79-.31-.24-.14-.46-.31-.66-.5-.2-.2-.37-.43-.51-.69l.98-.66c.21.4.48.69.81.88s.69.28,1.09.28c.25,0,.47-.03.67-.1s.36-.15.5-.26.24-.23.32-.36c.07-.13.11-.27.11-.41,0-.21-.04-.39-.14-.54-.09-.15-.22-.28-.38-.4-.16-.12-.35-.23-.58-.33-.23-.1-.48-.21-.75-.34-.28-.13-.57-.26-.85-.39-.29-.13-.54-.29-.77-.47-.23-.18-.41-.41-.56-.67s-.22-.59-.22-.98c0-.3.07-.59.2-.86.13-.27.32-.51.56-.71.24-.2.52-.36.85-.48s.69-.18,1.08-.18c.24,0,.48.03.72.08s.49.13.72.25c.23.11.45.26.65.44.2.18.37.4.51.66l-.91.62c-.23-.35-.49-.6-.79-.75Z"/>
    <path d="M97.53,58.92v1.06h-4.13l.14-.14v6.45l-.14-.14h4.24v1.07h-5.27v-8.3h5.15ZM96.85,62.51v1.06h-3.48v-1.06h3.48Z"/>
    <path d="M107.67,59.11c.52.22.97.52,1.36.9.39.38.69.83.91,1.36.22.52.33,1.09.33,1.7s-.11,1.18-.33,1.7c-.22.53-.52.98-.91,1.36-.39.38-.84.68-1.36.9-.52.22-1.08.33-1.68.33s-1.15-.11-1.67-.33c-.52-.22-.98-.52-1.36-.9-.39-.38-.69-.83-.91-1.36-.22-.52-.33-1.09-.33-1.7s.11-1.18.33-1.7c.22-.53.52-.98.91-1.36.39-.38.84-.68,1.36-.9.52-.22,1.08-.33,1.67-.33s1.16.11,1.68.33ZM104.79,60.16c-.37.16-.7.38-.98.66s-.5.62-.66,1c-.16.38-.24.8-.24,1.26s.08.87.24,1.26c.16.38.38.72.66,1s.61.5.98.66c.37.16.77.24,1.19.24s.82-.08,1.19-.24c.37-.16.7-.38.98-.66s.5-.62.66-1,.24-.8.24-1.26-.08-.87-.24-1.26-.38-.72-.66-1-.61-.5-.98-.66c-.37-.16-.77-.24-1.19-.24s-.82.08-1.19.24Z"/>
    <path d="M112.19,58.92l1.7,5.87h-.09s2.42-5.97,2.42-5.97h.4l2.42,5.96h-.09s1.7-5.85,1.7-5.85h1.26l-2.6,8.4h-.41l-2.54-6.17h.12l-2.54,6.17h-.41l-2.6-8.4h1.26Z"/>
    <path d="M123.26,58.82h.35l5.37,5.95-.09.04v-5.88h1.16v8.42h-.35l-5.36-5.94.09-.04v5.85h-1.18v-8.4Z"/>
    <path d="M137.42,58.92v1.06h-4.13l.14-.14v6.45l-.14-.14h4.24v1.07h-5.27v-8.3h5.15ZM136.73,62.51v1.06h-3.48v-1.06h3.48Z"/>
    <path d="M139.19,58.92h2.95c.6,0,1.16.11,1.66.32s.94.51,1.3.88.65.81.85,1.31c.2.5.31,1.04.31,1.62s-.1,1.13-.31,1.64c-.2.51-.49.95-.85,1.32s-.8.67-1.3.88-1.06.32-1.66.32h-2.95v-8.3ZM140.21,66.15h1.82c.42,0,.82-.08,1.19-.23.37-.15.69-.37.96-.64s.48-.6.64-.98c.16-.38.24-.79.24-1.25s-.08-.86-.23-1.23c-.15-.38-.36-.7-.63-.98s-.59-.49-.96-.64-.76-.23-1.19-.23h-1.83l.14-.14v6.45l-.14-.14Z"/>
    <path d="M156.98,64.51c-.17.56-.42,1.05-.76,1.48s-.77.76-1.28,1c-.5.25-1.07.37-1.69.37-.38,0-.75-.05-1.11-.16s-.67-.26-.95-.45c-.27-.2-.49-.44-.65-.72-.16-.29-.24-.61-.24-.96,0-.28.05-.54.16-.78s.27-.46.47-.67c.2-.21.45-.41.73-.6s.61-.39.97-.58l.78.74c-.27.15-.53.29-.76.43-.23.14-.43.28-.61.42-.17.15-.31.3-.41.46-.1.16-.15.34-.15.54,0,.21.05.39.16.55.11.15.24.28.41.38.17.1.36.18.57.23s.42.08.63.08c.46,0,.87-.1,1.23-.3s.66-.46.89-.79c.23-.33.41-.7.51-1.12.11-.42.14-.85.09-1.3h1.13c.06.62.01,1.21-.15,1.77ZM151.77,62.35c-.13-.17-.25-.33-.34-.49-.09-.16-.17-.33-.22-.5-.05-.17-.08-.36-.08-.55,0-.25.05-.5.15-.74.1-.24.25-.46.44-.65.19-.19.42-.34.7-.45s.58-.17.92-.17.64.06.91.17.5.26.69.45c.19.18.34.39.44.63.1.24.15.48.15.73,0,.23-.04.45-.12.64-.08.19-.21.38-.38.56-.17.18-.38.36-.65.55-.26.18-.58.38-.95.59l-.8-.72c.3-.17.56-.33.78-.46.22-.13.41-.26.56-.39.15-.12.26-.25.33-.37s.11-.25.11-.39c0-.13-.03-.25-.08-.36-.05-.11-.13-.22-.22-.31-.09-.09-.21-.16-.34-.21-.13-.05-.28-.08-.45-.08s-.32.03-.45.08c-.14.05-.25.12-.35.21-.09.09-.17.19-.22.31-.05.12-.08.24-.08.38,0,.15.02.28.06.41.04.12.11.24.19.35.08.11.18.23.29.35.11.12.24.26.38.41l4.62,4.92h-1.47l-4.09-4.36c-.17-.18-.33-.35-.46-.52Z"/>
    <path d="M167.1,59.11c.52.22.97.52,1.36.9.39.38.69.83.91,1.36.22.52.33,1.09.33,1.7s-.11,1.18-.33,1.7c-.22.53-.52.98-.91,1.36-.39.38-.84.68-1.36.9-.52.22-1.08.33-1.68.33s-1.15-.11-1.67-.33c-.52-.22-.98-.52-1.36-.9-.39-.38-.69-.83-.91-1.36-.22-.52-.33-1.09-.33-1.7s.11-1.18.33-1.7c.22-.53.52-.98.91-1.36.39-.38.84-.68,1.36-.9.52-.22,1.08-.33,1.67-.33s1.16.11,1.68.33ZM164.22,60.16c-.37.16-.7.38-.98.66s-.5.62-.66,1c-.16.38-.24.8-.24,1.26s.08.87.24,1.26c.16.38.38.72.66,1s.61.5.98.66c.37.16.77.24,1.19.24s.82-.08,1.19-.24c.37-.16.7-.38.98-.66s.5-.62.66-1c.16-.38.24-.8.24-1.26s-.08-.87-.24-1.26c-.16-.38-.38-.72-.66-1s-.61-.5-.98-.66c-.37-.16-.77-.24-1.19-.24s-.82.08-1.19.24Z"/>
    <path d="M172.35,63.13h1.74c.24,0,.46-.04.66-.11s.37-.18.52-.32c.14-.14.26-.3.33-.49.08-.19.12-.41.12-.65s-.04-.47-.12-.67c-.08-.2-.19-.36-.33-.49-.14-.13-.31-.24-.51-.31-.2-.07-.42-.11-.66-.11h-1.72l.14-.14v7.38h-1.16v-8.3h2.93c.38,0,.72.06,1.05.18.32.12.6.3.83.52.23.23.42.5.55.82.13.32.2.68.2,1.07s-.07.75-.2,1.07c-.13.32-.32.6-.55.83-.24.23-.51.41-.83.54-.32.12-.67.19-1.03.19h-1.95v-1.01Z"/>
    <path d="M183.54,58.92v1.06h-4.13l.14-.14v6.45l-.14-.14h4.24v1.07h-5.27v-8.3h5.15ZM182.86,62.51v1.06h-3.48v-1.06h3.48Z"/>
    <path d="M185.32,67.22v-8.3h3.28c.38,0,.72.06,1.05.18.32.12.6.29.84.51.24.22.42.48.56.79.13.31.2.65.2,1.03,0,.3-.04.57-.13.83-.09.25-.21.48-.36.69-.16.2-.35.38-.56.52-.22.15-.46.26-.73.33l1.75,3.42h-1.33l-1.65-3.3h-1.93s0-.96,0-.96h2.08c.24,0,.47-.04.67-.11s.38-.17.52-.3c.14-.13.26-.29.33-.47.08-.18.12-.39.12-.62,0-.24-.04-.46-.12-.64s-.19-.34-.33-.46c-.15-.12-.32-.22-.52-.28-.2-.06-.42-.09-.66-.09h-2.06l.14-.14v7.38h-1.16Z"/>
    <path d="M195.78,60.96h.12l-2.67,6.27h-1.26l3.7-8.4h.35l3.7,8.4h-1.27l-2.68-6.27ZM193.78,64.44h4.13v1.05h-4.13v-1.05Z"/>
    <path d="M199.09,59.98v-1.06h6.15v1.06h-6.15ZM201.59,59.81h1.16v7.42h-1.16v-7.42Z"/>
    <path d="M211.73,58.92v1.06h-4.13l.14-.14v6.45l-.14-.14h4.24v1.07h-5.27v-8.3h5.15ZM211.05,62.51v1.06h-3.48v-1.06h3.48Z"/>
    <path d="M213.5,58.92h2.95c.6,0,1.16.11,1.66.32s.94.51,1.3.88.65.81.85,1.31c.2.5.31,1.04.31,1.62s-.1,1.13-.31,1.64c-.2.51-.49.95-.85,1.32s-.8.67-1.3.88-1.06.32-1.66.32h-2.95v-8.3ZM214.53,66.15h1.82c.42,0,.82-.08,1.19-.23.37-.15.69-.37.96-.64s.48-.6.64-.98c.16-.38.24-.79.24-1.25s-.08-.86-.23-1.23c-.15-.38-.36-.7-.63-.98s-.59-.49-.96-.64-.76-.23-1.19-.23h-1.83l.14-.14v6.45l-.14-.14Z"/>
  </g>
  <g>
    <path class="cls-14" d="M12.24,42.92h1.09v7.77h-1.09v-7.77ZM13.16,46.33h4.44v.95h-4.44v-.95ZM17.44,42.92h1.09v7.77h-1.09v-7.77Z"/>
    <path class="cls-14" d="M27.8,42.92v.99h-3.86l.13-.13v6.04l-.13-.13h3.97v1h-4.93v-7.77h4.82ZM27.16,46.27v.99h-3.26v-.99h3.26Z"/>
    <path class="cls-14" d="M34.47,44.82h.11l-2.5,5.86h-1.18l3.46-7.87h.33l3.46,7.87h-1.19l-2.51-5.86ZM32.6,48.08h3.86v.98h-3.86v-.98Z"/>
    <path class="cls-14" d="M41.68,42.92h1.09v6.91l-.13-.13h3.55v.99h-4.51v-7.77Z"/>
    <path class="cls-14" d="M47.86,43.91v-.99h5.75v.99h-5.75ZM50.19,43.74h1.09v6.94h-1.09v-6.94Z"/>
    <path class="cls-14" d="M57.25,42.92h1.09v7.77h-1.09v-7.77ZM58.17,46.33h4.44v.95h-4.44v-.95ZM62.45,42.92h1.09v7.77h-1.09v-7.77Z"/>
    <path class="cls-14" d="M73.65,50.18c-.23.19-.55.34-.94.46-.39.12-.81.18-1.24.18-.56,0-1.08-.1-1.56-.31-.48-.21-.91-.49-1.27-.84-.36-.36-.64-.78-.85-1.27-.21-.49-.31-1.02-.31-1.59s.1-1.12.31-1.61c.21-.49.48-.91.84-1.27s.76-.64,1.24-.84c.47-.2.98-.3,1.51-.3.4,0,.77.04,1.12.13s.69.22,1,.4v1.16c-.32-.2-.64-.35-.98-.46-.34-.11-.68-.16-1.03-.16-.41,0-.79.08-1.14.23s-.66.36-.91.62c-.26.26-.46.58-.6.94-.15.36-.22.75-.22,1.17,0,.47.08.89.25,1.25.17.37.39.67.66.92s.59.44.95.57.74.2,1.13.2c.35,0,.7-.06,1.06-.19.35-.12.68-.3.99-.54v1.16Z"/>
    <path class="cls-14" d="M80.14,44.82h.11l-2.5,5.86h-1.18l3.46-7.87h.33l3.46,7.87h-1.19l-2.51-5.86ZM78.27,48.08h3.86v.98h-3.86v-.98Z"/>
    <path class="cls-14" d="M87.35,50.69v-7.77h3.07c.35,0,.68.05.98.17.3.11.56.27.79.47.22.21.4.45.52.74.12.29.19.61.19.96,0,.28-.04.54-.12.78-.08.24-.19.45-.34.64-.15.19-.32.35-.53.49-.21.14-.43.24-.68.31l1.64,3.2h-1.24l-1.54-3.09h-1.8s0-.9,0-.9h1.95c.23,0,.44-.03.63-.1.19-.07.35-.16.49-.28.14-.12.24-.27.31-.44.07-.17.11-.36.11-.58,0-.23-.04-.43-.11-.6-.07-.17-.18-.32-.31-.43s-.3-.21-.48-.26c-.19-.06-.39-.09-.62-.09h-1.92l.13-.13v6.91h-1.09Z"/>
    <path class="cls-14" d="M101.71,42.92v.99h-3.86l.13-.13v6.04l-.13-.13h3.97v1h-4.93v-7.77h4.82ZM101.07,46.27v.99h-3.26v-.99h3.26Z"/>
    <path class="cls-14" d="M113.13,44.82h.11l-2.5,5.86h-1.18l3.46-7.87h.33l3.46,7.87h-1.19l-2.51-5.86ZM111.26,48.08h3.86v.98h-3.86v-.98Z"/>
    <path class="cls-14" d="M120.34,42.92h1.09v7.77h-1.09v-7.77Z"/>
    <path class="cls-14" d="M131.01,42.92h1.09v6.91l-.13-.13h3.55v.99h-4.51v-7.77Z"/>
    <path class="cls-14" d="M143.79,43.1c.48.21.91.49,1.27.84.36.36.65.78.85,1.27.21.49.31,1.02.31,1.59s-.1,1.1-.31,1.59c-.21.49-.49.92-.85,1.27s-.79.64-1.27.84c-.48.21-1.01.31-1.57.31s-1.08-.1-1.57-.31c-.49-.21-.91-.49-1.28-.84s-.65-.78-.85-1.27c-.21-.49-.31-1.02-.31-1.59s.1-1.1.31-1.59c.21-.49.49-.92.85-1.27.36-.36.79-.64,1.28-.84.49-.21,1.01-.31,1.57-.31s1.09.1,1.57.31ZM141.1,44.07c-.35.15-.65.35-.92.62s-.47.58-.62.94-.23.75-.23,1.18.08.82.23,1.18.36.67.62.93c.26.26.57.47.92.62.35.15.72.22,1.12.22s.77-.07,1.12-.22c.35-.15.65-.35.92-.62.26-.26.47-.58.62-.93s.23-.75.23-1.18-.08-.82-.23-1.18-.36-.67-.62-.94-.57-.47-.92-.62c-.35-.15-.72-.22-1.12-.22s-.77.07-1.12.22Z"/>
    <path class="cls-14" d="M152.55,44.07c-.35.15-.65.35-.92.62s-.47.58-.62.94c-.15.36-.23.75-.23,1.18s.08.82.23,1.18c.15.36.36.67.62.93.26.26.57.47.92.62.35.15.72.22,1.12.22.35,0,.69-.05,1.02-.15s.62-.25.88-.46c.25-.2.45-.46.6-.77.15-.31.21-.68.2-1.09l.13.15h-2.74v-.96h3.65c.02.12.04.25.05.36s.02.24.02.36c0,.52-.1,1-.29,1.44-.19.44-.46.82-.8,1.14-.34.32-.74.58-1.21.76-.47.18-.97.27-1.5.27s-1.08-.1-1.57-.31c-.49-.21-.91-.49-1.28-.84s-.65-.78-.85-1.27-.31-1.02-.31-1.59.1-1.1.31-1.59.49-.92.85-1.27c.36-.36.79-.64,1.28-.84.49-.21,1.01-.31,1.57-.31.72,0,1.35.14,1.89.41.54.27,1,.65,1.36,1.14l-.84.7c-.26-.37-.58-.67-.96-.88s-.86-.31-1.46-.31c-.4,0-.77.07-1.12.22Z"/>
    <path class="cls-14" d="M161.34,42.92h1.09v7.77h-1.09v-7.77Z"/>
    <path class="cls-14" d="M172.54,50.18c-.24.19-.55.34-.94.46-.39.12-.8.18-1.24.18-.56,0-1.08-.1-1.56-.31-.48-.21-.91-.49-1.27-.84s-.64-.78-.85-1.27-.31-1.02-.31-1.59.1-1.12.31-1.61c.21-.49.48-.91.84-1.27.35-.36.76-.64,1.24-.84.47-.2.98-.3,1.51-.3.4,0,.77.04,1.12.13.35.09.69.22,1,.4v1.16c-.32-.2-.64-.35-.98-.46-.34-.11-.68-.16-1.03-.16-.41,0-.79.08-1.14.23-.35.15-.66.36-.91.62-.26.26-.46.58-.6.94s-.22.75-.22,1.17c0,.47.08.89.25,1.25.17.37.38.67.66.92.27.25.59.44.95.57s.74.2,1.13.2c.35,0,.7-.06,1.06-.19.35-.12.68-.3.99-.54v1.16Z"/>
    <path class="cls-14" d="M186.61,43.1c.48.21.91.49,1.27.84.36.36.65.78.85,1.27.21.49.31,1.02.31,1.59s-.1,1.1-.31,1.59c-.21.49-.49.92-.85,1.27-.36.36-.79.64-1.27.84-.48.21-1.01.31-1.57.31s-1.08-.1-1.57-.31c-.49-.21-.91-.49-1.28-.84s-.65-.78-.85-1.27-.31-1.02-.31-1.59.1-1.1.31-1.59.49-.92.85-1.27c.36-.36.79-.64,1.28-.84.49-.21,1.01-.31,1.57-.31s1.09.1,1.57.31ZM183.91,44.07c-.35.15-.65.35-.92.62s-.47.58-.62.94c-.15.36-.23.75-.23,1.18s.08.82.23,1.18c.15.36.36.67.62.93.26.26.57.47.92.62.35.15.72.22,1.12.22s.77-.07,1.12-.22c.35-.15.65-.35.92-.62s.47-.58.62-.93.23-.75.23-1.18-.08-.82-.23-1.18-.36-.67-.62-.94c-.26-.26-.57-.47-.92-.62-.35-.15-.72-.22-1.12-.22s-.77.07-1.12.22Z"/>
    <path class="cls-14" d="M193.91,46.86h1.63c.23,0,.43-.03.62-.1.19-.07.35-.17.48-.3s.24-.28.31-.46.11-.38.11-.61-.04-.44-.11-.63c-.07-.18-.18-.34-.31-.46-.13-.12-.29-.22-.48-.29-.19-.07-.39-.1-.62-.1h-1.61l.13-.13v6.91h-1.09v-7.77h2.74c.35,0,.68.06.98.17.3.11.56.28.78.49.22.21.39.47.52.77s.19.63.19,1-.06.7-.19,1-.3.56-.52.78c-.22.22-.48.38-.78.5s-.62.18-.97.18h-1.83v-.95Z"/>
    <path class="cls-14" d="M206.77,42.92v.99h-3.86l.13-.13v6.04l-.13-.13h3.97v1h-4.93v-7.77h4.82ZM206.13,46.27v.99h-3.26v-.99h3.26Z"/>
    <path class="cls-14" d="M210.8,50.69v-7.77h3.07c.35,0,.68.05.98.17.3.11.56.27.79.47s.4.45.52.74c.12.29.19.61.19.96,0,.28-.04.54-.12.78s-.19.45-.34.64c-.15.19-.32.35-.53.49s-.43.24-.68.31l1.64,3.2h-1.24l-1.54-3.09h-1.8s0-.9,0-.9h1.95c.23,0,.44-.03.63-.1.19-.07.35-.16.49-.28.14-.12.24-.27.31-.44.07-.17.11-.36.11-.58,0-.23-.04-.43-.11-.6-.07-.17-.18-.32-.31-.43s-.3-.21-.48-.26c-.19-.06-.39-.09-.62-.09h-1.92l.13-.13v6.91h-1.09Z"/>
    <path class="cls-14" d="M222.98,44.82h.11l-2.5,5.86h-1.18l3.47-7.87h.33l3.47,7.87h-1.19l-2.51-5.86ZM221.11,48.08h3.86v.98h-3.86v-.98Z"/>
    <path class="cls-14" d="M228.46,43.91v-.99h5.75v.99h-5.75ZM230.79,43.74h1.09v6.94h-1.09v-6.94Z"/>
    <path class="cls-14" d="M237.84,42.92h1.09v7.77h-1.09v-7.77Z"/>
    <path class="cls-14" d="M248.46,43.1c.48.21.91.49,1.27.84.36.36.65.78.85,1.27.21.49.31,1.02.31,1.59s-.1,1.1-.31,1.59c-.21.49-.49.92-.85,1.27-.36.36-.79.64-1.27.84-.48.21-1.01.31-1.57.31s-1.08-.1-1.57-.31c-.49-.21-.91-.49-1.28-.84s-.65-.78-.85-1.27-.31-1.02-.31-1.59.1-1.1.31-1.59.49-.92.85-1.27c.36-.36.79-.64,1.28-.84.49-.21,1.01-.31,1.57-.31s1.09.1,1.57.31ZM245.77,44.07c-.35.15-.65.35-.92.62s-.47.58-.62.94c-.15.36-.23.75-.23,1.18s.08.82.23,1.18c.15.36.36.67.62.93.26.26.57.47.92.62.35.15.72.22,1.12.22s.77-.07,1.12-.22c.35-.15.65-.35.92-.62s.47-.58.62-.93.23-.75.23-1.18-.08-.82-.23-1.18-.36-.67-.62-.94c-.26-.26-.57-.47-.92-.62-.35-.15-.72-.22-1.12-.22s-.77.07-1.12.22Z"/>
    <path class="cls-14" d="M254.84,42.82h.33l5.03,5.57-.09.03v-5.5h1.09v7.88h-.33l-5.02-5.56.09-.03v5.48h-1.1v-7.87Z"/>
    <path class="cls-14" d="M268.65,44c-.28-.14-.57-.2-.86-.2-.21,0-.41.03-.58.08-.17.05-.32.12-.44.21s-.21.2-.28.33c-.07.12-.1.26-.1.42,0,.2.04.36.14.5s.22.26.37.37c.16.11.35.21.57.31.22.1.46.21.72.33.31.14.6.28.87.42.26.14.49.29.69.47.19.17.35.37.46.61.11.23.17.52.17.85,0,.28-.06.55-.17.8-.11.26-.28.48-.5.68-.22.19-.49.35-.82.47-.33.12-.71.18-1.14.18-.28,0-.55-.03-.81-.09-.26-.06-.51-.16-.74-.29-.23-.13-.43-.29-.62-.47-.19-.19-.35-.4-.48-.64l.91-.62c.2.37.45.65.75.83.3.18.64.26,1.02.26.23,0,.44-.03.63-.09.18-.06.34-.14.47-.24.13-.1.23-.21.3-.34.07-.12.1-.25.1-.38,0-.2-.04-.37-.13-.51-.08-.14-.2-.26-.35-.37s-.33-.21-.54-.31c-.21-.09-.45-.2-.7-.32-.26-.12-.53-.25-.8-.37-.27-.12-.51-.27-.72-.44-.21-.17-.39-.38-.52-.63s-.2-.55-.2-.92c0-.29.06-.55.19-.81.12-.25.3-.47.52-.66.22-.19.49-.34.8-.45.31-.11.65-.17,1.01-.17.22,0,.45.02.68.07.23.05.46.12.67.23.22.11.42.24.61.41.19.17.35.37.48.62l-.85.58c-.21-.33-.46-.56-.74-.7Z"/>
  </g>
  <g class="cls-10">
    <path class="cls-1" d="M41.54,18.23h.37l-7.8,18.46h-4.83l11.76-26.34h1.43l11.76,26.34h-4.87l-7.8-18.46ZM35.71,27.87h12.05v3.85h-12.05v-3.85Z"/>
    <path class="cls-1" d="M57.69,36.7V10.73h10.59c1.22,0,2.35.19,3.41.57,1.05.38,1.95.92,2.71,1.63.76.71,1.35,1.56,1.78,2.56.43,1,.64,2.11.64,3.33,0,.88-.12,1.7-.37,2.47s-.6,1.46-1.06,2.09c-.46.62-1.01,1.17-1.65,1.65-.64.48-1.34.85-2.12,1.12l5.24,10.55h-5.09l-4.72-9.89-5.31.04v-3.81h5.79c.68,0,1.31-.1,1.87-.29.56-.2,1.04-.47,1.45-.82s.72-.79.93-1.3c.22-.51.33-1.09.33-1.72,0-.68-.11-1.28-.33-1.79-.22-.51-.53-.95-.93-1.3s-.88-.62-1.43-.79c-.55-.17-1.17-.26-1.85-.26h-5.71l.44-.44v22.38h-4.58Z"/>
    <path class="cls-1" d="M81.9,36.7V10.73h10.59c1.22,0,2.35.19,3.41.57,1.05.38,1.95.92,2.71,1.63.76.71,1.35,1.56,1.78,2.56.43,1,.64,2.11.64,3.33,0,.88-.12,1.7-.37,2.47s-.6,1.46-1.06,2.09c-.46.62-1.01,1.17-1.65,1.65-.64.48-1.34.85-2.12,1.12l5.24,10.55h-5.09l-4.72-9.89-5.31.04v-3.81h5.79c.68,0,1.31-.1,1.87-.29.56-.2,1.04-.47,1.45-.82s.71-.79.93-1.3c.22-.51.33-1.09.33-1.72,0-.68-.11-1.28-.33-1.79-.22-.51-.53-.95-.93-1.3s-.88-.62-1.43-.79c-.55-.17-1.17-.26-1.85-.26h-5.71l.44-.44v22.38h-4.58Z"/>
    <rect class="cls-1" x="106.12" y="10.73" width="4.58" height="25.97"/>
    <path class="cls-1" d="M127.31,15.14c-.87-.45-1.78-.68-2.73-.68-.59,0-1.12.07-1.61.22-.49.15-.91.35-1.26.6-.36.26-.63.57-.82.93-.2.37-.29.77-.29,1.21,0,.56.14,1.04.42,1.43.28.39.67.75,1.15,1.08.49.33,1.07.65,1.74.95.67.31,1.4.63,2.18.97,1.05.46,2.03.93,2.93,1.39.9.46,1.68.98,2.35,1.56.66.57,1.18,1.26,1.56,2.05.38.79.57,1.76.57,2.91,0,.98-.2,1.91-.61,2.8-.4.89-.99,1.67-1.76,2.35-.77.67-1.71,1.2-2.82,1.59-1.11.39-2.39.59-3.83.59-.98,0-1.92-.11-2.84-.33-.92-.22-1.77-.55-2.56-.99-.79-.44-1.51-.98-2.16-1.61-.65-.64-1.19-1.36-1.63-2.16l3.48-2.6c.68,1.2,1.53,2.08,2.53,2.65,1,.57,2.09.86,3.26.86.68,0,1.29-.09,1.81-.28.52-.18.98-.41,1.35-.68.38-.27.66-.58.86-.93.2-.35.29-.73.29-1.12,0-.59-.13-1.08-.4-1.48-.27-.4-.65-.77-1.14-1.1-.49-.33-1.09-.65-1.79-.95-.71-.31-1.49-.65-2.35-1.04-.95-.42-1.86-.84-2.73-1.28-.87-.44-1.63-.95-2.29-1.54-.66-.59-1.19-1.28-1.59-2.07-.4-.79-.6-1.75-.6-2.88,0-1.02.21-1.98.64-2.88.43-.89,1.03-1.66,1.8-2.31.77-.65,1.69-1.16,2.76-1.54,1.07-.38,2.24-.57,3.48-.57.81,0,1.61.09,2.42.26.8.17,1.57.45,2.31.82.73.38,1.41.86,2.03,1.43.62.57,1.15,1.26,1.59,2.07l-3.41,2.49c-.66-1.03-1.42-1.76-2.29-2.22"/>
    <path class="cls-1" d="M138.28,10.73h4.58v25.97h-4.58V10.73ZM142.31,21.6h13.37v4.03h-13.37v-4.03ZM155.13,10.73h4.58v25.97h-4.58V10.73Z"/>
    <path class="cls-14" d="M175.64,10.91h3.08v25.79h-3.08V10.91ZM178.17,22.45h15.49v2.67h-15.49v-2.67ZM193.11,10.91h3.08v25.79h-3.08V10.91Z"/>
    <path class="cls-14" d="M211.76,16.22h.37l-8.68,20.48h-3.33l11.39-26.12h.95l11.39,26.12h-3.37l-8.72-20.48ZM205.38,28.05h13.19v2.78h-13.19v-2.78Z"/>
    <polygon class="cls-14" points="227.76 10.91 230.84 10.91 230.84 34.32 230.4 33.88 242.45 33.88 242.45 36.7 227.76 36.7 227.76 10.91"/>
    <path class="cls-11" d="M254,9.09c.12-.02.53.52.89,1.2l1.29,2.43c.36.68.96.68,1.32,0l1.29-2.43c.36-.68.76-1.22.89-1.2.12.02.29.71.09,1.45l-.82,3.06c-.2.75-.88,1.28-1.51,1.19h-1.2c-.63.09-1.32-.44-1.52-1.19l-.82-3.06c-.2-.75-.03-1.43.09-1.45"/>
    <path class="cls-11" d="M256.16,10.12c-.36-.68-.26-1.27.23-1.3h.9c.49.03.6.62.23,1.3l-.02.05c-.36.68-.96.68-1.32,0l-.02-.05Z"/>
    <path class="cls-12" d="M261.74,9.64c.12.04.2.71.17,1.48l-.1,2.75c-.03.77.49,1.07,1.15.66l2.33-1.46c.66-.41,1.27-.68,1.37-.6.1.08-.1.76-.65,1.3l-2.24,2.24c-.55.55-1.4.67-1.91.27l-.52-.3-.52-.3c-.6-.24-.92-1.04-.72-1.79l.82-3.06c.2-.75.68-1.26.81-1.21"/>
    <path class="cls-12" d="M263.1,11.61c.03-.77.41-1.23.85-1.01l.39.23.39.23c.41.27.21.83-.45,1.24l-.04.03c-.66.41-1.17.11-1.15-.66v-.05Z"/>
    <path class="cls-4" d="M268.17,13.98c.08.1-.18.71-.59,1.37l-1.46,2.33c-.41.66-.11,1.17.66,1.15l2.75-.1c.77-.03,1.44.05,1.48.17.04.12-.47.6-1.21.81l-3.06.82c-.75.2-1.55-.12-1.79-.72l-.3-.52-.3-.52c-.4-.5-.28-1.36.27-1.91l2.24-2.24c.55-.55,1.22-.75,1.3-.65"/>
    <path class="cls-4" d="M268.36,16.37c.41-.66.97-.86,1.24-.45l.23.39.23.39c.22.44-.24.83-1.01.85h-.05c-.77.03-1.07-.49-.66-1.14l.03-.04Z"/>
    <path class="cls-9" d="M271.56,20.96c.02.12-.52.53-1.2.89l-2.43,1.29c-.68.36-.68.96,0,1.32l2.43,1.29c.68.36,1.22.76,1.2.89-.02.12-.71.29-1.45.09l-3.06-.82c-.75-.2-1.28-.88-1.19-1.51v-1.2c-.09-.63.44-1.32,1.19-1.51l3.06-.82c.75-.2,1.43-.04,1.45.09"/>
    <path class="cls-9" d="M270.53,23.12c.68-.36,1.27-.26,1.3.23v.9c-.03.49-.62.6-1.3.23l-.05-.02c-.68-.36-.68-.96,0-1.32l.05-.02Z"/>
    <path class="cls-3" d="M271.01,28.7c-.04.12-.71.2-1.48.17l-2.75-.1c-.77-.03-1.07.49-.66,1.14l1.46,2.34c.41.66.68,1.27.6,1.37-.08.1-.76-.1-1.3-.65l-2.24-2.24c-.55-.55-.67-1.4-.27-1.91l.3-.52.3-.52c.24-.6,1.04-.92,1.79-.72l3.06.82c.75.2,1.26.68,1.21.8"/>
    <path class="cls-3" d="M269.04,30.05c.77.03,1.23.41,1.01.85l-.23.39-.23.39c-.27.41-.83.21-1.24-.45l-.03-.04c-.41-.66-.11-1.17.66-1.15h.05Z"/>
    <path class="cls-2" d="M266.67,35.13c-.1.08-.71-.18-1.37-.59l-2.33-1.46c-.66-.41-1.17-.11-1.15.66l.1,2.75c.03.77-.05,1.44-.17,1.48-.12.04-.6-.47-.8-1.21l-.82-3.06c-.2-.75.12-1.55.72-1.79l.52-.3.52-.3c.5-.4,1.36-.28,1.91.27l2.24,2.24c.55.55.75,1.22.65,1.3"/>
    <path class="cls-2" d="M264.28,35.31c.66.41.86.97.45,1.24l-.39.23-.39.23c-.44.22-.83-.24-.85-1.01v-.05c-.03-.77.49-1.07,1.14-.66l.04.03Z"/>
    <path class="cls-7" d="M259.69,38.52c-.12.02-.53-.52-.89-1.2l-1.29-2.43c-.36-.68-.96-.68-1.32,0l-1.29,2.43c-.36.68-.76,1.22-.89,1.2-.12-.02-.29-.71-.09-1.45l.82-3.06c.2-.75.88-1.28,1.51-1.19h1.2c.63-.09,1.32.44,1.52,1.19l.82,3.06c.2.75.04,1.43-.09,1.45"/>
    <path class="cls-7" d="M257.53,37.49c.36.68.26,1.27-.23,1.3h-.9c-.49-.03-.6-.62-.23-1.3l.02-.05c.36-.68.96-.68,1.32,0l.02.05Z"/>
    <path class="cls-13" d="M251.95,37.97c-.12-.04-.2-.71-.17-1.48l.1-2.75c.03-.77-.49-1.07-1.14-.66l-2.34,1.46c-.66.41-1.27.68-1.37.6-.1-.08.1-.76.65-1.3l2.24-2.24c.55-.55,1.41-.67,1.91-.27l.52.3.52.3c.6.24.92,1.04.72,1.79l-.82,3.06c-.2.75-.68,1.26-.8,1.21"/>
    <path class="cls-13" d="M250.6,36c-.03.77-.41,1.23-.85,1.01l-.39-.23-.39-.23c-.41-.27-.21-.83.45-1.24l.04-.03c.66-.41,1.17-.11,1.15.66v.05Z"/>
    <path class="cls-17" d="M245.52,33.62c-.08-.1.18-.71.59-1.37l1.46-2.33c.41-.66.11-1.17-.66-1.15l-2.75.1c-.77.03-1.44-.05-1.48-.17-.04-.12.47-.6,1.21-.81l3.06-.82c.75-.2,1.55.12,1.79.72l.3.52.3.52c.4.5.27,1.36-.27,1.91l-2.24,2.24c-.55.55-1.22.75-1.3.65"/>
    <path class="cls-17" d="M245.34,31.24c-.41.66-.97.86-1.25.45l-.23-.39-.23-.39c-.22-.44.24-.83,1.01-.85h.05c.77-.03,1.07.49.66,1.14l-.03.04Z"/>
    <path class="cls-6" d="M242.13,26.65c-.02-.12.52-.53,1.2-.89l2.43-1.29c.68-.36.68-.96,0-1.32l-2.43-1.29c-.68-.36-1.22-.76-1.2-.89.02-.12.71-.29,1.45-.09l3.06.82c.75.2,1.28.88,1.19,1.51v1.2c.09.63-.44,1.32-1.19,1.51l-3.06.82c-.75.2-1.43.03-1.45-.09"/>
    <path class="cls-6" d="M243.16,24.49c-.68.36-1.27.26-1.3-.23v-.9c.03-.49.62-.6,1.3-.23l.05.02c.68.36.68.96,0,1.32l-.05.02Z"/>
    <path class="cls-16" d="M242.68,18.91c.04-.12.71-.2,1.48-.17l2.75.1c.77.03,1.07-.49.66-1.14l-1.46-2.34c-.41-.66-.68-1.27-.6-1.37.08-.1.76.1,1.3.65l2.24,2.24c.55.55.67,1.4.27,1.91l-.3.52-.3.52c-.24.6-1.04.92-1.79.72l-3.06-.82c-.75-.2-1.26-.68-1.21-.81"/>
    <path class="cls-16" d="M244.65,17.56c-.77-.03-1.23-.41-1.01-.85l.23-.39.23-.39c.27-.41.83-.21,1.24.45l.03.04c.41.66.11,1.17-.66,1.15h-.05Z"/>
    <path class="cls-5" d="M247.03,12.48c.1-.08.71.18,1.37.59l2.33,1.46c.66.41,1.17.11,1.14-.66l-.1-2.75c-.03-.77.05-1.44.17-1.48.12-.04.6.47.8,1.21l.82,3.06c.2.75-.12,1.55-.72,1.79l-.52.3-.52.3c-.5.4-1.36.28-1.91-.27l-2.24-2.24c-.55-.55-.75-1.22-.65-1.3"/>
    <path class="cls-5" d="M249.41,12.3c-.66-.41-.86-.97-.45-1.24l.39-.23.39-.23c.44-.22.83.24.85,1.01v.05c.03.77-.49,1.07-1.14.66l-.04-.03Z"/>
  </g>
</svg>