<?xml version="1.0" encoding="UTF-8"?>
<svg id="Layer_1" data-name="Layer 1" xmlns="http://www.w3.org/2000/svg" viewBox="0 0 500 500">
  <defs>
    <style>
      .cls-1 {
        fill: #0d529d;
      }

      .cls-2 {
        fill: #13409b;
      }

      .cls-3 {
        fill: #092783;
      }

      .cls-4 {
        fill: #a5b8f7;
      }

      .cls-5 {
        fill: #6b96da;
      }

      .cls-6 {
        fill: #0a61a0;
      }

      .cls-7 {
        fill: #073686;
      }

      .cls-8 {
        fill: #071e81;
      }

      .cls-9 {
        fill: #011e84;
      }

      .cls-10 {
        fill: #2c70b9;
      }

      .cls-11 {
        fill: #85a4eb;
      }

      .cls-12 {
        fill: #4e84cb;
      }
    </style>
  </defs>
  <path class="cls-8" d="M206.57,25.51c1.91-.37,8.04,7.88,13.58,18.34l19.76,37.11c5.56,10.45,14.65,10.45,20.21,0l19.74-37.11c5.56-10.45,11.67-18.7,13.6-18.34,1.91.37,4.43,10.79,1.38,22.22l-12.53,46.74c-3.06,11.43-13.48,19.6-23.15,18.17h-18.29c-9.67,1.44-20.09-6.74-23.15-18.17l-12.53-46.74c-3.06-11.43-.53-21.85,1.38-22.22"/>
  <path class="cls-8" d="M239.54,41.29c-5.56-10.45-3.96-19.4,3.58-19.89h13.81c7.52.49,9.12,9.44,3.56,19.89l-.37.7c-5.56,10.44-14.65,10.44-20.21,0l-.37-.7Z"/>
  <path class="cls-9" d="M324.82,33.91c1.83.64,3.01,10.85,2.6,22.67l-1.45,42.02c-.41,11.83,7.47,16.38,17.51,10.1l35.66-22.26c10.04-6.26,19.45-10.36,20.93-9.09,1.48,1.28-1.56,11.57-9.92,19.92l-34.23,34.23c-8.36,8.36-21.47,10.24-29.12,4.16l-7.91-4.57-7.93-4.58c-9.09-3.59-14.03-15.88-10.97-27.3l12.53-46.74c3.06-11.43,10.45-19.19,12.3-18.55"/>
  <path class="cls-9" d="M345.48,64.06c.41-11.83,6.28-18.78,13.03-15.45l5.99,3.45,5.99,3.45c6.25,4.19,3.18,12.76-6.86,19.02l-.67.41c-10.04,6.26-17.92,1.73-17.51-10.1l.03-.79Z"/>
  <path class="cls-3" d="M423.02,100.31c1.27,1.48-2.81,10.89-9.08,20.93l-22.28,35.66c-6.26,10.04-1.73,17.92,10.1,17.51l42.03-1.45c11.81-.41,22.02.75,22.66,2.6.66,1.83-7.12,9.23-18.55,12.3l-46.74,12.51c-11.43,3.07-23.71-1.86-27.3-10.96l-4.57-7.93-4.57-7.91c-6.08-7.66-4.22-20.76,4.16-29.14l34.21-34.21c8.36-8.37,18.66-11.4,19.92-9.92"/>
  <path class="cls-3" d="M425.84,136.76c6.26-10.04,14.82-13.12,19.02-6.86l3.45,5.99,3.45,5.97c3.33,6.77-3.62,12.64-15.45,13.05l-.79.02c-11.83.41-16.36-7.46-10.1-17.49l.41-.67Z"/>
  <path class="cls-7" d="M474.87,206.92c.37,1.91-7.88,8.04-18.34,13.58l-37.11,19.76c-10.45,5.56-10.45,14.65,0,20.21l37.11,19.76c10.45,5.55,18.7,11.66,18.34,13.58-.37,1.91-10.79,4.43-22.22,1.38l-46.74-12.53c-11.43-3.06-19.6-13.48-18.17-23.15v-18.29c-1.44-9.67,6.74-20.09,18.17-23.15l46.74-12.53c11.43-3.06,21.85-.53,22.22,1.38"/>
  <path class="cls-7" d="M459.09,239.89c10.45-5.56,19.4-3.96,19.89,3.58v13.81c-.49,7.52-9.44,9.12-19.89,3.56l-.7-.37c-10.44-5.56-10.44-14.65,0-20.21l.7-.37Z"/>
  <path class="cls-2" d="M466.47,325.17c-.64,1.83-10.85,3.01-22.67,2.6l-42.02-1.45c-11.83-.41-16.38,7.47-10.12,17.49l22.28,35.68c6.26,10.02,10.36,19.45,9.09,20.93-1.28,1.48-11.57-1.54-19.92-9.92l-34.23-34.23c-8.36-8.36-10.24-21.47-4.16-29.12l4.57-7.91,4.58-7.93c3.59-9.09,15.88-14.03,27.3-10.97l46.74,12.53c11.43,3.07,19.19,10.47,18.55,12.3"/>
  <path class="cls-2" d="M436.32,345.83c11.83.41,18.78,6.28,15.45,13.03l-3.45,5.99-3.45,5.99c-4.19,6.25-12.74,3.16-19.02-6.86l-.41-.67c-6.26-10.04-1.73-17.92,10.1-17.51l.79.03Z"/>
  <path class="cls-1" d="M400.07,423.37c-1.48,1.27-10.89-2.81-20.93-9.08l-35.66-22.28c-10.04-6.26-17.92-1.73-17.51,10.1l1.45,42.03c.41,11.81-.75,22.02-2.6,22.66-1.85.66-9.23-7.12-12.3-18.55l-12.51-46.74c-3.07-11.43,1.86-23.71,10.96-27.3l7.93-4.57,7.91-4.57c7.66-6.08,20.76-4.22,29.14,4.16l34.21,34.21c8.36,8.37,11.4,18.66,9.92,19.92"/>
  <path class="cls-1" d="M363.63,426.19c10.04,6.26,13.12,14.82,6.86,19.01l-5.99,3.47-5.97,3.45c-6.77,3.32-12.64-3.64-13.05-15.46l-.02-.78c-.41-11.83,7.46-16.38,17.5-10.11l.67.43Z"/>
  <path class="cls-6" d="M293.46,475.22c-1.91.37-8.04-7.88-13.58-18.34l-19.76-37.11c-5.56-10.45-14.65-10.45-20.21,0l-19.74,37.11c-5.56,10.45-11.67,18.7-13.6,18.34-1.91-.37-4.43-10.79-1.38-22.22l12.53-46.74c3.06-11.43,13.48-19.6,23.15-18.17h18.29c9.67-1.44,20.09,6.74,23.15,18.17l12.53,46.74c3.06,11.43.55,21.85-1.38,22.22"/>
  <path class="cls-6" d="M260.5,459.44c5.56,10.45,3.96,19.4-3.56,19.89h-13.83c-7.52-.49-9.12-9.44-3.56-19.89l.37-.7c5.55-10.44,14.65-10.44,20.21,0l.37.7Z"/>
  <path class="cls-10" d="M175.21,466.81c-1.85-.64-3.01-10.85-2.6-22.67l1.45-42.02c.41-11.83-7.47-16.38-17.49-10.1l-35.68,22.26c-10.02,6.26-19.45,10.36-20.93,9.09-1.48-1.28,1.54-11.57,9.92-19.92l34.21-34.23c8.37-8.36,21.48-10.24,29.14-4.16l7.91,4.57,7.93,4.58c9.09,3.59,14.03,15.88,10.97,27.3l-12.53,46.74c-3.07,11.43-10.47,19.19-12.3,18.55"/>
  <path class="cls-10" d="M154.55,436.66c-.41,11.83-6.28,18.78-13.03,15.45l-5.99-3.45-5.99-3.45c-6.25-4.19-3.16-12.74,6.86-19.01l.67-.43c10.04-6.26,17.92-1.73,17.51,10.1l-.03.79Z"/>
  <path class="cls-12" d="M77.01,400.42c-1.27-1.48,2.81-10.89,9.08-20.93l22.28-35.66c6.26-10.04,1.73-17.92-10.1-17.51l-42.02,1.45c-11.83.41-22.03-.75-22.67-2.6-.64-1.83,7.12-9.23,18.55-12.3l46.74-12.51c11.43-3.07,23.71,1.86,27.3,10.96l4.57,7.93,4.58,7.91c6.08,7.66,4.2,20.76-4.16,29.14l-34.23,34.21c-8.36,8.37-18.66,11.4-19.92,9.92"/>
  <path class="cls-12" d="M74.19,363.97c-6.26,10.04-14.82,13.13-19.02,6.86l-3.45-5.99-3.45-5.97c-3.33-6.77,3.62-12.64,15.45-13.05l.79-.02c11.83-.41,16.36,7.46,10.1,17.49l-.41.67Z"/>
  <path class="cls-5" d="M25.16,293.81c-.37-1.91,7.88-8.04,18.33-13.58l37.13-19.76c10.44-5.56,10.44-14.65,0-20.21l-37.13-19.74c-10.45-5.56-18.69-11.67-18.33-13.6.37-1.91,10.79-4.43,22.22-1.38l46.74,12.53c11.43,3.06,19.6,13.48,18.17,23.15v18.29c1.44,9.67-6.74,20.09-18.17,23.15l-46.74,12.53c-11.43,3.07-21.85.53-22.22-1.38"/>
  <path class="cls-5" d="M40.94,260.84c-10.45,5.56-19.41,3.96-19.89-3.58v-13.81c.49-7.52,9.44-9.12,19.89-3.56l.7.37c10.45,5.56,10.45,14.65,0,20.21l-.7.37Z"/>
  <path class="cls-11" d="M33.57,175.56c.64-1.83,10.85-3.01,22.67-2.6l42.02,1.45c11.83.41,16.38-7.47,10.1-17.49l-22.26-35.68c-6.26-10.02-10.36-19.45-9.09-20.93,1.28-1.48,11.57,1.56,19.92,9.92l34.23,34.23c8.36,8.36,10.24,21.47,4.16,29.12l-4.57,7.91-4.58,7.93c-3.59,9.09-15.88,14.03-27.3,10.97l-46.74-12.53c-11.43-3.07-19.19-10.47-18.55-12.3"/>
  <path class="cls-11" d="M63.72,154.9c-11.83-.41-18.78-6.28-15.45-13.03l3.45-5.99,3.45-5.99c4.19-6.25,12.76-3.16,19.02,6.86l.41.67c6.26,10.04,1.73,17.92-10.1,17.51l-.79-.03Z"/>
  <path class="cls-4" d="M99.97,77.36c1.48-1.27,10.89,2.81,20.93,9.08l35.68,22.28c10.02,6.26,17.91,1.73,17.49-10.1l-1.47-42.03c-.4-11.81.76-22.02,2.61-22.66,1.83-.66,9.23,7.12,12.3,18.55l12.51,46.74c3.07,11.43-1.86,23.71-10.97,27.3l-7.91,4.57-7.91,4.57c-7.66,6.08-20.76,4.22-29.14-4.16l-34.21-34.21c-8.37-8.36-11.4-18.66-9.92-19.92"/>
  <path class="cls-4" d="M136.41,74.54c-10.04-6.26-13.13-14.82-6.86-19.02l5.99-3.45,5.97-3.45c6.77-3.33,12.64,3.62,13.05,15.45l.02.79c.41,11.83-7.46,16.38-17.5,10.1l-.67-.41Z"/>
</svg>