<?xml version="1.0" encoding="UTF-8"?>
<svg id="Layer_1" data-name="Layer 1" xmlns="http://www.w3.org/2000/svg" xmlns:xlink="http://www.w3.org/1999/xlink" viewBox="0 0 280 100">
  <defs>
    <style>
      .cls-1 {
        fill: #1e9e49;
      }

      .cls-2 {
        fill: #0d529d;
      }

      .cls-3 {
        fill: #13409b;
      }

      .cls-4 {
        fill: #092783;
      }

      .cls-5 {
        fill: #a5b8f7;
      }

      .cls-6 {
        fill: #6b96da;
      }

      .cls-7 {
        fill: #fff;
      }

      .cls-8 {
        fill: #0a61a0;
      }

      .cls-9 {
        fill: #00a651;
      }

      .cls-10 {
        fill: none;
      }

      .cls-11 {
        fill: #073686;
      }

      .cls-12 {
        clip-path: url(#clippath-1);
      }

      .cls-13 {
        fill: #071e81;
      }

      .cls-14 {
        fill: #011e84;
      }

      .cls-15 {
        fill: #2c70b9;
      }

      .cls-16 {
        fill: #3c55a0;
      }

      .cls-17 {
        clip-path: url(#clippath);
      }

      .cls-18 {
        fill: #85a4eb;
      }

      .cls-19 {
        fill: #4e84cb;
      }
    </style>
    <clipPath id="clippath">
      <rect class="cls-10" x="-40.89" y="-84.42" width="361.77" height="249.7"/>
    </clipPath>
    <clipPath id="clippath-1">
      <rect class="cls-10" x="-40.89" y="-84.42" width="361.77" height="249.7"/>
    </clipPath>
  </defs>
  <g class="cls-17">
    <path class="cls-1" d="M14.71,24.36h4.76c.68,0,1.3-.1,1.85-.31.55-.21,1.03-.51,1.43-.9.4-.39.71-.85.93-1.39.22-.54.33-1.15.33-1.83s-.11-1.3-.33-1.85c-.22-.55-.53-1.01-.92-1.39-.39-.38-.86-.67-1.41-.88-.55-.21-1.17-.31-1.85-.31h-4.69l.44-.44v22.34h-4.54V11.43h9.45c1.22,0,2.36.2,3.41.6,1.05.4,1.95.97,2.71,1.7.76.73,1.36,1.62,1.8,2.66.44,1.04.66,2.19.66,3.46s-.22,2.42-.66,3.46c-.44,1.04-1.04,1.93-1.8,2.67-.76.74-1.66,1.32-2.71,1.72-1.05.4-2.17.6-3.37.6h-5.49v-3.96Z"/>
  </g>
  <g>
    <path d="M19.6,68.46c-.37.28-.83.5-1.4.67-.56.17-1.16.25-1.78.25-.8,0-1.55-.15-2.24-.44-.69-.29-1.29-.69-1.8-1.19s-.91-1.1-1.2-1.8-.43-1.44-.43-2.24.14-1.59.43-2.28c.29-.69.69-1.29,1.19-1.79s1.1-.9,1.78-1.18c.68-.28,1.41-.42,2.19-.42.58,0,1.12.06,1.62.19.5.12.97.31,1.41.55v1.42c-.44-.28-.91-.5-1.41-.65s-1-.23-1.5-.23c-.62,0-1.2.11-1.73.34s-.99.54-1.37.93c-.38.39-.69.85-.91,1.39s-.33,1.11-.33,1.74c0,.67.12,1.28.36,1.82.24.54.56,1,.96,1.38.41.38.88.67,1.41.87.54.2,1.11.3,1.72.3.53,0,1.05-.09,1.57-.27.52-.18,1-.43,1.45-.76v1.4Z"/>
    <path d="M21.81,58.22h1.33v9.96l-.19-.19h5.2v1.2h-6.33v-10.97Z"/>
    <path d="M30.02,58.22h1.33v10.97h-1.33v-10.97Z"/>
    <path d="M34.43,58.08h.41l7.31,8.39-.13.03v-8.28h1.33v11.13h-.41l-7.3-8.37.13-.05v8.26h-1.34v-11.11Z"/>
    <path d="M46.45,58.22h1.33v10.97h-1.33v-10.97Z"/>
    <path d="M58.95,68.46c-.37.28-.83.5-1.4.67-.56.17-1.16.25-1.78.25-.8,0-1.55-.15-2.24-.44-.69-.29-1.29-.69-1.8-1.19s-.91-1.1-1.2-1.8-.43-1.44-.43-2.24.14-1.59.43-2.28c.29-.69.69-1.29,1.19-1.79s1.1-.9,1.78-1.18c.68-.28,1.41-.42,2.19-.42.58,0,1.12.06,1.62.19.5.12.97.31,1.41.55v1.42c-.44-.28-.91-.5-1.41-.65s-1-.23-1.5-.23c-.62,0-1.2.11-1.73.34s-.99.54-1.37.93c-.38.39-.69.85-.91,1.39s-.33,1.11-.33,1.74c0,.67.12,1.28.36,1.82.24.54.56,1,.96,1.38.41.38.88.67,1.41.87.54.2,1.11.3,1.72.3.53,0,1.05-.09,1.57-.27.52-.18,1-.43,1.45-.76v1.4Z"/>
    <path d="M64.78,60.48h.16l-3.74,8.71h-1.44l4.91-11.11h.41l4.91,11.11h-1.45l-3.76-8.71ZM62.03,65.52h5.69v1.18h-5.69v-1.18Z"/>
    <path d="M71.68,58.22h1.33v9.96l-.19-.19h5.2v1.2h-6.33v-10.97Z"/>
    <path d="M91.93,68.46c-.37.28-.83.5-1.4.67-.56.17-1.16.25-1.78.25-.8,0-1.55-.15-2.24-.44-.69-.29-1.29-.69-1.8-1.19s-.91-1.1-1.2-1.8-.43-1.44-.43-2.24.14-1.59.43-2.28c.29-.69.69-1.29,1.19-1.79s1.1-.9,1.78-1.18c.68-.28,1.41-.42,2.19-.42.58,0,1.12.06,1.62.19.5.12.97.31,1.41.55v1.42c-.44-.28-.91-.5-1.41-.65s-1-.23-1.5-.23c-.62,0-1.2.11-1.73.34s-.99.54-1.37.93c-.38.39-.69.85-.91,1.39s-.33,1.11-.33,1.74c0,.67.12,1.28.36,1.82.24.54.56,1,.96,1.38.41.38.88.67,1.41.87.54.2,1.11.3,1.72.3.53,0,1.05-.09,1.57-.27.52-.18,1-.43,1.45-.76v1.4Z"/>
    <path d="M101.35,58.47c.69.29,1.3.68,1.82,1.18s.92,1.1,1.22,1.8c.29.7.44,1.45.44,2.26s-.15,1.56-.44,2.25c-.3.69-.7,1.29-1.22,1.79s-1.12.9-1.82,1.19c-.7.29-1.44.44-2.24.44s-1.55-.15-2.24-.44c-.69-.29-1.3-.69-1.82-1.19-.52-.5-.92-1.1-1.22-1.79-.29-.69-.44-1.44-.44-2.25s.15-1.56.44-2.26.7-1.3,1.22-1.8c.52-.5,1.12-.9,1.82-1.18.69-.29,1.44-.43,2.24-.43s1.55.14,2.24.43ZM97.41,59.65c-.53.22-.99.53-1.38.93-.4.4-.71.86-.93,1.39-.23.53-.34,1.11-.34,1.75s.11,1.2.34,1.74c.23.54.54,1,.93,1.4.39.39.86.7,1.38.92.53.22,1.09.33,1.69.33s1.16-.11,1.69-.33c.53-.22.99-.53,1.38-.92.4-.39.71-.86.93-1.4s.34-1.11.34-1.74-.11-1.22-.34-1.75-.54-.99-.93-1.39c-.39-.39-.86-.7-1.38-.93-.53-.22-1.09-.33-1.69-.33s-1.16.11-1.69.33Z"/>
    <path d="M112.5,68.71l-3.51-7.34.11-.02-1.42,7.84h-1.36l2.02-11.11h.43l4.01,8.54h-.16l4.01-8.54h.41l2.04,11.11h-1.36l-1.44-7.84.11.02-3.51,7.34h-.4Z"/>
    <path d="M122.42,63.87h2.57c.34,0,.65-.05.92-.16.28-.11.52-.26.73-.45.21-.19.37-.42.48-.69.12-.27.17-.58.17-.92s-.06-.67-.17-.94c-.12-.28-.27-.51-.47-.69-.2-.19-.44-.33-.72-.44-.28-.1-.59-.16-.92-.16h-2.54l.19-.19v9.98h-1.33v-10.97h3.87c.49,0,.95.08,1.37.23.42.16.79.38,1.1.69.31.3.56.66.73,1.08.18.42.27.88.27,1.39s-.09.96-.27,1.38-.42.78-.73,1.08c-.31.3-.68.53-1.1.69s-.87.24-1.36.24h-2.8v-1.14Z"/>
    <path d="M130.73,58.22h1.33v9.96l-.19-.19h5.2v1.2h-6.33v-10.97Z"/>
    <path d="M138.94,58.22h1.33v10.97h-1.33v-10.97Z"/>
    <path d="M146.97,60.48h.16l-3.74,8.71h-1.44l4.91-11.11h.41l4.91,11.11h-1.45l-3.76-8.71ZM144.22,65.52h5.69v1.18h-5.69v-1.18Z"/>
    <path d="M153.87,58.08h.41l7.31,8.39-.13.03v-8.28h1.33v11.13h-.41l-7.3-8.37.13-.05v8.26h-1.34v-11.11Z"/>
    <path d="M173.98,68.46c-.37.28-.83.5-1.4.67s-1.16.25-1.78.25c-.8,0-1.55-.15-2.24-.44-.69-.29-1.29-.69-1.8-1.19s-.91-1.1-1.2-1.8c-.29-.7-.43-1.44-.43-2.24s.14-1.59.43-2.28c.29-.69.69-1.29,1.19-1.79s1.1-.9,1.78-1.18c.68-.28,1.41-.42,2.19-.42.58,0,1.12.06,1.62.19.5.12.97.31,1.41.55v1.42c-.44-.28-.91-.5-1.41-.65s-1-.23-1.5-.23c-.62,0-1.2.11-1.73.34-.53.23-.99.54-1.37.93-.38.39-.69.85-.91,1.39-.22.54-.33,1.11-.33,1.74,0,.67.12,1.28.36,1.82.24.54.56,1,.96,1.38.41.38.88.67,1.41.87.54.2,1.11.3,1.72.3.53,0,1.05-.09,1.57-.27.52-.18,1-.43,1.45-.76v1.4Z"/>
    <path d="M183,58.22v1.18h-5.67l.19-.19v8.95l-.19-.19h5.86v1.22h-7v-10.97h6.81ZM182.07,63.06v1.2h-4.79v-1.2h4.79Z"/>
    <path d="M190.55,63.87h2.58c.34,0,.64-.05.92-.16.28-.11.52-.26.73-.45.21-.19.37-.42.48-.69.12-.27.17-.58.17-.92s-.06-.67-.17-.94c-.12-.28-.27-.51-.47-.69-.2-.19-.44-.33-.72-.44-.28-.1-.59-.16-.92-.16h-2.54l.19-.19v9.98h-1.33v-10.97h3.87c.5,0,.95.08,1.38.23.42.16.79.38,1.1.69s.56.66.73,1.08c.18.42.27.88.27,1.39s-.09.96-.27,1.38-.42.78-.73,1.08c-.31.3-.68.53-1.1.69-.42.16-.88.24-1.36.24h-2.8v-1.14Z"/>
    <path d="M198.86,58.22h1.33v9.96l-.19-.19h5.2v1.2h-6.33v-10.97Z"/>
    <path d="M210.69,60.48h.16l-3.74,8.71h-1.44l4.91-11.11h.41l4.91,11.11h-1.45l-3.76-8.71ZM207.94,65.52h5.69v1.18h-5.69v-1.18Z"/>
    <path d="M216.38,59.41v-1.18h8.18v1.18h-8.18ZM219.8,59.17h1.33v10.02h-1.33v-10.02Z"/>
    <path d="M226.44,58.22h6.32v1.18h-5.18l.19-.19v9.98h-1.33v-10.97ZM227.53,63.21h4.55v1.17h-4.55v-1.17Z"/>
    <path d="M242.05,58.47c.7.29,1.3.68,1.82,1.18.52.5.92,1.1,1.22,1.8s.44,1.45.44,2.26-.15,1.56-.44,2.25c-.29.69-.7,1.29-1.22,1.79-.52.5-1.12.9-1.82,1.19-.69.29-1.44.44-2.24.44s-1.55-.15-2.24-.44c-.7-.29-1.3-.69-1.82-1.19-.52-.5-.92-1.1-1.22-1.79-.29-.69-.44-1.44-.44-2.25s.15-1.56.44-2.26.7-1.3,1.22-1.8c.52-.5,1.12-.9,1.82-1.18.69-.29,1.44-.43,2.24-.43s1.55.14,2.24.43ZM238.11,59.65c-.53.22-.99.53-1.38.93-.39.4-.71.86-.93,1.39s-.34,1.11-.34,1.75.11,1.2.34,1.74.54,1,.93,1.4c.4.39.86.7,1.38.92.53.22,1.09.33,1.69.33s1.16-.11,1.69-.33c.53-.22.99-.53,1.38-.92.39-.39.71-.86.93-1.4s.34-1.11.34-1.74-.11-1.22-.34-1.75-.54-.99-.93-1.39c-.4-.39-.86-.7-1.38-.93s-1.09-.33-1.69-.33-1.16.11-1.69.33Z"/>
    <path d="M247.86,69.2v-10.97h4.31c.48,0,.94.08,1.36.23.42.15.79.37,1.11.65.32.29.56.63.74,1.04.18.4.27.85.27,1.34,0,.4-.06.76-.18,1.1-.12.34-.29.64-.51.9-.22.27-.47.49-.77.68-.29.19-.62.33-.98.44l2.38,4.6h-1.52l-2.26-4.47-2.88.02v-1.11h3c.33,0,.63-.05.92-.15s.53-.24.73-.43c.21-.19.37-.41.48-.67.12-.26.17-.55.17-.87s-.06-.63-.17-.89c-.12-.26-.28-.48-.48-.66s-.45-.32-.73-.41-.59-.14-.92-.14h-2.95l.19-.19v9.98h-1.33Z"/>
    <path d="M263.4,68.71l-3.51-7.34.11-.02-1.42,7.84h-1.36l2.02-11.11h.43l4.01,8.54h-.16l4.01-8.54h.41l2.04,11.11h-1.36l-1.44-7.84.11.02-3.51,7.34h-.39Z"/>
  </g>
  <g>
    <path class="cls-16" d="M10.72,43.62h1.09v7.77h-1.09v-7.77ZM11.64,47.03h4.44v.95h-4.44v-.95ZM15.92,43.62h1.09v7.77h-1.09v-7.77Z"/>
    <path class="cls-16" d="M26.28,43.62v.99h-3.86l.13-.13v6.04l-.13-.13h3.97v1h-4.93v-7.77h4.82ZM25.64,46.97v.99h-3.26v-.99h3.26Z"/>
    <path class="cls-16" d="M32.95,45.52h.11l-2.5,5.86h-1.18l3.46-7.87h.33l3.46,7.87h-1.19l-2.51-5.86ZM31.08,48.78h3.86v.98h-3.86v-.98Z"/>
    <path class="cls-16" d="M40.16,43.62h1.09v6.91l-.13-.13h3.55v.99h-4.51v-7.77Z"/>
    <path class="cls-16" d="M46.35,44.61v-.99h5.75v.99h-5.75ZM48.68,44.44h1.09v6.94h-1.09v-6.94Z"/>
    <path class="cls-16" d="M55.73,43.62h1.09v7.77h-1.09v-7.77ZM56.65,47.03h4.44v.95h-4.44v-.95ZM60.93,43.62h1.09v7.77h-1.09v-7.77Z"/>
    <path class="cls-16" d="M72.13,50.88c-.23.19-.55.34-.94.46-.39.12-.81.18-1.24.18-.56,0-1.08-.1-1.56-.31-.48-.21-.91-.49-1.27-.84-.36-.36-.64-.78-.85-1.27-.21-.49-.31-1.02-.31-1.59s.1-1.12.31-1.61c.21-.49.48-.91.84-1.27s.76-.64,1.24-.84c.47-.2.98-.3,1.51-.3.4,0,.77.04,1.12.13s.69.22,1,.4v1.16c-.32-.2-.64-.35-.98-.46-.34-.11-.68-.16-1.03-.16-.41,0-.79.08-1.14.23s-.66.36-.91.62c-.26.26-.46.58-.6.94-.15.36-.22.75-.22,1.17,0,.47.08.89.25,1.25.17.37.39.67.66.92s.59.44.95.57.74.2,1.13.2c.35,0,.7-.06,1.06-.19.35-.12.68-.3.99-.54v1.16Z"/>
    <path class="cls-16" d="M78.62,45.52h.11l-2.5,5.86h-1.18l3.46-7.87h.33l3.46,7.87h-1.19l-2.51-5.86ZM76.75,48.78h3.86v.98h-3.86v-.98Z"/>
    <path class="cls-16" d="M85.84,51.39v-7.77h3.07c.35,0,.68.05.98.17.3.11.56.27.79.47.22.21.4.45.52.74.12.29.19.61.19.96,0,.28-.04.54-.12.78-.08.24-.19.45-.34.64-.15.19-.32.35-.53.49-.21.14-.43.24-.68.31l1.64,3.2h-1.24l-1.54-3.09h-1.8s0-.9,0-.9h1.95c.23,0,.44-.03.63-.1.19-.07.35-.16.49-.28.14-.12.24-.27.31-.44.07-.17.11-.36.11-.58,0-.23-.04-.43-.11-.6-.07-.17-.18-.32-.31-.43s-.3-.21-.48-.26c-.19-.06-.39-.09-.62-.09h-1.92l.13-.13v6.91h-1.09Z"/>
    <path class="cls-16" d="M100.19,43.62v.99h-3.86l.13-.13v6.04l-.13-.13h3.97v1h-4.93v-7.77h4.82ZM99.55,46.97v.99h-3.26v-.99h3.26Z"/>
    <path class="cls-16" d="M111.61,45.52h.11l-2.5,5.86h-1.18l3.46-7.87h.33l3.46,7.87h-1.19l-2.51-5.86ZM109.74,48.78h3.86v.98h-3.86v-.98Z"/>
    <path class="cls-16" d="M118.82,43.62h1.09v7.77h-1.09v-7.77Z"/>
    <path class="cls-16" d="M129.49,43.62h1.09v6.91l-.13-.13h3.55v.99h-4.51v-7.77Z"/>
    <path class="cls-16" d="M142.28,43.8c.48.21.91.49,1.27.84.36.36.65.78.85,1.27.21.49.31,1.02.31,1.59s-.1,1.1-.31,1.59c-.21.49-.49.92-.85,1.27s-.79.64-1.27.84c-.48.21-1.01.31-1.57.31s-1.08-.1-1.57-.31c-.49-.21-.91-.49-1.28-.84s-.65-.78-.85-1.27c-.21-.49-.31-1.02-.31-1.59s.1-1.1.31-1.59c.21-.49.49-.92.85-1.27.36-.36.79-.64,1.28-.84.49-.21,1.01-.31,1.57-.31s1.09.1,1.57.31ZM139.59,44.77c-.35.15-.65.35-.92.62s-.47.58-.62.94-.23.75-.23,1.18.08.82.23,1.18.36.67.62.93c.26.26.57.47.92.62.35.15.72.22,1.12.22s.77-.07,1.12-.22c.35-.15.65-.35.92-.62.26-.26.47-.58.62-.93s.23-.75.23-1.18-.08-.82-.23-1.18-.36-.67-.62-.94-.57-.47-.92-.62c-.35-.15-.72-.22-1.12-.22s-.77.07-1.12.22Z"/>
    <path class="cls-16" d="M151.04,44.77c-.35.15-.65.35-.92.62s-.47.58-.62.94c-.15.36-.23.75-.23,1.18s.08.82.23,1.18c.15.36.36.67.62.93.26.26.57.47.92.62.35.15.72.22,1.12.22.35,0,.69-.05,1.02-.15s.62-.25.88-.46c.25-.2.45-.46.6-.77.15-.31.21-.68.2-1.09l.13.15h-2.74v-.96h3.65c.02.12.04.25.05.36s.02.24.02.36c0,.52-.1,1-.29,1.44-.19.44-.46.82-.8,1.14-.34.32-.74.58-1.21.76-.47.18-.97.27-1.5.27s-1.08-.1-1.57-.31c-.49-.21-.91-.49-1.28-.84s-.65-.78-.85-1.27-.31-1.02-.31-1.59.1-1.1.31-1.59.49-.92.85-1.27c.36-.36.79-.64,1.28-.84.49-.21,1.01-.31,1.57-.31.72,0,1.35.14,1.89.41.54.27,1,.65,1.36,1.14l-.84.7c-.26-.37-.58-.67-.96-.88s-.86-.31-1.46-.31c-.4,0-.77.07-1.12.22Z"/>
    <path class="cls-16" d="M159.82,43.62h1.09v7.77h-1.09v-7.77Z"/>
    <path class="cls-16" d="M171.02,50.88c-.24.19-.55.34-.94.46-.39.12-.8.18-1.24.18-.56,0-1.08-.1-1.56-.31-.48-.21-.91-.49-1.27-.84s-.64-.78-.85-1.27-.31-1.02-.31-1.59.1-1.12.31-1.61c.21-.49.48-.91.84-1.27.35-.36.76-.64,1.24-.84.47-.2.98-.3,1.51-.3.4,0,.77.04,1.12.13.35.09.69.22,1,.4v1.16c-.32-.2-.64-.35-.98-.46-.34-.11-.68-.16-1.03-.16-.41,0-.79.08-1.14.23-.35.15-.66.36-.91.62-.26.26-.46.58-.6.94s-.22.75-.22,1.17c0,.47.08.89.25,1.25.17.37.38.67.66.92.27.25.59.44.95.57s.74.2,1.13.2c.35,0,.7-.06,1.06-.19.35-.12.68-.3.99-.54v1.16Z"/>
    <path class="cls-16" d="M185.09,43.8c.48.21.91.49,1.27.84.36.36.65.78.85,1.27.21.49.31,1.02.31,1.59s-.1,1.1-.31,1.59c-.21.49-.49.92-.85,1.27-.36.36-.79.64-1.27.84-.48.21-1.01.31-1.57.31s-1.08-.1-1.57-.31c-.49-.21-.91-.49-1.28-.84s-.65-.78-.85-1.27-.31-1.02-.31-1.59.1-1.1.31-1.59.49-.92.85-1.27c.36-.36.79-.64,1.28-.84.49-.21,1.01-.31,1.57-.31s1.09.1,1.57.31ZM182.4,44.77c-.35.15-.65.35-.92.62s-.47.58-.62.94c-.15.36-.23.75-.23,1.18s.08.82.23,1.18c.15.36.36.67.62.93.26.26.57.47.92.62.35.15.72.22,1.12.22s.77-.07,1.12-.22c.35-.15.65-.35.92-.62s.47-.58.62-.93.23-.75.23-1.18-.08-.82-.23-1.18-.36-.67-.62-.94c-.26-.26-.57-.47-.92-.62-.35-.15-.72-.22-1.12-.22s-.77.07-1.12.22Z"/>
    <path class="cls-16" d="M192.39,47.56h1.63c.23,0,.43-.03.62-.1.19-.07.35-.17.48-.3s.24-.28.31-.46.11-.38.11-.61-.04-.44-.11-.63c-.07-.18-.18-.34-.31-.46-.13-.12-.29-.22-.48-.29-.19-.07-.39-.1-.62-.1h-1.61l.13-.13v6.91h-1.09v-7.77h2.74c.35,0,.68.06.98.17.3.11.56.28.78.49.22.21.39.47.52.77s.19.63.19,1-.06.7-.19,1-.3.56-.52.78c-.22.22-.48.38-.78.5s-.62.18-.97.18h-1.83v-.95Z"/>
    <path class="cls-16" d="M205.25,43.62v.99h-3.86l.13-.13v6.04l-.13-.13h3.97v1h-4.93v-7.77h4.82ZM204.61,46.97v.99h-3.26v-.99h3.26Z"/>
    <path class="cls-16" d="M209.29,51.39v-7.77h3.07c.35,0,.68.05.98.17.3.11.56.27.79.47s.4.45.52.74c.12.29.19.61.19.96,0,.28-.04.54-.12.78s-.19.45-.34.64c-.15.19-.32.35-.53.49s-.43.24-.68.31l1.64,3.2h-1.24l-1.54-3.09h-1.8s0-.9,0-.9h1.95c.23,0,.44-.03.63-.1.19-.07.35-.16.49-.28.14-.12.24-.27.31-.44.07-.17.11-.36.11-.58,0-.23-.04-.43-.11-.6-.07-.17-.18-.32-.31-.43s-.3-.21-.48-.26c-.19-.06-.39-.09-.62-.09h-1.92l.13-.13v6.91h-1.09Z"/>
    <path class="cls-16" d="M221.46,45.52h.11l-2.5,5.86h-1.18l3.47-7.87h.33l3.47,7.87h-1.19l-2.51-5.86ZM219.59,48.78h3.86v.98h-3.86v-.98Z"/>
    <path class="cls-16" d="M226.94,44.61v-.99h5.75v.99h-5.75ZM229.27,44.44h1.09v6.94h-1.09v-6.94Z"/>
    <path class="cls-16" d="M236.33,43.62h1.09v7.77h-1.09v-7.77Z"/>
    <path class="cls-16" d="M246.94,43.8c.48.21.91.49,1.27.84.36.36.65.78.85,1.27.21.49.31,1.02.31,1.59s-.1,1.1-.31,1.59c-.21.49-.49.92-.85,1.27-.36.36-.79.64-1.27.84-.48.21-1.01.31-1.57.31s-1.08-.1-1.57-.31c-.49-.21-.91-.49-1.28-.84s-.65-.78-.85-1.27-.31-1.02-.31-1.59.1-1.1.31-1.59.49-.92.85-1.27c.36-.36.79-.64,1.28-.84.49-.21,1.01-.31,1.57-.31s1.09.1,1.57.31ZM244.25,44.77c-.35.15-.65.35-.92.62s-.47.58-.62.94c-.15.36-.23.75-.23,1.18s.08.82.23,1.18c.15.36.36.67.62.93.26.26.57.47.92.62.35.15.72.22,1.12.22s.77-.07,1.12-.22c.35-.15.65-.35.92-.62s.47-.58.62-.93.23-.75.23-1.18-.08-.82-.23-1.18-.36-.67-.62-.94c-.26-.26-.57-.47-.92-.62-.35-.15-.72-.22-1.12-.22s-.77.07-1.12.22Z"/>
    <path class="cls-16" d="M253.32,43.52h.33l5.03,5.57-.09.03v-5.5h1.09v7.88h-.33l-5.02-5.56.09-.03v5.48h-1.1v-7.87Z"/>
    <path class="cls-16" d="M267.13,44.7c-.28-.14-.57-.2-.86-.2-.21,0-.41.03-.58.08-.17.05-.32.12-.44.21s-.21.2-.28.33c-.07.12-.1.26-.1.42,0,.2.04.36.14.5s.22.26.37.37c.16.11.35.21.57.31.22.1.46.21.72.33.31.14.6.28.87.42.26.14.49.29.69.47.19.17.35.37.46.61.11.23.17.52.17.85,0,.28-.06.55-.17.8-.11.26-.28.48-.5.68-.22.19-.49.35-.82.47-.33.12-.71.18-1.14.18-.28,0-.55-.03-.81-.09-.26-.06-.51-.16-.74-.29-.23-.13-.43-.29-.62-.47-.19-.19-.35-.4-.48-.64l.91-.62c.2.37.45.65.75.83.3.18.64.26,1.02.26.23,0,.44-.03.63-.09.18-.06.34-.14.47-.24.13-.1.23-.21.3-.34.07-.12.1-.25.1-.38,0-.2-.04-.37-.13-.51-.08-.14-.2-.26-.35-.37s-.33-.21-.54-.31c-.21-.09-.45-.2-.7-.32-.26-.12-.53-.25-.8-.37-.27-.12-.51-.27-.72-.44-.21-.17-.39-.38-.52-.63s-.2-.55-.2-.92c0-.29.06-.55.19-.81.12-.25.3-.47.52-.66.22-.19.49-.34.8-.45.31-.11.65-.17,1.01-.17.22,0,.45.02.68.07.23.05.46.12.67.23.22.11.42.24.61.41.19.17.35.37.48.62l-.85.58c-.21-.33-.46-.56-.74-.7Z"/>
  </g>
  <g class="cls-12">
    <path class="cls-1" d="M40.02,18.93h.37l-7.8,18.46h-4.83l11.76-26.34h1.43l11.76,26.34h-4.87l-7.8-18.46ZM34.2,28.57h12.05v3.85h-12.05v-3.85Z"/>
    <path class="cls-1" d="M56.17,37.4V11.43h10.59c1.22,0,2.35.19,3.41.57,1.05.38,1.95.92,2.71,1.63.76.71,1.35,1.56,1.78,2.56.43,1,.64,2.11.64,3.33,0,.88-.12,1.7-.37,2.47s-.6,1.46-1.06,2.09c-.46.62-1.01,1.17-1.65,1.65-.64.48-1.34.85-2.12,1.12l5.24,10.55h-5.09l-4.72-9.89-5.31.04v-3.81h5.79c.68,0,1.31-.1,1.87-.29.56-.2,1.04-.47,1.45-.82s.72-.79.93-1.3c.22-.51.33-1.09.33-1.72,0-.68-.11-1.28-.33-1.79-.22-.51-.53-.95-.93-1.3s-.88-.62-1.43-.79c-.55-.17-1.17-.26-1.85-.26h-5.71l.44-.44v22.38h-4.58Z"/>
    <path class="cls-1" d="M80.39,37.4V11.43h10.59c1.22,0,2.35.19,3.41.57,1.05.38,1.95.92,2.71,1.63.76.71,1.35,1.56,1.78,2.56.43,1,.64,2.11.64,3.33,0,.88-.12,1.7-.37,2.47s-.6,1.46-1.06,2.09c-.46.62-1.01,1.17-1.65,1.65-.64.48-1.34.85-2.12,1.12l5.24,10.55h-5.09l-4.72-9.89-5.31.04v-3.81h5.79c.68,0,1.31-.1,1.87-.29.56-.2,1.04-.47,1.45-.82s.71-.79.93-1.3c.22-.51.33-1.09.33-1.72,0-.68-.11-1.28-.33-1.79-.22-.51-.53-.95-.93-1.3s-.88-.62-1.43-.79c-.55-.17-1.17-.26-1.85-.26h-5.71l.44-.44v22.38h-4.58Z"/>
    <rect class="cls-1" x="104.6" y="11.43" width="4.58" height="25.97"/>
    <path class="cls-1" d="M125.79,15.84c-.87-.45-1.78-.68-2.73-.68-.59,0-1.12.07-1.61.22-.49.15-.91.35-1.26.6-.36.26-.63.57-.82.93-.2.37-.29.77-.29,1.21,0,.56.14,1.04.42,1.43.28.39.67.75,1.15,1.08.49.33,1.07.65,1.74.95.67.31,1.4.63,2.18.97,1.05.46,2.03.93,2.93,1.39.9.46,1.68.98,2.35,1.56.66.57,1.18,1.26,1.56,2.05.38.79.57,1.76.57,2.91,0,.98-.2,1.91-.61,2.8-.4.89-.99,1.67-1.76,2.35-.77.67-1.71,1.2-2.82,1.59-1.11.39-2.39.59-3.83.59-.98,0-1.92-.11-2.84-.33-.92-.22-1.77-.55-2.56-.99-.79-.44-1.51-.98-2.16-1.61-.65-.64-1.19-1.36-1.63-2.16l3.48-2.6c.68,1.2,1.53,2.08,2.53,2.65,1,.57,2.09.86,3.26.86.68,0,1.29-.09,1.81-.28.52-.18.98-.41,1.35-.68.38-.27.66-.58.86-.93.2-.35.29-.73.29-1.12,0-.59-.13-1.08-.4-1.48-.27-.4-.65-.77-1.14-1.1-.49-.33-1.09-.65-1.79-.95-.71-.31-1.49-.65-2.35-1.04-.95-.42-1.86-.84-2.73-1.28-.87-.44-1.63-.95-2.29-1.54-.66-.59-1.19-1.28-1.59-2.07-.4-.79-.6-1.75-.6-2.88,0-1.02.21-1.98.64-2.88.43-.89,1.03-1.66,1.8-2.31.77-.65,1.69-1.16,2.76-1.54,1.07-.38,2.24-.57,3.48-.57.81,0,1.61.09,2.42.26.8.17,1.57.45,2.31.82.73.38,1.41.86,2.03,1.43.62.57,1.15,1.26,1.59,2.07l-3.41,2.49c-.66-1.03-1.42-1.76-2.29-2.22"/>
    <path class="cls-1" d="M136.76,11.43h4.58v25.97h-4.58V11.43ZM140.79,22.3h13.37v4.03h-13.37v-4.03ZM153.61,11.43h4.58v25.97h-4.58V11.43Z"/>
    <path class="cls-16" d="M174.12,11.61h3.08v25.79h-3.08V11.61ZM176.65,23.15h15.49v2.67h-15.49v-2.67ZM191.59,11.61h3.08v25.79h-3.08V11.61Z"/>
    <path class="cls-16" d="M210.24,16.92h.37l-8.68,20.48h-3.33l11.39-26.12h.95l11.39,26.12h-3.37l-8.72-20.48ZM203.87,28.75h13.19v2.78h-13.19v-2.78Z"/>
    <polygon class="cls-16" points="226.25 11.61 229.32 11.61 229.32 35.02 228.88 34.58 240.93 34.58 240.93 37.4 226.25 37.4 226.25 11.61"/>
    <g>
      <path class="cls-13" d="M252.49,9.79c.12-.02.53.52.89,1.2l1.29,2.43c.36.68.96.68,1.32,0l1.29-2.43c.36-.68.76-1.22.89-1.2.12.02.29.71.09,1.45l-.82,3.06c-.2.75-.88,1.28-1.51,1.19h-1.2c-.63.09-1.32-.44-1.52-1.19l-.82-3.06c-.2-.75-.03-1.43.09-1.45"/>
      <path class="cls-13" d="M254.65,10.82c-.36-.68-.26-1.27.23-1.3h.9c.49.03.6.62.23,1.3l-.02.05c-.36.68-.96.68-1.32,0l-.02-.05Z"/>
      <path class="cls-14" d="M260.23,10.34c.12.04.2.71.17,1.48l-.1,2.75c-.03.77.49,1.07,1.15.66l2.33-1.46c.66-.41,1.27-.68,1.37-.6.1.08-.1.76-.65,1.3l-2.24,2.24c-.55.55-1.4.67-1.91.27l-.52-.3-.52-.3c-.6-.24-.92-1.04-.72-1.79l.82-3.06c.2-.75.68-1.26.81-1.21"/>
      <path class="cls-14" d="M261.58,12.31c.03-.77.41-1.23.85-1.01l.39.23.39.23c.41.27.21.83-.45,1.24l-.04.03c-.66.41-1.17.11-1.15-.66v-.05Z"/>
      <path class="cls-4" d="M266.65,14.68c.08.1-.18.71-.59,1.37l-1.46,2.33c-.41.66-.11,1.17.66,1.15l2.75-.1c.77-.03,1.44.05,1.48.17.04.12-.47.6-1.21.81l-3.06.82c-.75.2-1.55-.12-1.79-.72l-.3-.52-.3-.52c-.4-.5-.28-1.36.27-1.91l2.24-2.24c.55-.55,1.22-.75,1.3-.65"/>
      <path class="cls-4" d="M266.84,17.07c.41-.66.97-.86,1.24-.45l.23.39.23.39c.22.44-.24.83-1.01.85h-.05c-.77.03-1.07-.49-.66-1.14l.03-.04Z"/>
      <path class="cls-11" d="M270.05,21.66c.02.12-.52.53-1.2.89l-2.43,1.29c-.68.36-.68.96,0,1.32l2.43,1.29c.68.36,1.22.76,1.2.89-.02.12-.71.29-1.45.09l-3.06-.82c-.75-.2-1.28-.88-1.19-1.51v-1.2c-.09-.63.44-1.32,1.19-1.51l3.06-.82c.75-.2,1.43-.04,1.45.09"/>
      <path class="cls-11" d="M269.01,23.82c.68-.36,1.27-.26,1.3.23v.9c-.03.49-.62.6-1.3.23l-.05-.02c-.68-.36-.68-.96,0-1.32l.05-.02Z"/>
      <path class="cls-3" d="M269.5,29.4c-.04.12-.71.2-1.48.17l-2.75-.1c-.77-.03-1.07.49-.66,1.14l1.46,2.34c.41.66.68,1.27.6,1.37-.08.1-.76-.1-1.3-.65l-2.24-2.24c-.55-.55-.67-1.4-.27-1.91l.3-.52.3-.52c.24-.6,1.04-.92,1.79-.72l3.06.82c.75.2,1.26.68,1.21.8"/>
      <path class="cls-3" d="M267.52,30.75c.77.03,1.23.41,1.01.85l-.23.39-.23.39c-.27.41-.83.21-1.24-.45l-.03-.04c-.41-.66-.11-1.17.66-1.15h.05Z"/>
      <path class="cls-2" d="M265.15,35.83c-.1.08-.71-.18-1.37-.59l-2.33-1.46c-.66-.41-1.17-.11-1.15.66l.1,2.75c.03.77-.05,1.44-.17,1.48-.12.04-.6-.47-.8-1.21l-.82-3.06c-.2-.75.12-1.55.72-1.79l.52-.3.52-.3c.5-.4,1.36-.28,1.91.27l2.24,2.24c.55.55.75,1.22.65,1.3"/>
      <path class="cls-2" d="M262.77,36.01c.66.41.86.97.45,1.24l-.39.23-.39.23c-.44.22-.83-.24-.85-1.01v-.05c-.03-.77.49-1.07,1.14-.66l.04.03Z"/>
      <path class="cls-8" d="M258.17,39.22c-.12.02-.53-.52-.89-1.2l-1.29-2.43c-.36-.68-.96-.68-1.32,0l-1.29,2.43c-.36.68-.76,1.22-.89,1.2-.12-.02-.29-.71-.09-1.45l.82-3.06c.2-.75.88-1.28,1.51-1.19h1.2c.63-.09,1.32.44,1.52,1.19l.82,3.06c.2.75.04,1.43-.09,1.45"/>
      <path class="cls-8" d="M256.02,38.19c.36.68.26,1.27-.23,1.3h-.9c-.49-.03-.6-.62-.23-1.3l.02-.05c.36-.68.96-.68,1.32,0l.02.05Z"/>
      <path class="cls-15" d="M250.44,38.67c-.12-.04-.2-.71-.17-1.48l.1-2.75c.03-.77-.49-1.07-1.14-.66l-2.34,1.46c-.66.41-1.27.68-1.37.6-.1-.08.1-.76.65-1.3l2.24-2.24c.55-.55,1.41-.67,1.91-.27l.52.3.52.3c.6.24.92,1.04.72,1.79l-.82,3.06c-.2.75-.68,1.26-.8,1.21"/>
      <path class="cls-15" d="M249.08,36.7c-.03.77-.41,1.23-.85,1.01l-.39-.23-.39-.23c-.41-.27-.21-.83.45-1.24l.04-.03c.66-.41,1.17-.11,1.15.66v.05Z"/>
      <path class="cls-19" d="M244.01,34.32c-.08-.1.18-.71.59-1.37l1.46-2.33c.41-.66.11-1.17-.66-1.15l-2.75.1c-.77.03-1.44-.05-1.48-.17-.04-.12.47-.6,1.21-.81l3.06-.82c.75-.2,1.55.12,1.79.72l.3.52.3.52c.4.5.27,1.36-.27,1.91l-2.24,2.24c-.55.55-1.22.75-1.3.65"/>
      <path class="cls-19" d="M243.82,31.94c-.41.66-.97.86-1.25.45l-.23-.39-.23-.39c-.22-.44.24-.83,1.01-.85h.05c.77-.03,1.07.49.66,1.14l-.03.04Z"/>
      <path class="cls-6" d="M240.61,27.35c-.02-.12.52-.53,1.2-.89l2.43-1.29c.68-.36.68-.96,0-1.32l-2.43-1.29c-.68-.36-1.22-.76-1.2-.89.02-.12.71-.29,1.45-.09l3.06.82c.75.2,1.28.88,1.19,1.51v1.2c.09.63-.44,1.32-1.19,1.51l-3.06.82c-.75.2-1.43.03-1.45-.09"/>
      <path class="cls-6" d="M241.65,25.19c-.68.36-1.27.26-1.3-.23v-.9c.03-.49.62-.6,1.3-.23l.05.02c.68.36.68.96,0,1.32l-.05.02Z"/>
      <path class="cls-18" d="M241.16,19.61c.04-.12.71-.2,1.48-.17l2.75.1c.77.03,1.07-.49.66-1.14l-1.46-2.34c-.41-.66-.68-1.27-.6-1.37.08-.1.76.1,1.3.65l2.24,2.24c.55.55.67,1.4.27,1.91l-.3.52-.3.52c-.24.6-1.04.92-1.79.72l-3.06-.82c-.75-.2-1.26-.68-1.21-.81"/>
      <path class="cls-18" d="M243.14,18.25c-.77-.03-1.23-.41-1.01-.85l.23-.39.23-.39c.27-.41.83-.21,1.24.45l.03.04c.41.66.11,1.17-.66,1.15h-.05Z"/>
      <path class="cls-5" d="M245.51,13.18c.1-.08.71.18,1.37.59l2.33,1.46c.66.41,1.17.11,1.14-.66l-.1-2.75c-.03-.77.05-1.44.17-1.48.12-.04.6.47.8,1.21l.82,3.06c.2.75-.12,1.55-.72,1.79l-.52.3-.52.3c-.5.4-1.36.28-1.91-.27l-2.24-2.24c-.55-.55-.75-1.22-.65-1.3"/>
      <path class="cls-5" d="M247.9,12.99c-.66-.41-.86-.97-.45-1.24l.39-.23.39-.23c.44-.22.83.24.85,1.01v.05c.03.77-.49,1.07-1.14.66l-.04-.03Z"/>
    </g>
  </g>
  <g>
    <path class="cls-9" d="M270.37,92.85H101.96c-1.2,0-2.31-.62-2.94-1.64l-5.72-9.27c-1.52-2.46.25-5.64,3.15-5.64h173.92c.12,0,.23.1.23.23v16.1c0,.12-.1.23-.23.23Z"/>
    <g>
      <path class="cls-7" d="M103.32,80.48h.36l5.48,5.95-.1.04v-5.88h1.19v8.42h-.36l-5.46-5.94.1-.04v5.85h-1.2v-8.4Z"/>
      <path class="cls-7" d="M118.94,85.88c0,.43-.08.84-.25,1.22-.16.38-.39.72-.68,1-.29.28-.64.5-1.04.67-.4.16-.83.25-1.31.25s-.91-.08-1.31-.25c-.4-.17-.75-.39-1.04-.67-.29-.28-.52-.62-.68-1-.16-.38-.25-.79-.25-1.22v-5.3h1.19v5.23c0,.28.05.55.15.81.1.25.24.48.43.66.18.19.4.34.66.45.26.11.54.17.85.17s.58-.06.84-.17c.26-.11.48-.26.66-.45.18-.19.33-.41.43-.66s.16-.52.16-.81v-5.23h1.19v5.3Z"/>
      <path class="cls-7" d="M121.1,88.88v-8.3h3.34c.38,0,.74.06,1.07.18.33.12.61.29.86.51.24.22.43.48.57.79s.2.65.2,1.03c0,.3-.04.57-.13.83-.09.25-.21.48-.37.69-.16.2-.35.38-.58.52-.22.15-.47.26-.74.33l1.79,3.42h-1.35l-1.68-3.3h-1.96s0-.96,0-.96h2.12c.25,0,.48-.04.68-.11.21-.07.39-.17.53-.3.15-.13.26-.29.34-.47.08-.18.12-.39.12-.62,0-.24-.04-.46-.12-.64-.08-.18-.19-.34-.34-.46-.15-.12-.32-.22-.53-.28-.2-.06-.43-.09-.68-.09h-2.1l.14-.14v7.38h-1.19Z"/>
      <path class="cls-7" d="M132.17,81.74c-.31-.15-.62-.22-.94-.22-.23,0-.44.03-.63.08-.19.05-.35.13-.48.23s-.23.21-.31.35c-.07.13-.11.28-.11.45,0,.21.05.39.15.54.1.15.24.28.41.39.17.12.38.23.62.33.24.11.5.22.78.35.34.15.66.3.95.45.29.15.54.32.75.5.21.18.38.4.5.65.12.25.18.55.18.91,0,.3-.06.58-.19.86-.12.27-.31.52-.55.72-.24.21-.54.38-.89.5s-.77.19-1.24.19c-.3,0-.6-.03-.89-.1s-.56-.17-.8-.31c-.25-.14-.47-.31-.68-.5-.2-.2-.38-.43-.52-.69l.99-.66c.22.4.49.69.82.88s.7.28,1.11.28c.26,0,.48-.03.68-.1s.37-.15.51-.26c.14-.11.25-.23.32-.36.08-.13.11-.27.11-.41,0-.21-.05-.39-.14-.54-.09-.15-.22-.28-.38-.4-.16-.12-.36-.23-.59-.33-.23-.1-.49-.21-.77-.34-.29-.13-.58-.26-.87-.39-.29-.13-.55-.29-.79-.47-.23-.18-.42-.41-.57-.67-.15-.26-.22-.59-.22-.98,0-.3.07-.59.2-.86s.33-.51.57-.71c.24-.2.53-.36.87-.48s.7-.18,1.1-.18c.24,0,.49.03.74.08.25.05.5.13.73.25.24.11.46.26.66.44s.38.4.52.66l-.92.62c-.23-.35-.5-.6-.81-.75Z"/>
      <path class="cls-7" d="M140.98,80.58v1.06h-4.21l.14-.14v6.45l-.14-.14h4.33v1.07h-5.37v-8.3h5.25ZM140.28,84.17v1.06h-3.55v-1.06h3.55Z"/>
      <path class="cls-7" d="M151.31,80.77c.53.22.99.52,1.38.9.4.38.7.83.93,1.36.22.52.33,1.09.33,1.7s-.11,1.18-.33,1.7c-.22.53-.53.98-.93,1.36-.4.38-.86.68-1.38.9-.53.22-1.1.33-1.71.33s-1.18-.11-1.71-.33c-.53-.22-1-.52-1.39-.9-.4-.38-.71-.83-.93-1.36-.22-.52-.33-1.09-.33-1.7s.11-1.18.33-1.7c.22-.53.53-.98.93-1.36.4-.38.86-.68,1.39-.9.53-.22,1.1-.33,1.71-.33s1.19.11,1.71.33ZM148.38,81.82c-.38.16-.71.38-1,.66-.29.28-.51.62-.68,1-.16.38-.25.8-.25,1.26s.08.87.25,1.26c.16.38.39.72.68,1,.29.28.62.5,1,.66.38.16.78.24,1.22.24s.84-.08,1.22-.24c.38-.16.71-.38,1-.66.29-.28.51-.62.68-1s.25-.8.25-1.26-.08-.87-.25-1.26-.39-.72-.68-1c-.29-.28-.62-.5-1-.66-.38-.16-.78-.24-1.22-.24s-.84.08-1.22.24Z"/>
      <path class="cls-7" d="M155.92,80.58l1.74,5.87h-.1s2.47-5.97,2.47-5.97h.41l2.47,5.96h-.1s1.74-5.85,1.74-5.85h1.28l-2.65,8.4h-.42l-2.59-6.17h.12l-2.59,6.17h-.42l-2.65-8.4h1.28Z"/>
      <path class="cls-7" d="M167.21,80.48h.36l5.48,5.95-.1.04v-5.88h1.19v8.42h-.36l-5.46-5.94.1-.04v5.85h-1.2v-8.4Z"/>
      <path class="cls-7" d="M181.63,80.58v1.06h-4.21l.14-.14v6.45l-.14-.14h4.33v1.07h-5.37v-8.3h5.25ZM180.94,84.17v1.06h-3.55v-1.06h3.55Z"/>
      <path class="cls-7" d="M183.44,80.58h3.01c.62,0,1.18.11,1.7.32.52.22.96.51,1.33.88s.66.81.87,1.31c.21.5.31,1.04.31,1.62s-.1,1.13-.31,1.64c-.21.51-.5.95-.87,1.32s-.81.67-1.33.88c-.51.21-1.08.32-1.7.32h-3.01v-8.3ZM184.48,87.81h1.86c.43,0,.83-.08,1.21-.23.38-.15.7-.37.98-.64s.49-.6.65-.98c.16-.38.24-.79.24-1.25s-.08-.86-.23-1.23c-.16-.38-.37-.7-.65-.98s-.6-.49-.98-.64c-.38-.15-.78-.23-1.21-.23h-1.87l.14-.14v6.45l-.14-.14Z"/>
      <path class="cls-7" d="M201.57,86.17c-.17.56-.43,1.05-.78,1.48s-.78.76-1.3,1c-.51.25-1.09.37-1.72.37-.39,0-.77-.05-1.13-.16s-.68-.26-.96-.45c-.28-.2-.5-.44-.67-.72-.16-.29-.25-.61-.25-.96,0-.28.06-.54.17-.78.11-.24.27-.46.48-.67s.46-.41.75-.6c.29-.19.62-.39.99-.58l.79.74c-.28.15-.54.29-.77.43-.24.14-.44.28-.62.42-.18.15-.31.3-.41.46-.1.16-.15.34-.15.54,0,.21.05.39.16.55.11.15.25.28.42.38s.37.18.58.23c.22.05.43.08.65.08.47,0,.89-.1,1.26-.3s.67-.46.91-.79c.24-.33.41-.7.52-1.12.11-.42.14-.85.09-1.3h1.15c.06.62.01,1.21-.16,1.77ZM196.26,84c-.14-.17-.25-.33-.35-.49-.1-.16-.17-.33-.22-.5-.05-.17-.08-.36-.08-.55,0-.25.05-.5.16-.74.1-.24.25-.46.45-.65.2-.19.43-.34.71-.45.28-.11.59-.17.93-.17s.65.06.93.17c.28.11.51.26.71.45.2.18.35.39.45.63.1.24.16.48.16.73,0,.23-.04.45-.13.64-.08.19-.21.38-.38.56-.17.18-.39.36-.66.55-.27.18-.59.38-.96.59l-.81-.72c.3-.17.57-.33.8-.46.23-.13.42-.26.57-.39.15-.12.27-.25.34-.37s.11-.25.11-.39c0-.13-.03-.25-.08-.36-.06-.11-.13-.22-.23-.31-.1-.09-.21-.16-.35-.21s-.29-.08-.46-.08-.32.03-.46.08-.26.12-.35.21c-.1.09-.17.19-.23.31-.06.12-.08.24-.08.38,0,.15.02.28.07.41.04.12.11.24.19.35.08.11.18.23.3.35.12.12.25.26.39.41l4.71,4.92h-1.5l-4.17-4.36c-.18-.18-.33-.35-.47-.52Z"/>
      <path class="cls-7" d="M211.89,80.77c.53.22.99.52,1.38.9.4.38.7.83.93,1.36.22.52.33,1.09.33,1.7s-.11,1.18-.33,1.7c-.22.53-.53.98-.93,1.36-.4.38-.86.68-1.38.9-.53.22-1.1.33-1.71.33s-1.18-.11-1.71-.33c-.53-.22-1-.52-1.39-.9-.4-.38-.71-.83-.93-1.36-.22-.52-.33-1.09-.33-1.7s.11-1.18.33-1.7c.22-.53.53-.98.93-1.36.4-.38.86-.68,1.39-.9.53-.22,1.1-.33,1.71-.33s1.19.11,1.71.33ZM208.96,81.82c-.38.16-.71.38-1,.66-.29.28-.51.62-.68,1-.16.38-.25.8-.25,1.26s.08.87.25,1.26c.16.38.39.72.68,1,.29.28.62.5,1,.66.38.16.78.24,1.22.24s.84-.08,1.22-.24c.38-.16.71-.38,1-.66.29-.28.51-.62.68-1s.25-.8.25-1.26-.08-.87-.25-1.26-.39-.72-.68-1c-.29-.28-.62-.5-1-.66-.38-.16-.78-.24-1.22-.24s-.84.08-1.22.24Z"/>
      <path class="cls-7" d="M217.24,84.79h1.77c.25,0,.47-.04.68-.11s.38-.18.53-.32c.15-.14.26-.3.34-.49.08-.19.12-.41.12-.65s-.04-.47-.12-.67c-.08-.2-.19-.36-.34-.49-.14-.13-.32-.24-.52-.31-.2-.07-.43-.11-.68-.11h-1.75l.14-.14v7.38h-1.19v-8.3h2.98c.38,0,.74.06,1.07.18.33.12.61.3.85.52.24.23.43.5.56.82s.2.68.2,1.07-.07.75-.2,1.07c-.14.32-.32.6-.56.83-.24.23-.52.41-.85.54-.33.12-.68.19-1.05.19h-1.99v-1.01Z"/>
      <path class="cls-7" d="M228.65,80.58v1.06h-4.21l.14-.14v6.45l-.14-.14h4.33v1.07h-5.37v-8.3h5.25ZM227.95,84.17v1.06h-3.55v-1.06h3.55Z"/>
      <path class="cls-7" d="M230.46,88.88v-8.3h3.34c.38,0,.74.06,1.07.18.33.12.61.29.86.51.24.22.43.48.57.79.14.31.2.65.2,1.03,0,.3-.04.57-.13.83-.09.25-.21.48-.37.69-.16.2-.35.38-.58.52-.22.15-.47.26-.74.33l1.79,3.42h-1.35l-1.68-3.3h-1.96s0-.96,0-.96h2.12c.25,0,.47-.04.68-.11s.39-.17.53-.3c.15-.13.26-.29.34-.47.08-.18.12-.39.12-.62,0-.24-.04-.46-.12-.64-.08-.18-.19-.34-.34-.46-.15-.12-.32-.22-.53-.28-.2-.06-.43-.09-.68-.09h-2.1l.14-.14v7.38h-1.19Z"/>
      <path class="cls-7" d="M241.12,82.61h.12l-2.72,6.27h-1.28l3.77-8.4h.36l3.77,8.4h-1.29l-2.73-6.27ZM239.08,86.09h4.21v1.05h-4.21v-1.05Z"/>
      <path class="cls-7" d="M244.5,81.64v-1.06h6.27v1.06h-6.27ZM247.04,81.46h1.19v7.42h-1.19v-7.42Z"/>
      <path class="cls-7" d="M257.38,80.58v1.06h-4.21l.14-.14v6.45l-.14-.14h4.33v1.07h-5.37v-8.3h5.25ZM256.69,84.17v1.06h-3.55v-1.06h3.55Z"/>
      <path class="cls-7" d="M259.19,80.58h3.01c.62,0,1.18.11,1.7.32.52.22.96.51,1.33.88s.66.81.87,1.31c.21.5.31,1.04.31,1.62s-.1,1.13-.31,1.64c-.21.51-.5.95-.87,1.32s-.81.67-1.33.88c-.51.21-1.08.32-1.7.32h-3.01v-8.3ZM260.23,87.81h1.86c.43,0,.83-.08,1.21-.23.38-.15.7-.37.98-.64s.49-.6.65-.98c.16-.38.24-.79.24-1.25s-.08-.86-.23-1.23c-.16-.38-.37-.7-.65-.98s-.6-.49-.98-.64c-.38-.15-.78-.23-1.21-.23h-1.87l.14-.14v6.45l-.14-.14Z"/>
    </g>
  </g>
</svg>