<?xml version="1.0" encoding="UTF-8"?>
<svg id="Layer_3" data-name="Layer 3" xmlns="http://www.w3.org/2000/svg" xmlns:xlink="http://www.w3.org/1999/xlink" viewBox="0 0 280 100">
  <defs>
    <style>
      .cls-1 {
        fill: #1e9e49;
      }

      .cls-2 {
        fill: #0d529d;
      }

      .cls-3 {
        fill: #13409b;
      }

      .cls-4 {
        fill: #092783;
      }

      .cls-5 {
        fill: #a5b8f7;
      }

      .cls-6 {
        fill: #6b96da;
      }

      .cls-7 {
        fill: #fff;
      }

      .cls-8 {
        fill: #0a61a0;
      }

      .cls-9 {
        fill: #00a651;
      }

      .cls-10 {
        fill: none;
      }

      .cls-11 {
        fill: #073686;
      }

      .cls-12 {
        clip-path: url(#clippath-1);
      }

      .cls-13 {
        fill: #071e81;
      }

      .cls-14 {
        fill: #011e84;
      }

      .cls-15 {
        fill: #2c70b9;
      }

      .cls-16 {
        fill: #3c55a0;
      }

      .cls-17 {
        clip-path: url(#clippath);
      }

      .cls-18 {
        fill: #85a4eb;
      }

      .cls-19 {
        fill: #4e84cb;
      }
    </style>
    <clipPath id="clippath">
      <rect class="cls-10" x="-40.89" y="-84.86" width="361.77" height="249.7"/>
    </clipPath>
    <clipPath id="clippath-1">
      <rect class="cls-10" x="-40.89" y="-84.86" width="361.77" height="249.7"/>
    </clipPath>
  </defs>
  <g class="cls-17">
    <path class="cls-1" d="M14.71,23.92h4.76c.68,0,1.3-.1,1.85-.31.55-.21,1.03-.51,1.43-.9.4-.39.71-.85.93-1.39.22-.54.33-1.15.33-1.83s-.11-1.3-.33-1.85c-.22-.55-.53-1.01-.92-1.39-.39-.38-.86-.67-1.41-.88-.55-.21-1.17-.31-1.85-.31h-4.69l.44-.44v22.34h-4.54V10.99h9.45c1.22,0,2.36.2,3.41.6,1.05.4,1.95.97,2.71,1.7.76.73,1.36,1.62,1.8,2.66.44,1.04.66,2.19.66,3.46s-.22,2.42-.66,3.46c-.44,1.04-1.04,1.93-1.8,2.67-.76.74-1.66,1.32-2.71,1.72-1.05.4-2.17.6-3.37.6h-5.49v-3.96Z"/>
  </g>
  <g>
    <path d="M11.16,59.1h3.38c.71,0,1.36.12,1.96.37.6.25,1.11.59,1.54,1.02.43.44.77.95,1.02,1.53.25.59.37,1.22.37,1.9s-.12,1.31-.37,1.9c-.25.59-.58,1.11-1.02,1.54s-.95.78-1.54,1.03c-.6.25-1.25.37-1.96.37h-3.38v-9.67ZM12.16,67.69h2.27c.53,0,1.02-.09,1.48-.28s.86-.45,1.2-.79c.34-.34.61-.74.8-1.2.19-.46.29-.96.29-1.51s-.1-1.04-.29-1.5c-.19-.46-.46-.86-.79-1.19-.34-.33-.74-.6-1.2-.79s-.96-.29-1.49-.29h-2.27l.17-.17v7.88l-.17-.17Z"/>
    <path d="M26.2,68.34l-3.09-6.47h.1s-1.25,6.89-1.25,6.89h-1.2l1.78-9.79h.38l3.53,7.52h-.14l3.53-7.52h.36l1.79,9.79h-1.2l-1.27-6.91h.1s-3.09,6.48-3.09,6.48h-.35Z"/>
    <path d="M39.98,59.1v1.04h-5l.17-.17v7.88l-.17-.17h5.16v1.07h-6.17v-9.67h6ZM39.16,63.36v1.06h-4.22v-1.06h4.22Z"/>
    <path d="M51.67,59.1v1.04h-5l.17-.17v7.88l-.17-.17h5.16v1.07h-6.17v-9.67h6ZM50.84,63.36v1.06h-4.22v-1.06h4.22Z"/>
    <path d="M60.22,59.31c.61.25,1.15.6,1.6,1.04.46.44.81.97,1.07,1.59s.39,1.28.39,1.99-.13,1.38-.39,1.98c-.26.61-.62,1.14-1.07,1.58-.45.44-.99.79-1.6,1.05s-1.27.38-1.98.38-1.36-.13-1.98-.38-1.15-.61-1.6-1.05c-.46-.44-.81-.97-1.07-1.58-.26-.61-.39-1.27-.39-1.98s.13-1.38.39-1.99.62-1.14,1.07-1.59c.45-.44.99-.79,1.6-1.04s1.27-.38,1.98-.38,1.36.13,1.98.38ZM56.76,60.36c-.46.2-.87.47-1.22.82-.35.35-.62.76-.82,1.22-.2.47-.3.98-.3,1.54s.1,1.06.3,1.53c.2.47.47.88.82,1.23.35.35.75.62,1.22.81.46.19.96.29,1.49.29s1.03-.1,1.49-.29c.46-.19.87-.46,1.22-.81.35-.35.62-.76.82-1.23.2-.47.3-.98.3-1.53s-.1-1.07-.3-1.54c-.2-.47-.47-.87-.82-1.22-.35-.35-.75-.62-1.22-.82-.46-.2-.96-.3-1.49-.3s-1.03.1-1.49.3ZM58.16,65.35c.19-.14.33-.24.45-.32.12-.09.26-.2.43-.32l3.63,4.57-.88.62-3.63-4.56Z"/>
    <path d="M72.72,65.28c0,.5-.09.98-.28,1.43s-.44.84-.77,1.17c-.33.33-.72.59-1.18.78-.46.19-.96.28-1.51.28s-1.05-.09-1.51-.28c-.46-.19-.86-.45-1.19-.78-.33-.33-.59-.72-.78-1.17s-.28-.92-.28-1.43v-6.18h1.18v6.1c0,.37.06.71.18,1.03.12.32.29.6.52.83s.5.42.81.56.67.21,1.06.21.73-.07,1.04-.21.59-.32.81-.56.4-.51.53-.83c.12-.32.19-.66.19-1.03v-6.1h1.17v6.18Z"/>
    <path d="M75.34,59.1h1.17v9.67h-1.17v-9.67Z"/>
    <path d="M80.18,64.07h2.27c.3,0,.57-.05.81-.14.25-.1.46-.23.64-.4.18-.17.32-.37.42-.61.1-.24.15-.51.15-.81s-.05-.59-.15-.83c-.1-.24-.24-.45-.42-.61-.18-.17-.39-.29-.63-.38-.25-.09-.52-.14-.81-.14h-2.24l.17-.17v8.79h-1.17v-9.67h3.41c.44,0,.84.07,1.21.21s.69.34.97.6.49.58.65.95c.16.37.24.77.24,1.22s-.08.84-.24,1.22c-.16.37-.37.69-.65.95s-.6.47-.97.61c-.37.14-.77.21-1.2.21h-2.46v-1Z"/>
    <path d="M92.2,68.34l-3.09-6.47h.1s-1.25,6.89-1.25,6.89h-1.2l1.78-9.79h.38l3.53,7.52h-.14l3.53-7.52h.36l1.79,9.79h-1.2l-1.27-6.91h.1s-3.09,6.48-3.09,6.48h-.35Z"/>
    <path d="M105.98,59.1v1.04h-5l.17-.17v7.88l-.17-.17h5.16v1.07h-6.17v-9.67h6ZM105.16,63.36v1.06h-4.22v-1.06h4.22Z"/>
    <path d="M108.19,58.98h.36l6.44,7.39-.11.03v-7.29h1.17v9.8h-.36l-6.43-7.37.11-.04v7.28h-1.18v-9.79Z"/>
    <path d="M117.71,60.14v-1.04h7.21v1.04h-7.21ZM120.73,59.94h1.17v8.83h-1.17v-8.83Z"/>
    <path d="M137.18,65.61c-.19.65-.48,1.23-.88,1.72-.4.49-.9.88-1.49,1.17s-1.26.43-2,.43c-.46,0-.89-.06-1.32-.19-.42-.12-.79-.3-1.12-.53-.32-.23-.58-.51-.77-.84-.19-.33-.28-.7-.28-1.1,0-.33.06-.63.19-.9.12-.27.31-.52.55-.76s.53-.47.87-.69c.34-.22.73-.46,1.18-.69l.78.74c-.35.19-.67.37-.96.54-.29.17-.54.34-.74.52-.21.18-.37.36-.48.56s-.17.41-.17.65c0,.26.07.48.2.68s.3.36.52.49.46.24.74.31c.27.07.55.11.84.11.58,0,1.1-.12,1.54-.36.45-.24.81-.56,1.1-.96.29-.4.49-.85.62-1.37s.16-1.04.1-1.59h1.14c.07.72.02,1.41-.17,2.07ZM131.22,63.13c-.19-.21-.35-.41-.48-.62-.13-.21-.24-.42-.31-.63-.07-.22-.11-.44-.11-.68,0-.29.06-.58.19-.85.12-.27.3-.52.52-.73.22-.21.49-.38.81-.5.32-.12.67-.19,1.06-.19s.74.06,1.05.19c.31.12.58.29.81.49.23.21.4.44.52.71.12.27.18.55.18.83s-.05.52-.15.75c-.1.22-.25.44-.46.65-.2.21-.46.42-.78.64-.32.22-.69.45-1.13.69l-.81-.71c.37-.21.7-.4.97-.57.28-.17.51-.33.69-.49.18-.16.32-.31.4-.46.09-.15.13-.31.13-.49,0-.16-.04-.32-.11-.46-.07-.14-.17-.27-.3-.38s-.27-.2-.45-.27c-.17-.06-.36-.1-.58-.1s-.41.03-.59.1c-.18.06-.33.15-.46.26-.12.11-.23.24-.3.38s-.11.31-.11.48c0,.19.03.37.1.53.07.16.16.32.28.47.12.15.26.31.42.47s.34.35.54.55l5.33,5.56h-1.49l-4.77-4.97c-.23-.24-.44-.46-.63-.67Z"/>
    <path d="M149.03,59.1v1.04h-5l.17-.17v7.88l-.17-.17h5.16v1.07h-6.17v-9.67h6ZM148.21,63.36v1.06h-4.22v-1.06h4.22Z"/>
    <path d="M155.95,68.34l-3.09-6.47h.1s-1.25,6.89-1.25,6.89h-1.2l1.78-9.79h.38l3.53,7.52h-.14l3.53-7.52h.36l1.79,9.79h-1.2l-1.27-6.91h.1s-3.09,6.48-3.09,6.48h-.35Z"/>
    <path d="M164.69,64.07h2.27c.3,0,.57-.05.81-.14.25-.1.46-.23.64-.4.18-.17.32-.37.42-.61.1-.24.15-.51.15-.81s-.05-.59-.15-.83c-.1-.24-.24-.45-.42-.61-.18-.17-.39-.29-.63-.38-.25-.09-.52-.14-.81-.14h-2.24l.17-.17v8.79h-1.17v-9.67h3.41c.44,0,.84.07,1.21.21s.69.34.97.6.49.58.65.95c.16.37.24.77.24,1.22s-.08.84-.24,1.22c-.16.37-.37.69-.65.95s-.6.47-.97.61c-.37.14-.77.21-1.2.21h-2.46v-1Z"/>
    <path d="M172.01,59.1h1.17v8.77l-.17-.17h4.58v1.06h-5.58v-9.67Z"/>
    <path d="M185.59,59.31c.61.25,1.15.6,1.6,1.04.46.44.81.97,1.07,1.59s.39,1.28.39,1.99-.13,1.38-.39,1.98c-.26.61-.62,1.14-1.07,1.58-.45.44-.99.79-1.6,1.05s-1.27.38-1.98.38-1.36-.13-1.98-.38-1.15-.61-1.6-1.05c-.46-.44-.81-.97-1.07-1.58-.26-.61-.39-1.27-.39-1.98s.13-1.38.39-1.99.62-1.14,1.07-1.59c.45-.44.99-.79,1.6-1.04s1.27-.38,1.98-.38,1.36.13,1.98.38ZM182.13,60.36c-.46.2-.87.47-1.22.82-.35.35-.62.76-.82,1.22-.2.47-.3.98-.3,1.54s.1,1.06.3,1.53c.2.47.47.88.82,1.23.35.35.75.62,1.22.81.46.19.96.29,1.49.29s1.03-.1,1.49-.29c.46-.19.87-.46,1.22-.81.35-.35.62-.76.82-1.23.2-.47.3-.98.3-1.53s-.1-1.07-.3-1.54c-.2-.47-.47-.87-.82-1.22-.35-.35-.75-.62-1.22-.82-.46-.2-.96-.3-1.49-.3s-1.03.1-1.49.3Z"/>
    <path d="M189.54,59.1h1.38l2.7,4.15,2.73-4.15h1.36l-4.08,6.11-4.09-6.11ZM193.05,64.11h1.17v4.66h-1.17v-4.66Z"/>
    <path d="M205.28,59.1v1.04h-5l.17-.17v7.88l-.17-.17h5.16v1.07h-6.17v-9.67h6ZM204.46,63.36v1.06h-4.22v-1.06h4.22Z"/>
    <path d="M213.49,59.1v1.04h-5l.17-.17v7.88l-.17-.17h5.16v1.07h-6.17v-9.67h6ZM212.67,63.36v1.06h-4.22v-1.06h4.22Z"/>
    <path d="M220.14,64.07h2.27c.3,0,.57-.05.81-.14.25-.1.46-.23.64-.4.18-.17.32-.37.42-.61.1-.24.15-.51.15-.81s-.05-.59-.15-.83c-.1-.24-.24-.45-.42-.61-.18-.17-.39-.29-.63-.38-.25-.09-.52-.14-.81-.14h-2.24l.17-.17v8.79h-1.17v-9.67h3.41c.44,0,.84.07,1.21.21s.69.34.97.6.49.58.65.95c.16.37.24.77.24,1.22s-.08.84-.24,1.22c-.16.37-.37.69-.65.95s-.6.47-.97.61c-.37.14-.77.21-1.2.21h-2.46v-1Z"/>
    <path d="M233.81,59.31c.61.25,1.15.6,1.6,1.04.46.44.81.97,1.07,1.59s.39,1.28.39,1.99-.13,1.38-.39,1.98c-.26.61-.62,1.14-1.07,1.58-.45.44-.99.79-1.6,1.05s-1.27.38-1.98.38-1.36-.13-1.98-.38-1.15-.61-1.6-1.05c-.46-.44-.81-.97-1.07-1.58-.26-.61-.39-1.27-.39-1.98s.13-1.38.39-1.99.62-1.14,1.07-1.59c.45-.44.99-.79,1.6-1.04s1.27-.38,1.98-.38,1.36.13,1.98.38ZM230.34,60.36c-.46.2-.87.47-1.22.82-.35.35-.62.76-.82,1.22-.2.47-.3.98-.3,1.54s.1,1.06.3,1.53c.2.47.47.88.82,1.23.35.35.75.62,1.22.81.46.19.96.29,1.49.29s1.03-.1,1.49-.29c.46-.19.87-.46,1.22-.81.35-.35.62-.76.82-1.23.2-.47.3-.98.3-1.53s-.1-1.07-.3-1.54c-.2-.47-.47-.87-.82-1.22-.35-.35-.75-.62-1.22-.82-.46-.2-.96-.3-1.49-.3s-1.03.1-1.49.3Z"/>
    <path d="M238.93,68.77v-9.67h3.8c.43,0,.83.07,1.2.2s.7.33.97.58.5.56.65.91c.16.36.24.75.24,1.18,0,.35-.05.67-.16.97-.11.3-.26.56-.45.8-.19.23-.42.43-.67.6-.26.17-.55.29-.86.38l2.1,4.05h-1.34l-1.99-3.94h-2.53s0-.96,0-.96h2.64c.29,0,.56-.04.81-.13.25-.09.47-.21.65-.38.18-.17.32-.36.42-.59.1-.23.15-.48.15-.77s-.05-.55-.15-.78c-.1-.23-.24-.42-.42-.58-.18-.16-.39-.28-.64-.36-.25-.08-.52-.12-.81-.12h-2.6l.17-.17v8.79h-1.17Z"/>
    <path d="M246.85,60.14v-1.04h7.21v1.04h-7.21ZM249.87,59.94h1.17v8.83h-1.17v-8.83Z"/>
    <path d="M258.9,61.09h.14l-3.3,7.68h-1.27l4.33-9.79h.36l4.33,9.79h-1.28l-3.31-7.68ZM256.48,65.53h5.01v1.04h-5.01v-1.04Z"/>
    <path d="M264.98,59.1h1.17v8.77l-.17-.17h4.58v1.06h-5.58v-9.67Z"/>
  </g>
  <g>
    <path class="cls-16" d="M10.72,43.19h1.09v7.77h-1.09v-7.77ZM11.64,46.6h4.44v.95h-4.44v-.95ZM15.92,43.19h1.09v7.77h-1.09v-7.77Z"/>
    <path class="cls-16" d="M26.28,43.19v.99h-3.86l.13-.13v6.04l-.13-.13h3.97v1h-4.93v-7.77h4.82ZM25.64,46.54v.99h-3.26v-.99h3.26Z"/>
    <path class="cls-16" d="M32.95,45.09h.11l-2.5,5.86h-1.18l3.46-7.87h.33l3.46,7.87h-1.19l-2.51-5.86ZM31.08,48.35h3.86v.98h-3.86v-.98Z"/>
    <path class="cls-16" d="M40.17,43.19h1.09v6.91l-.13-.13h3.55v.99h-4.51v-7.77Z"/>
    <path class="cls-16" d="M46.35,44.18v-.99h5.75v.99h-5.75ZM48.68,44.01h1.09v6.94h-1.09v-6.94Z"/>
    <path class="cls-16" d="M55.73,43.19h1.09v7.77h-1.09v-7.77ZM56.65,46.6h4.44v.95h-4.44v-.95ZM60.93,43.19h1.09v7.77h-1.09v-7.77Z"/>
    <path class="cls-16" d="M72.13,50.45c-.23.19-.55.34-.94.46s-.8.18-1.24.18c-.56,0-1.08-.1-1.56-.31-.48-.21-.91-.49-1.27-.84s-.64-.78-.85-1.27c-.21-.49-.31-1.02-.31-1.59s.1-1.12.31-1.61c.21-.49.48-.91.84-1.27.35-.36.76-.64,1.24-.84.47-.2.98-.3,1.51-.3.4,0,.77.04,1.12.13.35.09.69.22,1,.4v1.16c-.32-.2-.64-.35-.98-.46-.34-.11-.68-.16-1.03-.16-.41,0-.79.08-1.14.23-.35.15-.66.36-.91.62-.26.26-.46.58-.6.94-.15.36-.22.75-.22,1.17,0,.47.08.89.25,1.25.17.37.38.67.66.92.27.25.59.44.95.57s.74.2,1.13.2c.35,0,.7-.06,1.06-.19.35-.12.68-.3.99-.54v1.16Z"/>
    <path class="cls-16" d="M78.62,45.09h.11l-2.5,5.86h-1.18l3.46-7.87h.33l3.46,7.87h-1.19l-2.51-5.86ZM76.75,48.35h3.86v.98h-3.86v-.98Z"/>
    <path class="cls-16" d="M85.84,50.95v-7.77h3.07c.35,0,.68.05.98.17.3.11.56.27.79.47.22.21.4.45.52.74.12.29.19.61.19.96,0,.28-.04.54-.12.78s-.19.45-.34.64-.32.35-.53.49c-.21.14-.43.24-.68.31l1.64,3.2h-1.24l-1.54-3.09h-1.8s0-.9,0-.9h1.95c.23,0,.44-.03.63-.1.19-.07.35-.16.49-.28.14-.12.24-.27.31-.44.07-.17.11-.36.11-.58,0-.23-.04-.43-.11-.6-.07-.17-.18-.32-.31-.43s-.3-.21-.48-.26c-.19-.06-.39-.09-.62-.09h-1.92l.13-.13v6.91h-1.09Z"/>
    <path class="cls-16" d="M100.19,43.19v.99h-3.86l.13-.13v6.04l-.13-.13h3.97v1h-4.93v-7.77h4.82ZM99.55,46.54v.99h-3.26v-.99h3.26Z"/>
    <path class="cls-16" d="M111.61,45.09h.11l-2.5,5.86h-1.18l3.46-7.87h.33l3.46,7.87h-1.19l-2.51-5.86ZM109.74,48.35h3.86v.98h-3.86v-.98Z"/>
    <path class="cls-16" d="M118.83,43.19h1.09v7.77h-1.09v-7.77Z"/>
    <path class="cls-16" d="M129.5,43.19h1.09v6.91l-.13-.13h3.55v.99h-4.51v-7.77Z"/>
    <path class="cls-16" d="M142.28,43.36c.48.21.91.49,1.27.84.36.36.65.78.85,1.27.21.49.31,1.02.31,1.59s-.1,1.1-.31,1.59c-.21.49-.49.92-.85,1.27s-.79.64-1.27.84c-.48.21-1.01.31-1.57.31s-1.08-.1-1.57-.31-.91-.49-1.28-.84c-.36-.36-.65-.78-.85-1.27-.21-.49-.31-1.02-.31-1.59s.1-1.1.31-1.59c.21-.49.49-.92.85-1.27.36-.36.79-.64,1.28-.84s1.01-.31,1.57-.31,1.09.1,1.57.31ZM139.59,44.34c-.35.15-.65.35-.92.62-.26.26-.47.58-.62.94s-.23.75-.23,1.18.08.82.23,1.18.36.67.62.93c.26.26.57.47.92.62.35.15.72.22,1.12.22s.77-.07,1.12-.22c.35-.15.65-.35.92-.62.26-.26.47-.58.62-.93s.23-.75.23-1.18-.08-.82-.23-1.18-.36-.67-.62-.94-.57-.47-.92-.62c-.35-.15-.72-.22-1.12-.22s-.77.07-1.12.22Z"/>
    <path class="cls-16" d="M151.04,44.34c-.35.15-.65.35-.92.62s-.47.58-.62.94c-.15.36-.23.75-.23,1.18s.08.82.23,1.18c.15.36.36.67.62.93.26.26.57.47.92.62.35.15.72.22,1.12.22.35,0,.69-.05,1.02-.15s.62-.25.88-.46c.25-.2.45-.46.6-.77.15-.31.21-.68.2-1.09l.13.15h-2.74v-.96h3.65c.02.12.04.25.05.36s.02.24.02.36c0,.52-.1,1-.29,1.44-.19.44-.46.82-.8,1.14-.34.32-.74.58-1.21.76-.47.18-.97.27-1.5.27s-1.08-.1-1.57-.31c-.49-.21-.91-.49-1.28-.84s-.65-.78-.85-1.27-.31-1.02-.31-1.59.1-1.1.31-1.59.49-.92.85-1.27c.36-.36.79-.64,1.28-.84.49-.21,1.01-.31,1.57-.31.72,0,1.35.14,1.89.41.54.27,1,.65,1.36,1.14l-.84.7c-.26-.37-.58-.67-.96-.88s-.86-.31-1.46-.31c-.4,0-.77.07-1.12.22Z"/>
    <path class="cls-16" d="M159.82,43.19h1.09v7.77h-1.09v-7.77Z"/>
    <path class="cls-16" d="M171.02,50.45c-.24.19-.55.34-.94.46-.39.12-.8.18-1.24.18-.56,0-1.08-.1-1.56-.31-.48-.21-.91-.49-1.27-.84s-.64-.78-.85-1.27-.31-1.02-.31-1.59.1-1.12.31-1.61c.21-.49.48-.91.84-1.27.35-.36.76-.64,1.24-.84.47-.2.98-.3,1.51-.3.4,0,.77.04,1.12.13.35.09.69.22,1,.4v1.16c-.32-.2-.64-.35-.98-.46-.34-.11-.68-.16-1.03-.16-.41,0-.79.08-1.14.23-.35.15-.66.36-.91.62-.26.26-.46.58-.6.94s-.22.75-.22,1.17c0,.47.08.89.25,1.25.17.37.38.67.66.92.27.25.59.44.95.57s.74.2,1.13.2c.35,0,.7-.06,1.06-.19.35-.12.68-.3.99-.54v1.16Z"/>
    <path class="cls-16" d="M185.09,43.36c.48.21.91.49,1.27.84.36.36.65.78.85,1.27.21.49.31,1.02.31,1.59s-.1,1.1-.31,1.59c-.21.49-.49.92-.85,1.27-.36.36-.79.64-1.27.84-.48.21-1.01.31-1.57.31s-1.08-.1-1.57-.31c-.49-.21-.91-.49-1.28-.84s-.65-.78-.85-1.27-.31-1.02-.31-1.59.1-1.1.31-1.59.49-.92.85-1.27c.36-.36.79-.64,1.28-.84.49-.21,1.01-.31,1.57-.31s1.09.1,1.57.31ZM182.4,44.34c-.35.15-.65.35-.92.62s-.47.58-.62.94c-.15.36-.23.75-.23,1.18s.08.82.23,1.18c.15.36.36.67.62.93.26.26.57.47.92.62.35.15.72.22,1.12.22s.77-.07,1.12-.22c.35-.15.65-.35.92-.62s.47-.58.62-.93.23-.75.23-1.18-.08-.82-.23-1.18-.36-.67-.62-.94c-.26-.26-.57-.47-.92-.62-.35-.15-.72-.22-1.12-.22s-.77.07-1.12.22Z"/>
    <path class="cls-16" d="M192.39,47.13h1.63c.23,0,.43-.03.62-.1.19-.07.35-.17.48-.3s.24-.28.31-.46.11-.38.11-.61-.04-.44-.11-.63c-.07-.18-.18-.34-.31-.46-.13-.12-.29-.22-.48-.29-.19-.07-.39-.1-.62-.1h-1.61l.13-.13v6.91h-1.09v-7.77h2.74c.35,0,.68.06.98.17.3.11.56.28.78.49.22.21.39.47.52.77s.19.63.19,1-.06.7-.19,1-.3.56-.52.78c-.22.22-.48.38-.78.5s-.62.18-.97.18h-1.83v-.95Z"/>
    <path class="cls-16" d="M205.25,43.19v.99h-3.86l.13-.13v6.04l-.13-.13h3.97v1h-4.93v-7.77h4.82ZM204.61,46.54v.99h-3.26v-.99h3.26Z"/>
    <path class="cls-16" d="M209.29,50.95v-7.77h3.07c.35,0,.68.05.98.17.3.11.56.27.79.47s.4.45.52.74c.12.29.19.61.19.96,0,.28-.04.54-.12.78s-.19.45-.34.64c-.15.19-.32.35-.53.49s-.43.24-.68.31l1.64,3.2h-1.24l-1.54-3.09h-1.8s0-.9,0-.9h1.95c.23,0,.44-.03.63-.1.19-.07.35-.16.49-.28.14-.12.24-.27.31-.44.07-.17.11-.36.11-.58,0-.23-.04-.43-.11-.6-.07-.17-.18-.32-.31-.43s-.3-.21-.48-.26c-.19-.06-.39-.09-.62-.09h-1.92l.13-.13v6.91h-1.09Z"/>
    <path class="cls-16" d="M221.46,45.09h.11l-2.5,5.86h-1.18l3.47-7.87h.33l3.47,7.87h-1.19l-2.51-5.86ZM219.59,48.35h3.86v.98h-3.86v-.98Z"/>
    <path class="cls-16" d="M226.94,44.18v-.99h5.75v.99h-5.75ZM229.27,44.01h1.09v6.94h-1.09v-6.94Z"/>
    <path class="cls-16" d="M236.33,43.19h1.09v7.77h-1.09v-7.77Z"/>
    <path class="cls-16" d="M246.94,43.36c.48.21.91.49,1.27.84.36.36.65.78.85,1.27.21.49.31,1.02.31,1.59s-.1,1.1-.31,1.59c-.21.49-.49.92-.85,1.27-.36.36-.79.64-1.27.84-.48.21-1.01.31-1.57.31s-1.08-.1-1.57-.31c-.49-.21-.91-.49-1.28-.84s-.65-.78-.85-1.27-.31-1.02-.31-1.59.1-1.1.31-1.59.49-.92.85-1.27c.36-.36.79-.64,1.28-.84.49-.21,1.01-.31,1.57-.31s1.09.1,1.57.31ZM244.25,44.34c-.35.15-.65.35-.92.62s-.47.58-.62.94c-.15.36-.23.75-.23,1.18s.08.82.23,1.18c.15.36.36.67.62.93.26.26.57.47.92.62.35.15.72.22,1.12.22s.77-.07,1.12-.22c.35-.15.65-.35.92-.62s.47-.58.62-.93.23-.75.23-1.18-.08-.82-.23-1.18-.36-.67-.62-.94c-.26-.26-.57-.47-.92-.62-.35-.15-.72-.22-1.12-.22s-.77.07-1.12.22Z"/>
    <path class="cls-16" d="M253.32,43.09h.33l5.03,5.57-.09.03v-5.5h1.09v7.88h-.33l-5.02-5.56.09-.03v5.48h-1.1v-7.87Z"/>
    <path class="cls-16" d="M267.13,44.27c-.28-.14-.57-.2-.86-.2-.21,0-.41.03-.58.08-.17.05-.32.12-.44.21s-.21.2-.28.33c-.07.12-.1.26-.1.42,0,.2.04.36.14.5s.22.26.37.37c.16.11.35.21.57.31.22.1.46.21.72.33.31.14.6.28.87.42.26.14.49.29.69.47.19.17.35.37.46.61.11.23.17.52.17.85,0,.28-.06.55-.17.8-.11.26-.28.48-.5.68-.22.19-.49.35-.82.47-.33.12-.71.18-1.14.18-.28,0-.55-.03-.81-.09-.26-.06-.51-.16-.74-.29-.23-.13-.43-.29-.62-.47-.19-.19-.35-.4-.48-.64l.91-.62c.2.37.45.65.75.83.3.18.64.26,1.02.26.23,0,.44-.03.63-.09.18-.06.34-.14.47-.24.13-.1.23-.21.3-.34.07-.12.1-.25.1-.38,0-.2-.04-.37-.13-.51-.08-.14-.2-.26-.35-.37s-.33-.21-.54-.31c-.21-.09-.45-.2-.7-.32-.26-.12-.53-.25-.8-.37-.27-.12-.51-.27-.72-.44-.21-.17-.39-.38-.52-.63s-.2-.55-.2-.92c0-.29.06-.55.19-.81.12-.25.3-.47.52-.66.22-.19.49-.34.8-.45.31-.11.65-.17,1.01-.17.22,0,.45.02.68.07.23.05.46.12.67.23.22.11.42.24.61.41.19.17.35.37.48.62l-.85.58c-.21-.33-.46-.56-.74-.7Z"/>
  </g>
  <g class="cls-12">
    <path class="cls-1" d="M40.02,18.5h.37l-7.8,18.46h-4.83l11.76-26.34h1.43l11.76,26.34h-4.87l-7.8-18.46ZM34.2,28.14h12.05v3.85h-12.05v-3.85Z"/>
    <path class="cls-1" d="M56.17,36.96V10.99h10.59c1.22,0,2.35.19,3.41.57,1.05.38,1.95.92,2.71,1.63.76.71,1.35,1.56,1.78,2.56.43,1,.64,2.11.64,3.33,0,.88-.12,1.7-.37,2.47s-.6,1.46-1.06,2.09c-.46.62-1.01,1.17-1.65,1.65-.64.48-1.34.85-2.12,1.12l5.24,10.55h-5.09l-4.72-9.89-5.31.04v-3.81h5.79c.68,0,1.31-.1,1.87-.29.56-.2,1.04-.47,1.45-.82s.72-.79.93-1.3c.22-.51.33-1.09.33-1.72,0-.68-.11-1.28-.33-1.79-.22-.51-.53-.95-.93-1.3s-.88-.62-1.43-.79c-.55-.17-1.17-.26-1.85-.26h-5.71l.44-.44v22.38h-4.58Z"/>
    <path class="cls-1" d="M80.39,36.96V10.99h10.59c1.22,0,2.35.19,3.41.57,1.05.38,1.95.92,2.71,1.63.76.71,1.35,1.56,1.78,2.56.43,1,.64,2.11.64,3.33,0,.88-.12,1.7-.37,2.47s-.6,1.46-1.06,2.09c-.46.62-1.01,1.17-1.65,1.65-.64.48-1.34.85-2.12,1.12l5.24,10.55h-5.09l-4.72-9.89-5.31.04v-3.81h5.79c.68,0,1.31-.1,1.87-.29.56-.2,1.04-.47,1.45-.82s.71-.79.93-1.3c.22-.51.33-1.09.33-1.72,0-.68-.11-1.28-.33-1.79-.22-.51-.53-.95-.93-1.3s-.88-.62-1.43-.79c-.55-.17-1.17-.26-1.85-.26h-5.71l.44-.44v22.38h-4.58Z"/>
    <rect class="cls-1" x="104.6" y="10.99" width="4.58" height="25.97"/>
    <path class="cls-1" d="M125.79,15.41c-.87-.45-1.78-.68-2.73-.68-.59,0-1.12.07-1.61.22-.49.15-.91.35-1.26.6-.36.26-.63.57-.82.93-.2.37-.29.77-.29,1.21,0,.56.14,1.04.42,1.43.28.39.67.75,1.15,1.08.49.33,1.07.65,1.74.95.67.31,1.4.63,2.18.97,1.05.46,2.03.93,2.93,1.39.9.46,1.68.98,2.35,1.56.66.57,1.18,1.26,1.56,2.05.38.79.57,1.76.57,2.91,0,.98-.2,1.91-.61,2.8-.4.89-.99,1.67-1.76,2.35-.77.67-1.71,1.2-2.82,1.59-1.11.39-2.39.59-3.83.59-.98,0-1.92-.11-2.84-.33-.92-.22-1.77-.55-2.56-.99-.79-.44-1.51-.98-2.16-1.61-.65-.64-1.19-1.36-1.63-2.16l3.48-2.6c.68,1.2,1.53,2.08,2.53,2.65,1,.57,2.09.86,3.26.86.68,0,1.29-.09,1.81-.28.52-.18.98-.41,1.35-.68.38-.27.66-.58.86-.93.2-.35.29-.73.29-1.12,0-.59-.13-1.08-.4-1.48-.27-.4-.65-.77-1.14-1.1-.49-.33-1.09-.65-1.79-.95-.71-.31-1.49-.65-2.35-1.04-.95-.42-1.86-.84-2.73-1.28-.87-.44-1.63-.95-2.29-1.54-.66-.59-1.19-1.28-1.59-2.07-.4-.79-.6-1.75-.6-2.88,0-1.02.21-1.98.64-2.88.43-.89,1.03-1.66,1.8-2.31.77-.65,1.69-1.16,2.76-1.54,1.07-.38,2.24-.57,3.48-.57.81,0,1.61.09,2.42.26.8.17,1.57.45,2.31.82.73.38,1.41.86,2.03,1.43.62.57,1.15,1.26,1.59,2.07l-3.41,2.49c-.66-1.03-1.42-1.76-2.29-2.22"/>
    <path class="cls-1" d="M136.76,10.99h4.58v25.97h-4.58V10.99ZM140.79,21.87h13.37v4.03h-13.37v-4.03ZM153.61,10.99h4.58v25.97h-4.58V10.99Z"/>
    <path class="cls-16" d="M174.12,11.18h3.08v25.79h-3.08V11.18ZM176.65,22.72h15.49v2.67h-15.49v-2.67ZM191.59,11.18h3.08v25.79h-3.08V11.18Z"/>
    <path class="cls-16" d="M210.24,16.49h.37l-8.68,20.48h-3.33l11.39-26.12h.95l11.39,26.12h-3.37l-8.72-20.48ZM203.87,28.32h13.19v2.78h-13.19v-2.78Z"/>
    <polygon class="cls-16" points="226.25 11.18 229.32 11.18 229.32 34.58 228.88 34.14 240.93 34.14 240.93 36.96 226.25 36.96 226.25 11.18"/>
    <path class="cls-13" d="M252.49,9.35c.12-.02.53.52.89,1.2l1.29,2.43c.36.68.96.68,1.32,0l1.29-2.43c.36-.68.76-1.22.89-1.2.12.02.29.71.09,1.45l-.82,3.06c-.2.75-.88,1.28-1.51,1.19h-1.2c-.63.09-1.32-.44-1.52-1.19l-.82-3.06c-.2-.75-.03-1.43.09-1.45"/>
    <path class="cls-13" d="M254.65,10.39c-.36-.68-.26-1.27.23-1.3h.9c.49.03.6.62.23,1.3l-.02.05c-.36.68-.96.68-1.32,0l-.02-.05Z"/>
    <path class="cls-14" d="M260.23,9.9c.12.04.2.71.17,1.48l-.1,2.75c-.03.77.49,1.07,1.15.66l2.33-1.46c.66-.41,1.27-.68,1.37-.6.1.08-.1.76-.65,1.3l-2.24,2.24c-.55.55-1.4.67-1.91.27l-.52-.3-.52-.3c-.6-.24-.92-1.04-.72-1.79l.82-3.06c.2-.75.68-1.26.81-1.21"/>
    <path class="cls-14" d="M261.58,11.88c.03-.77.41-1.23.85-1.01l.39.23.39.23c.41.27.21.83-.45,1.24l-.04.03c-.66.41-1.17.11-1.15-.66v-.05Z"/>
    <path class="cls-4" d="M266.65,14.25c.08.1-.18.71-.59,1.37l-1.46,2.33c-.41.66-.11,1.17.66,1.15l2.75-.1c.77-.03,1.44.05,1.48.17.04.12-.47.6-1.21.81l-3.06.82c-.75.2-1.55-.12-1.79-.72l-.3-.52-.3-.52c-.4-.5-.28-1.36.27-1.91l2.24-2.24c.55-.55,1.22-.75,1.3-.65"/>
    <path class="cls-4" d="M266.84,16.64c.41-.66.97-.86,1.24-.45l.23.39.23.39c.22.44-.24.83-1.01.85h-.05c-.77.03-1.07-.49-.66-1.14l.03-.04Z"/>
    <path class="cls-11" d="M270.05,21.23c.02.12-.52.53-1.2.89l-2.43,1.29c-.68.36-.68.96,0,1.32l2.43,1.29c.68.36,1.22.76,1.2.89-.02.12-.71.29-1.45.09l-3.06-.82c-.75-.2-1.28-.88-1.19-1.51v-1.2c-.09-.63.44-1.32,1.19-1.51l3.06-.82c.75-.2,1.43-.04,1.45.09"/>
    <path class="cls-11" d="M269.01,23.38c.68-.36,1.27-.26,1.3.23v.9c-.03.49-.62.6-1.3.23l-.05-.02c-.68-.36-.68-.96,0-1.32l.05-.02Z"/>
    <path class="cls-3" d="M269.5,28.97c-.04.12-.71.2-1.48.17l-2.75-.1c-.77-.03-1.07.49-.66,1.14l1.46,2.34c.41.66.68,1.27.6,1.37-.08.1-.76-.1-1.3-.65l-2.24-2.24c-.55-.55-.67-1.4-.27-1.91l.3-.52.3-.52c.24-.6,1.04-.92,1.79-.72l3.06.82c.75.2,1.26.68,1.21.8"/>
    <path class="cls-3" d="M267.52,30.32c.77.03,1.23.41,1.01.85l-.23.39-.23.39c-.27.41-.83.21-1.24-.45l-.03-.04c-.41-.66-.11-1.17.66-1.15h.05Z"/>
    <path class="cls-2" d="M265.15,35.39c-.1.08-.71-.18-1.37-.59l-2.33-1.46c-.66-.41-1.17-.11-1.15.66l.1,2.75c.03.77-.05,1.44-.17,1.48-.12.04-.6-.47-.8-1.21l-.82-3.06c-.2-.75.12-1.55.72-1.79l.52-.3.52-.3c.5-.4,1.36-.28,1.91.27l2.24,2.24c.55.55.75,1.22.65,1.3"/>
    <path class="cls-2" d="M262.77,35.58c.66.41.86.97.45,1.24l-.39.23-.39.23c-.44.22-.83-.24-.85-1.01v-.05c-.03-.77.49-1.07,1.14-.66l.04.03Z"/>
    <path class="cls-8" d="M258.17,38.79c-.12.02-.53-.52-.89-1.2l-1.29-2.43c-.36-.68-.96-.68-1.32,0l-1.29,2.43c-.36.68-.76,1.22-.89,1.2-.12-.02-.29-.71-.09-1.45l.82-3.06c.2-.75.88-1.28,1.51-1.19h1.2c.63-.09,1.32.44,1.52,1.19l.82,3.06c.2.75.04,1.43-.09,1.45"/>
    <path class="cls-8" d="M256.02,37.75c.36.68.26,1.27-.23,1.3h-.9c-.49-.03-.6-.62-.23-1.3l.02-.05c.36-.68.96-.68,1.32,0l.02.05Z"/>
    <path class="cls-15" d="M250.44,38.24c-.12-.04-.2-.71-.17-1.48l.1-2.75c.03-.77-.49-1.07-1.14-.66l-2.34,1.46c-.66.41-1.27.68-1.37.6-.1-.08.1-.76.65-1.3l2.24-2.24c.55-.55,1.41-.67,1.91-.27l.52.3.52.3c.6.24.92,1.04.72,1.79l-.82,3.06c-.2.75-.68,1.26-.8,1.21"/>
    <path class="cls-15" d="M249.08,36.26c-.03.77-.41,1.23-.85,1.01l-.39-.23-.39-.23c-.41-.27-.21-.83.45-1.24l.04-.03c.66-.41,1.17-.11,1.15.66v.05Z"/>
    <path class="cls-19" d="M244.01,33.89c-.08-.1.18-.71.59-1.37l1.46-2.33c.41-.66.11-1.17-.66-1.15l-2.75.1c-.77.03-1.44-.05-1.48-.17-.04-.12.47-.6,1.21-.81l3.06-.82c.75-.2,1.55.12,1.79.72l.3.52.3.52c.4.5.27,1.36-.27,1.91l-2.24,2.24c-.55.55-1.22.75-1.3.65"/>
    <path class="cls-19" d="M243.82,31.51c-.41.66-.97.86-1.25.45l-.23-.39-.23-.39c-.22-.44.24-.83,1.01-.85h.05c.77-.03,1.07.49.66,1.14l-.03.04Z"/>
    <path class="cls-6" d="M240.61,26.91c-.02-.12.52-.53,1.2-.89l2.43-1.29c.68-.36.68-.96,0-1.32l-2.43-1.29c-.68-.36-1.22-.76-1.2-.89.02-.12.71-.29,1.45-.09l3.06.82c.75.2,1.28.88,1.19,1.51v1.2c.09.63-.44,1.32-1.19,1.51l-3.06.82c-.75.2-1.43.03-1.45-.09"/>
    <path class="cls-6" d="M241.65,24.76c-.68.36-1.27.26-1.3-.23v-.9c.03-.49.62-.6,1.3-.23l.05.02c.68.36.68.96,0,1.32l-.05.02Z"/>
    <path class="cls-18" d="M241.16,19.17c.04-.12.71-.2,1.48-.17l2.75.1c.77.03,1.07-.49.66-1.14l-1.46-2.34c-.41-.66-.68-1.27-.6-1.37.08-.1.76.1,1.3.65l2.24,2.24c.55.55.67,1.4.27,1.91l-.3.52-.3.52c-.24.6-1.04.92-1.79.72l-3.06-.82c-.75-.2-1.26-.68-1.21-.81"/>
    <path class="cls-18" d="M243.14,17.82c-.77-.03-1.23-.41-1.01-.85l.23-.39.23-.39c.27-.41.83-.21,1.24.45l.03.04c.41.66.11,1.17-.66,1.15h-.05Z"/>
    <path class="cls-5" d="M245.51,12.75c.1-.08.71.18,1.37.59l2.33,1.46c.66.41,1.17.11,1.14-.66l-.1-2.75c-.03-.77.05-1.44.17-1.48.12-.04.6.47.8,1.21l.82,3.06c.2.75-.12,1.55-.72,1.79l-.52.3-.52.3c-.5.4-1.36.28-1.91-.27l-2.24-2.24c-.55-.55-.75-1.22-.65-1.3"/>
    <path class="cls-5" d="M247.9,12.56c-.66-.41-.86-.97-.45-1.24l.39-.23.39-.23c.44-.22.83.24.85,1.01v.05c.03.77-.49,1.07-1.14.66l-.04-.03Z"/>
  </g>
  <g>
    <path class="cls-9" d="M270.37,92.41H101.96c-1.2,0-2.31-.62-2.94-1.64l-5.72-9.27c-1.52-2.46.25-5.64,3.15-5.64h173.92c.12,0,.23.1.23.23v16.1c0,.12-.1.23-.23.23Z"/>
    <g>
      <path class="cls-7" d="M100.73,80.04h.36l5.48,5.95-.1.04v-5.88h1.19v8.42h-.36l-5.46-5.94.1-.04v5.85h-1.2v-8.4Z"/>
      <path class="cls-7" d="M116.36,85.45c0,.43-.08.84-.25,1.22-.16.38-.39.72-.68,1-.29.28-.64.5-1.04.67-.4.16-.83.25-1.31.25s-.91-.08-1.31-.25c-.4-.17-.74-.39-1.04-.67-.29-.28-.52-.62-.68-1-.16-.38-.25-.79-.25-1.22v-5.3h1.19v5.23c0,.28.05.55.15.81s.24.48.43.66.4.34.66.45c.25.11.54.17.85.17s.58-.06.84-.17c.25-.11.47-.26.66-.45s.33-.41.43-.66.16-.52.16-.81v-5.23h1.19v5.3Z"/>
      <path class="cls-7" d="M118.52,88.45v-8.3h3.34c.38,0,.74.06,1.07.18.33.12.61.29.86.51.24.22.43.48.57.79.14.31.2.65.2,1.03,0,.3-.04.57-.13.83-.09.25-.21.48-.37.69-.16.2-.35.38-.58.52-.22.15-.47.26-.74.33l1.79,3.42h-1.35l-1.68-3.3h-1.96s0-.96,0-.96h2.12c.25,0,.47-.04.68-.11s.39-.17.53-.3c.15-.13.26-.29.34-.47.08-.18.12-.39.12-.62,0-.24-.04-.46-.12-.64-.08-.18-.19-.34-.34-.46-.15-.12-.32-.22-.53-.28-.2-.06-.43-.09-.68-.09h-2.1l.14-.14v7.38h-1.19Z"/>
      <path class="cls-7" d="M129.58,81.31c-.31-.15-.62-.22-.94-.22-.23,0-.44.03-.63.08-.19.05-.35.13-.48.23s-.23.21-.31.35c-.07.13-.11.28-.11.45,0,.21.05.39.15.54.1.15.24.28.41.39.17.12.38.23.62.33.24.11.5.22.78.35.34.15.66.3.95.45.29.15.54.32.75.5.21.18.38.4.5.65.12.25.18.55.18.91,0,.3-.06.58-.19.86-.12.27-.3.52-.54.72-.24.21-.54.38-.89.5s-.77.19-1.24.19c-.3,0-.6-.03-.89-.1-.29-.07-.55-.17-.8-.31-.25-.14-.47-.31-.68-.5-.2-.2-.38-.43-.52-.69l1-.66c.22.4.49.69.82.88s.7.28,1.11.28c.26,0,.48-.03.68-.1.2-.07.37-.15.51-.26s.25-.23.32-.36c.08-.13.11-.27.11-.41,0-.21-.05-.39-.14-.54-.09-.15-.22-.28-.38-.4-.16-.12-.36-.23-.59-.33-.23-.1-.49-.21-.77-.34-.29-.13-.58-.26-.87-.39-.29-.13-.55-.29-.79-.47-.23-.18-.42-.41-.57-.67-.15-.26-.22-.59-.22-.98,0-.3.07-.59.2-.86s.33-.51.57-.71c.24-.2.53-.36.87-.48.34-.12.7-.18,1.1-.18.24,0,.49.03.74.08.25.05.5.13.73.25.24.11.46.26.66.44s.38.4.52.66l-.92.62c-.23-.35-.5-.6-.81-.75Z"/>
      <path class="cls-7" d="M138.39,80.15v1.06h-4.21l.14-.14v6.45l-.14-.14h4.33v1.07h-5.37v-8.3h5.25ZM137.7,83.73v1.06h-3.55v-1.06h3.55Z"/>
      <path class="cls-7" d="M148.72,80.34c.53.22.99.52,1.38.9.4.38.7.83.93,1.36.22.52.33,1.09.33,1.7s-.11,1.18-.33,1.7c-.22.53-.53.98-.93,1.36-.4.38-.86.68-1.38.9-.53.22-1.1.33-1.71.33s-1.18-.11-1.71-.33c-.53-.22-1-.52-1.39-.9-.4-.38-.71-.83-.93-1.36-.22-.52-.33-1.09-.33-1.7s.11-1.18.33-1.7c.22-.53.53-.98.93-1.36.4-.38.86-.68,1.39-.9.53-.22,1.1-.33,1.71-.33s1.19.11,1.71.33ZM145.79,81.38c-.38.16-.71.38-1,.66-.29.28-.51.62-.68,1-.16.38-.25.8-.25,1.26s.08.87.25,1.26c.16.38.39.72.68,1,.29.28.62.5,1,.66.38.16.78.24,1.22.24s.84-.08,1.22-.24c.38-.16.71-.38,1-.66.29-.28.51-.62.68-1s.25-.8.25-1.26-.08-.87-.25-1.26-.39-.72-.68-1c-.29-.28-.62-.5-1-.66-.38-.16-.78-.24-1.22-.24s-.84.08-1.22.24Z"/>
      <path class="cls-7" d="M153.33,80.15l1.74,5.87h-.1s2.47-5.97,2.47-5.97h.41l2.47,5.96h-.1s1.74-5.85,1.74-5.85h1.28l-2.65,8.4h-.42l-2.59-6.17h.12l-2.59,6.17h-.42l-2.65-8.4h1.28Z"/>
      <path class="cls-7" d="M164.62,80.04h.36l5.48,5.95-.1.04v-5.88h1.19v8.42h-.36l-5.46-5.94.1-.04v5.85h-1.2v-8.4Z"/>
      <path class="cls-7" d="M179.05,80.15v1.06h-4.21l.14-.14v6.45l-.14-.14h4.33v1.07h-5.37v-8.3h5.25ZM178.35,83.73v1.06h-3.55v-1.06h3.55Z"/>
      <path class="cls-7" d="M180.86,80.15h3.01c.62,0,1.18.11,1.7.32.52.22.96.51,1.33.88s.66.81.87,1.31c.21.5.31,1.04.31,1.62s-.1,1.13-.31,1.64c-.21.51-.5.95-.87,1.32s-.81.67-1.33.88c-.51.21-1.08.32-1.7.32h-3.01v-8.3ZM181.9,87.38h1.86c.43,0,.83-.08,1.21-.23.38-.15.7-.37.98-.64s.49-.6.65-.98c.16-.38.24-.79.24-1.25s-.08-.86-.23-1.23c-.16-.38-.37-.7-.65-.98s-.6-.49-.98-.64c-.38-.15-.78-.23-1.21-.23h-1.87l.14-.14v6.45l-.14-.14Z"/>
      <path class="cls-7" d="M198.99,85.74c-.17.56-.43,1.05-.78,1.48s-.78.76-1.3,1c-.51.25-1.09.37-1.72.37-.39,0-.77-.05-1.13-.16s-.68-.26-.96-.45c-.28-.2-.5-.44-.67-.72-.16-.29-.25-.61-.25-.96,0-.28.06-.54.17-.78.11-.24.27-.46.48-.67s.46-.41.75-.6c.29-.19.62-.39.99-.58l.79.74c-.28.15-.54.29-.77.43-.24.14-.44.28-.62.42-.18.15-.31.3-.41.46-.1.16-.15.34-.15.54,0,.21.05.39.16.55.11.15.25.28.42.38s.37.18.58.23c.22.05.43.08.65.08.47,0,.89-.1,1.26-.3s.67-.46.91-.79c.24-.33.41-.7.52-1.12.11-.42.14-.85.09-1.3h1.15c.06.62.01,1.21-.16,1.77ZM193.68,83.57c-.14-.17-.25-.33-.35-.49-.1-.16-.17-.33-.22-.5-.05-.17-.08-.36-.08-.55,0-.25.05-.5.16-.74.1-.24.25-.46.45-.65.2-.19.43-.34.71-.45.28-.11.59-.17.93-.17s.65.06.93.17c.28.11.51.26.71.45.2.18.35.39.45.63.1.24.16.48.16.73,0,.23-.04.45-.13.64-.08.19-.21.38-.38.56-.17.18-.39.36-.66.55-.27.18-.59.38-.96.59l-.81-.72c.3-.17.57-.33.8-.46.23-.13.42-.26.57-.39.15-.12.27-.25.34-.37s.11-.25.11-.39c0-.13-.03-.25-.08-.36-.06-.11-.13-.22-.23-.31-.1-.09-.21-.16-.35-.21s-.29-.08-.46-.08-.32.03-.46.08-.26.12-.35.21c-.1.09-.17.19-.23.31-.06.12-.08.24-.08.38,0,.15.02.28.07.41.04.12.11.24.19.35.08.11.18.23.3.35.12.12.25.26.39.41l4.71,4.92h-1.5l-4.17-4.36c-.18-.18-.33-.35-.47-.52Z"/>
      <path class="cls-7" d="M209.3,80.34c.53.22.99.52,1.38.9.4.38.7.83.93,1.36.22.52.33,1.09.33,1.7s-.11,1.18-.33,1.7c-.22.53-.53.98-.93,1.36-.4.38-.86.68-1.38.9-.53.22-1.1.33-1.71.33s-1.18-.11-1.71-.33c-.53-.22-1-.52-1.39-.9-.4-.38-.71-.83-.93-1.36-.22-.52-.33-1.09-.33-1.7s.11-1.18.33-1.7c.22-.53.53-.98.93-1.36.4-.38.86-.68,1.39-.9.53-.22,1.1-.33,1.71-.33s1.19.11,1.71.33ZM206.37,81.38c-.38.16-.71.38-1,.66-.29.28-.51.62-.68,1-.16.38-.25.8-.25,1.26s.08.87.25,1.26c.16.38.39.72.68,1,.29.28.62.5,1,.66.38.16.78.24,1.22.24s.84-.08,1.22-.24c.38-.16.71-.38,1-.66.29-.28.51-.62.68-1s.25-.8.25-1.26-.08-.87-.25-1.26-.39-.72-.68-1c-.29-.28-.62-.5-1-.66-.38-.16-.78-.24-1.22-.24s-.84.08-1.22.24Z"/>
      <path class="cls-7" d="M214.66,84.36h1.77c.25,0,.47-.04.68-.11s.38-.18.53-.32c.15-.14.26-.3.34-.49.08-.19.12-.41.12-.65s-.04-.47-.12-.67c-.08-.2-.19-.36-.34-.49-.14-.13-.32-.24-.52-.31-.2-.07-.43-.11-.68-.11h-1.75l.14-.14v7.38h-1.19v-8.3h2.98c.38,0,.74.06,1.07.18.33.12.61.3.85.52.24.23.43.5.56.82s.2.68.2,1.07-.07.75-.2,1.07c-.14.32-.32.6-.56.83-.24.23-.52.41-.85.54-.33.12-.68.19-1.05.19h-1.99v-1.01Z"/>
      <path class="cls-7" d="M226.06,80.15v1.06h-4.21l.14-.14v6.45l-.14-.14h4.33v1.07h-5.37v-8.3h5.25ZM225.37,83.73v1.06h-3.55v-1.06h3.55Z"/>
      <path class="cls-7" d="M227.87,88.45v-8.3h3.34c.38,0,.74.06,1.07.18.33.12.61.29.86.51.24.22.43.48.57.79.14.31.2.65.2,1.03,0,.3-.04.57-.13.83-.09.25-.21.48-.37.69-.16.2-.35.38-.58.52-.22.15-.47.26-.74.33l1.79,3.42h-1.35l-1.68-3.3h-1.96s0-.96,0-.96h2.12c.25,0,.47-.04.68-.11s.39-.17.53-.3c.15-.13.26-.29.34-.47.08-.18.12-.39.12-.62,0-.24-.04-.46-.12-.64-.08-.18-.19-.34-.34-.46-.15-.12-.32-.22-.53-.28-.2-.06-.43-.09-.68-.09h-2.1l.14-.14v7.38h-1.19Z"/>
      <path class="cls-7" d="M238.54,82.18h.12l-2.72,6.27h-1.28l3.77-8.4h.36l3.77,8.4h-1.29l-2.73-6.27ZM236.5,85.66h4.21v1.05h-4.21v-1.05Z"/>
      <path class="cls-7" d="M241.92,81.21v-1.06h6.27v1.06h-6.27ZM244.46,81.03h1.19v7.42h-1.19v-7.42Z"/>
      <path class="cls-7" d="M254.8,80.15v1.06h-4.21l.14-.14v6.45l-.14-.14h4.33v1.07h-5.37v-8.3h5.25ZM254.1,83.73v1.06h-3.55v-1.06h3.55Z"/>
      <path class="cls-7" d="M256.6,80.15h3.01c.62,0,1.18.11,1.7.32.52.22.96.51,1.33.88s.66.81.87,1.31c.21.5.31,1.04.31,1.62s-.1,1.13-.31,1.64c-.21.51-.5.95-.87,1.32s-.81.67-1.33.88c-.51.21-1.08.32-1.7.32h-3.01v-8.3ZM257.65,87.38h1.86c.43,0,.83-.08,1.21-.23.38-.15.7-.37.98-.64s.49-.6.65-.98c.16-.38.24-.79.24-1.25s-.08-.86-.23-1.23c-.16-.38-.37-.7-.65-.98s-.6-.49-.98-.64c-.38-.15-.78-.23-1.21-.23h-1.87l.14-.14v6.45l-.14-.14Z"/>
    </g>
  </g>
</svg>