<?xml version="1.0" encoding="UTF-8"?>
<svg id="Layer_1" data-name="Layer 1" xmlns="http://www.w3.org/2000/svg" xmlns:xlink="http://www.w3.org/1999/xlink" viewBox="0 0 500 500">
  <defs>
    <style>
      .cls-1 {
        stroke: #fff;
        stroke-width: 6.3px;
      }

      .cls-1, .cls-2 {
        fill: none;
        stroke-miterlimit: 10;
      }

      .cls-3 {
        fill: url(#linear-gradient-2);
      }

      .cls-2 {
        stroke: #00a651;
        stroke-width: 9.93px;
      }

      .cls-4 {
        fill: #fff;
      }

      .cls-5 {
        fill: #00a651;
      }

      .cls-6 {
        fill: url(#linear-gradient-3);
      }

      .cls-7 {
        fill: #006838;
      }

      .cls-8 {
        fill: url(#linear-gradient);
      }
    </style>
    <linearGradient id="linear-gradient" x1="252.28" y1="257.77" x2="426.25" y2="257.77" gradientUnits="userSpaceOnUse">
      <stop offset="0" stop-color="#006838"/>
      <stop offset="1" stop-color="#00a651"/>
    </linearGradient>
    <linearGradient id="linear-gradient-2" x1="78.29" y1="257.77" x2="426.24" y2="257.77" xlink:href="#linear-gradient"/>
    <linearGradient id="linear-gradient-3" x1="20.3" y1="279.25" x2="484.23" y2="279.25" xlink:href="#linear-gradient"/>
  </defs>
  <circle class="cls-2" cx="250" cy="250" r="195.29"/>
  <g>
    <g>
      <path class="cls-8" d="M426.25,96.33v251.84c0,5.72-5.25,10.27-11.65,10.45-97.46,2.86-136.82,41.62-162.32,70.77V146.56c25.5-29.11,64.83-58.27,162.32-60.42,6.41-.13,11.65,4.42,11.65,10.18Z"/>
      <path class="cls-3" d="M252.26,146.56c-25.52-29.14-64.86-58.27-162.35-60.41-6.4-.14-11.63,4.53-11.63,10.27v251.74c0,5.75,5.22,10.26,11.62,10.45,97.49,2.86,136.83,41.64,162.35,70.77M252.26,146.56c25.52-29.14,64.85-58.27,162.35-60.41,6.4-.14,11.63,4.42,11.63,10.17v251.83c0,5.75-5.22,10.27-11.62,10.46-97.49,2.86-136.83,41.64-162.35,70.77M252.26,146.56v282.82"/>
      <path class="cls-6" d="M426.38,123.18s46.25,0,46.25,0c6.4,0,11.6,4.66,11.6,10.4v271.34c0,8.42-11.06,14.01-19.64,10.59-68.08-33.6-180.7-6.68-212.33,19.81-33.19-27.29-144.57-52.98-212.33-19.8-8.58,3.41-19.63-2.18-19.63-10.6V133.59c0-5.75,5.19-10.4,11.6-10.4,0,0,46.25,0,46.25,0"/>
    </g>
    <g>
      <path class="cls-1" d="M426.25,96.33v251.84c0,5.72-5.25,10.27-11.65,10.45-97.46,2.86-136.82,41.62-162.32,70.77V146.56c25.5-29.11,64.83-58.27,162.32-60.42,6.41-.13,11.65,4.42,11.65,10.18Z"/>
      <path class="cls-1" d="M252.26,146.56c-25.52-29.14-64.86-58.27-162.35-60.41-6.4-.14-11.63,4.53-11.63,10.27v251.74c0,5.75,5.22,10.26,11.62,10.45,97.49,2.86,136.83,41.64,162.35,70.77M252.26,146.56c25.52-29.14,64.85-58.27,162.35-60.41,6.4-.14,11.63,4.42,11.63,10.17v251.83c0,5.75-5.22,10.27-11.62,10.46-97.49,2.86-136.83,41.64-162.35,70.77M252.26,146.56v282.82"/>
      <path class="cls-1" d="M426.38,123.18s46.25,0,46.25,0c6.4,0,11.6,4.66,11.6,10.4v271.34c0,8.42-11.06,14.01-19.64,10.59-68.08-33.6-180.7-6.68-212.33,19.81-33.19-27.29-144.57-52.98-212.33-19.8-8.58,3.41-19.63-2.18-19.63-10.6V133.59c0-5.75,5.19-10.4,11.6-10.4,0,0,46.25,0,46.25,0"/>
    </g>
    <g>
      <path class="cls-7" d="M364.21,179.22l-.39-.4c-.4,0-.79,0-1.19-.39-3.56-1.19-5.93-1.58-6.72-.79l-6.72,17.01-4.36-4.75c-1.57-1.58-2.36-3.17-3.56-5.14-.39-.79-1.18-1.58-1.58-2.38-3.56-4.75-13.45-18.6-23.35-19.39h-128.99c-5.53.79-14.24,5.93-27.29,26.11l-1.19,1.97h-2.38c-.79,0-2.76-.39-3.96-2.76-.79-1.58-1.18-3.17-1.97-4.75-.79-1.97-1.58-4.35-2.38-5.54,0,0,0-.39-.79-.39h-2.38c-11.86,1.97-26.5,9.1-33.63,20.18-3.57,5.53-4.36,11.86-2.78,18.2,4.36,15.04,8.32,30.86,12.26,46.29,3.96,16.63,8.32,33.64,13.07,49.86,5.53,18.6,18.58,21.75,39.56,26.11,45.5,9.1,105.66,9.1,153.13.79h.79c18.99-3.57,36.4-6.74,42.74-24.93,3.17-12.67,6.72-25.32,9.89-37.59,5.54-21.38,11.47-43.53,16.61-65.29,1.19-20.57-24.53-29.67-32.45-32.04ZM167.56,189.5l.39-.39c3.96-5.93,13.07-18.6,20.58-19h125.83c6.33.4,13.06,8.71,16.61,13.46,7.53,9.5,14.25,21.36,19.79,32.06,2.38,4.35,4.75,8.69,6.33,13.45-8.71,1.19-17.01,2.78-25.72,3.57-29.28,3.15-58.56,2.76-88.24,2.76s-63.7,0-92.98-5.54c-.79,0-4.75-.79-4.75-1.18,6.72-13.46,13.45-26.9,22.15-39.18ZM363.42,311.77h-.39c-5.14,16.22-27.7,18.6-42.34,20.97-44.32,7.51-101.7,7.13-145.62-1.58-12.65-2.38-28.49-4.75-33.63-18.2l-21.38-81.11c1.99,0,3.57,1.18,5.54,1.97,27.31,9.89,64.5,11.08,93.78,11.47,27.7.4,56.18.79,84.28-.39,22.95-1.19,49.85-2.78,71.61-9.5,3.17-1.18,5.93-2.38,9.1-3.56l-20.97,79.92Z"/>
      <path class="cls-7" d="M384.39,231.85l-20.97,79.92h-.39c-5.14,16.22-27.7,18.6-42.34,20.97-44.32,7.51-101.7,7.13-145.62-1.58-12.65-2.38-28.49-4.75-33.63-18.2l-21.38-81.11c1.99,0,3.57,1.18,5.54,1.97,27.31,9.89,64.5,11.08,93.78,11.47,27.7.4,56.18.79,84.28-.39,22.95-1.19,49.85-2.78,71.61-9.5,3.17-1.18,5.93-2.38,9.1-3.56Z"/>
      <path class="cls-4" d="M357.09,229.08c-8.71,1.19-17.01,2.77-25.72,3.56-29.28,3.17-58.56,2.77-88.24,2.77s-63.7,0-92.99-5.54c-.79,0-4.75-.79-4.75-1.19,6.73-13.45,13.45-26.91,22.16-39.17l.4-.4c3.96-5.94,13.06-18.6,20.58-18.99h125.83c6.33.4,13.06,8.71,16.62,13.45,7.52,9.5,14.24,21.37,19.78,32.05,2.37,4.35,4.75,8.71,6.33,13.45Z"/>
      <path class="cls-4" d="M384.39,231.85l-20.97,79.93h-.4c-5.14,16.22-27.7,18.6-42.34,20.97-44.32,7.52-101.69,7.12-145.61-1.58-12.66-2.37-28.49-4.75-33.63-18.2l-21.37-81.11c1.98,0,3.56,1.19,5.54,1.98,27.3,9.89,64.5,11.08,93.78,11.47,27.7.4,56.19.79,84.28-.4,22.95-1.19,49.86-2.77,71.62-9.5,3.17-1.19,5.94-2.37,9.1-3.56Z"/>
      <path class="cls-5" d="M261.37,282.09h20.97c.4.4.79.79.79,1.58.79,5.94-.4,12.66,0,18.6,0,.4-.79,1.58-1.19,1.58h-20.58v20.58s-1.19,1.19-1.58,1.19c-5.94-.79-13.45.79-18.99,0-1.19,0-1.58-1.19-1.58-2.37v-19.39h-20.58c-.4,0-.79-1.58-1.19-1.98,0-3.96-.4-13.85,0-17.81,0-.4.4-1.98.79-1.98h20.97v-20.97c0-.4,1.19-.79,1.98-.79,3.96-.4,13.45,0,17.41,0,.79,0,2.37,0,2.37,1.19v20.58h.4Z"/>
    </g>
  </g>
</svg>