<?xml version="1.0" encoding="UTF-8"?>
<svg id="Layer_1" data-name="Layer 1" xmlns="http://www.w3.org/2000/svg" viewBox="0 0 271.14 209.34">
  <defs>
    <style>
      .cls-1 {
        fill: #fff;
      }
    </style>
  </defs>
  <path class="cls-1" d="M250.05,187.83h-8.02v-1h8.02c6.71,0,12.17-5.46,12.17-12.17V21.27c0-6.71-5.46-12.17-12.17-12.17H21.09c-6.71,0-12.17,5.46-12.17,12.17v153.39c0,6.71,5.46,12.17,12.17,12.17h7.9v1h-7.9c-7.26,0-13.17-5.91-13.17-13.17V21.27c0-7.26,5.91-13.17,13.17-13.17h228.96c7.26,0,13.17,5.91,13.17,13.17v153.39c0,7.26-5.91,13.17-13.17,13.17Z"/>
  <path class="cls-1" d="M91.17,79.03l-2.8.6-8.7,21,2.7.6-.4,1.1h-10.9l.5-1.1,2.8-.6,4.3-10.3h-9.4l-4.3,10.3,2.7.6-.5,1.1h-10.9l.5-1.1,2.8-.6,8.7-21-2.7-.6.5-1.1h10.9l-.5,1.1-2.9.6-3.8,9h9.5l3.7-9-2.7-.6.5-1.1h10.9l-.5,1.1h0ZM90.57,102.63c-1.3,0-2.3-.4-3-1.2-.7-.8-1.1-1.9-1.1-3.3s.2-2.3.7-3.5,1.1-2.4,1.9-3.5,1.7-2.1,2.6-3c1-.9,2-1.6,3.1-2.1s2.1-.8,3.1-.8,1.5.1,2,.4c.6.2,1,.6,1.5,1.1l.5-1.2h4.6l-6,14.6c0,.2-.1.4,0,.5,0,.1.2.2.4.2s.5,0,.7-.3c.3-.2.7-.5,1.1-.9.5-.4,1.1-1.1,1.9-1.9l.9.5c-1.4,1.6-2.5,2.7-3.6,3.4-1,.7-2.1,1-3.1,1-1.7,0-2.5-.7-2.5-2s0-.9.3-1.5c.2-.5.5-1.2.9-2.1h-.2c-1.3,1.9-2.5,3.4-3.5,4.2s-2.1,1.3-3.2,1.3v.1ZM91.87,101.13c.4,0,.9-.3,1.5-.9s1.3-1.4,2.1-2.5c.8-1,1.5-2.2,2.2-3.4.7-1.3,1.4-2.5,1.9-3.8.3-.6.5-1.1.5-1.4s.1-.6.1-.9c0-.5-.1-.9-.4-1.1-.2-.3-.6-.4-1.1-.4s-1.2.3-1.9.9c-.7.6-1.4,1.3-2.1,2.3-.7.9-1.3,2-1.9,3.1s-1,2.3-1.4,3.4-.5,2.2-.5,3.1,0,.9.2,1.2c.1.3.4.4.6.4h.2ZM106.87,102.33l6-14.6c0-.2.1-.3.1-.4v-.3q0-.2-.3-.2c-.3,0-.6.1-1,.4-.4.2-.9.6-1.3.9l-1.2,1.2-.8-.7c.9-1.1,2-1.9,3.1-2.5,1.2-.6,2.3-.9,3.5-.9s1.4.1,1.7.4c.4.3.5.7.5,1.4s-.1.9-.3,1.6c-.2.6-.6,1.3-1.1,2.2h.2c1.1-1.7,2.1-3.1,3-4,.9-1,1.9-1.5,3-1.5s1.4.2,1.9.7.8,1,.8,1.7-.2,1.1-.6,1.4-.8.5-1.3.5-.9-.1-1.1-.4c-.3-.3-.5-.6-.7-.8-.2-.3-.4-.4-.8-.4s-.8.3-1.4.8c-.5.5-1.1,1.3-1.7,2.2-.6.9-1.2,1.9-1.8,3.1-.6,1.1-1.2,2.3-1.7,3.4l-2.3,5h-4.6l.2-.2ZM146.07,102.63c-1.7,0-2.5-.7-2.5-2.2s0-1.1.3-1.7c.2-.6.5-1.3.8-2.1l3.9-8c.3-.6.4-1.1.4-1.4s-.2-.5-.5-.5-.7.2-1.2.6-1.1.9-1.7,1.6c-.6.6-1.2,1.4-1.8,2.1-.6.8-1.2,1.6-1.7,2.4s-.9,1.6-1.2,2.3l-2.9,6.6h-4.9l6.1-13.7c.1-.3.2-.6.3-.8,0-.2.1-.4.1-.6,0-.3-.1-.5-.3-.5-.3,0-.7.2-1.2.6s-1.1.9-1.7,1.6c-.6.6-1.2,1.4-1.8,2.1-.6.8-1.2,1.6-1.7,2.4s-.9,1.6-1.3,2.3l-3,6.6h-4.6l6-14.6c.1-.4.2-.6.2-.7s-.1-.2-.3-.2-.6.1-1,.4c-.4.2-.9.6-1.3.9l-1.2,1.2-.8-.7c.9-1.1,2-1.9,3.1-2.5s2.3-.9,3.5-.9,1.4.1,1.7.4c.4.3.5.7.5,1.4s-.1.9-.3,1.6c-.2.6-.5,1.3-.9,2.2h.2c1.4-2,2.6-3.4,3.7-4.2,1.1-.9,2.3-1.3,3.5-1.3s1.5.2,1.9.7c.4.5.7,1.1.7,2s-.2,1.8-.7,2.8h.2c1.4-2,2.6-3.4,3.7-4.2,1.1-.9,2.3-1.3,3.6-1.3s1.7.3,2.3.8c.5.5.8,1.3.8,2.3s0,.9-.2,1.3c-.1.4-.3.9-.5,1.3l-4.2,8.4c-.2.5-.4.9-.4,1.1s.1.4.4.4.8-.2,1.4-.7c.6-.5,1.4-1.3,2.5-2.4l.9.5c-1.3,1.5-2.5,2.7-3.6,3.3-1.1.7-2.2,1-3.3,1h0ZM161.27,102.63c-1.8,0-3.2-.5-4.2-1.5s-1.5-2.4-1.5-4.2.2-2.4.6-3.6c.4-1.2,1-2.2,1.7-3.2s1.6-1.9,2.6-2.6c1-.8,2-1.3,3.2-1.8,1.1-.4,2.3-.6,3.5-.6,1.8,0,3.2.5,4.2,1.5s1.5,2.4,1.5,4.2-.2,2.4-.6,3.5c-.4,1.2-1,2.2-1.7,3.2s-1.6,1.9-2.6,2.6c-1,.8-2,1.3-3.2,1.8-1.1.4-2.3.6-3.5.6v.1ZM161.17,101.13c.5,0,1.1-.3,1.7-.8.7-.5,1.3-1.3,2-2.2.7-.9,1.2-1.9,1.8-3,.5-1.1,1-2.2,1.3-3.3.3-1.1.5-2.1.5-3s-.1-1.2-.3-1.6-.5-.6-.9-.6-1.1.3-1.7.8c-.6.5-1.3,1.3-1.9,2.2-.6.9-1.2,1.9-1.8,3-.5,1.1-1,2.2-1.3,3.3-.3,1.1-.5,2.1-.5,3s.1,1.2.3,1.6.5.6.9.6h-.1ZM186.67,102.63c-1.7,0-2.6-.7-2.6-2.2s.4-2.3,1.1-3.8l3.9-8.1c.1-.3.3-.6.3-.8s.1-.4.1-.6c0-.4-.2-.6-.5-.6s-.8.2-1.3.6-1.1.9-1.7,1.6c-.6.6-1.2,1.4-1.8,2.1-.6.8-1.2,1.6-1.7,2.4s-.9,1.6-1.3,2.3l-3,6.6h-4.6l6-14.6c.1-.4.2-.6.2-.7q0-.2-.2-.2c-.2,0-.5.2-.9.5s-.9.7-1.3,1.1c-.4.4-.8.9-1.1,1.3l-.8-.7c.9-1.1,1.8-2,3-2.7,1.1-.7,2.3-1.1,3.6-1.1s2.2.6,2.2,1.8,0,.9-.3,1.5c-.2.6-.5,1.3-1,2.3h.2c1.4-2,2.7-3.4,3.8-4.2,1.1-.9,2.3-1.3,3.6-1.3,2.2,0,3.2,1,3.2,3.1s-.2,1.8-.6,2.6l-4.2,8.4c-.1.2-.2.4-.3.6v.5c0,.3.1.4.4.4s.7-.2,1.2-.7,1.3-1.3,2.3-2.4l.9.5c-1.2,1.5-2.4,2.7-3.4,3.3-1,.7-2.1,1-3.2,1l-.2.2ZM193.17,110.43c-.9,0-1.8-.2-2.5-.7-.7-.4-1.1-1-1.1-1.7s.2-.9.6-1.3c.4-.4.9-.6,1.5-.6s.8.1,1,.3c.2.2.5.5.6.8.2.3.4.6.6.8.2.2.5.4.9.4s.5,0,1-.2c.5-.1,1-.4,1.6-1,.2-.2.4-.3.5-.6.2-.2.3-.5.4-.9.1-.4.2-.9.3-1.6,0-.7.2-1.5.2-2.6v-9.4c0-1.4-.1-2.4-.2-3.2-.1-.7-.3-1.2-.5-1.5s-.4-.4-.7-.4c-.7,0-1.5.6-2.5,1.8l-.9-.5c.8-1,1.7-1.8,2.7-2.4s2.1-.9,3.1-.9,1.2.2,1.6.5c.4.3.8.8,1,1.5.3.7.5,1.6.6,2.7s.2,2.5.2,4.1,0,2.3-.2,3.8c-.1,1.5-.3,3.1-.4,4.9h.1c1.2-1.3,2.1-2.6,2.9-4,.8-1.4,1.3-2.7,1.7-4s.6-2.6.6-3.7v-1.2c0-.4-.1-.8-.2-1.2v-1c0-.7.2-1.3.6-1.7.4-.4,1-.7,1.6-.7s1.2.3,1.6.8c.4.5.5,1.2.5,2.2s-.2,2.4-.7,3.8c-.4,1.4-1,2.7-1.8,4.2-.8,1.4-1.7,2.8-2.7,4.2-1,1.4-2.1,2.7-3.3,3.9-1.2,1.2-2.3,2.3-3.6,3.2-1.2.9-2.4,1.7-3.6,2.2-1.2.5-2.2.8-3.2.8l.1.1ZM32.37,148.93c-.4,0-.7-.1-.9-.4-.2-.3-.3-.7-.3-1.1,0-.7.2-1.3.5-1.8s.8-1,1.4-1.4l.3.5c-.3.2-.6.5-.8.8-.2.3-.3.5-.3.7s0,.3.2.4c.1,0,.3.2.5.3s.3.2.5.3c.1.1.2.3.2.6s-.1.6-.3.8c-.2.2-.5.3-.8.3h-.2ZM29.17,148.93c-.4,0-.7-.1-.9-.4-.2-.3-.3-.7-.3-1.1,0-.7.2-1.3.5-1.8s.8-1,1.4-1.4l.3.5c-.3.2-.6.5-.8.8s-.3.5-.3.7,0,.3.2.4c.1,0,.3.2.5.3.2,0,.3.2.5.3.1.1.2.3.2.6s-.1.6-.3.8c-.2.2-.5.3-.8.3h-.2ZM45.07,157.63l-7.8-10.4v9.4l1.4.3v.4h-3.7v-.4l1.4-.3v-10.7l-1.4-.3v-.4h3.7l6.3,8.4v-7.6l-1.4-.3v-.4h3.7v.4l-1.4.3v11.7h-.7l-.1-.1ZM51.37,157.53c-.8,0-1.4-.2-1.8-.6-.4-.4-.6-1-.6-1.8v-5.5l-1.2-.3v-.4h3.1v5.6c0,.7.1,1.2.4,1.5.3.3.6.4,1.2.4s.7,0,1-.3c.3-.2.6-.5.9-.9v.8c-.4.5-.9.8-1.4,1.1s-1.1.4-1.6.4ZM54.17,157.53v-1.4h0v-6.4l-1.2-.3v-.4h3.1v7.1l1.1.4v.3l-2.7.8h-.2l-.1-.1ZM58.07,157.33v-.4l1.2-.3v-6.4l-1.2-.4v-.3l2.8-.8h.2v1.6h0v6.2l1.8.3v.4h-4.9l.1.1ZM60.97,151.33v-.8c.4-.5.8-1,1.2-1.3s.8-.4,1.1-.4.6.1.8.3.3.5.3.8,0,.5-.3.7c-.2.2-.4.3-.7.3s-.5,0-.7-.3c-.1-.1-.2-.2-.3-.3h-.3c-.2,0-.4.1-.6.3-.2.2-.5.5-.6.8l.1-.1ZM67.87,157.53h-1.2c-.4,0-.8-.1-1.1-.3v-2.6c-.1,0,.4,0,.4,0,0,.8.3,1.3.6,1.7s.8.6,1.4.6.8-.1,1.1-.4c.3-.2.4-.6.4-1s-.1-.6-.3-.8-.5-.5-1-.7l-.7-.4c-.7-.3-1.1-.7-1.4-1.1-.3-.4-.4-.9-.4-1.4,0-.8.3-1.4.8-1.8.5-.4,1.3-.6,2.4-.6s.8,0,1.1,0c.4,0,.6.1.8.2v2.2h-.4c-.2-1.2-.7-1.9-1.7-1.9s-.7.1-1,.3c-.2.2-.4.5-.4.8s.1.6.3.8.6.5,1.1.7l.7.4c.6.3,1.1.7,1.3,1,.3.4.4.9.4,1.4,0,.8-.3,1.5-.8,1.9-.6.5-1.3.7-2.3.7l-.1.3ZM76.47,157.53c-.8,0-1.5-.2-2.1-.5-.6-.4-1.1-.9-1.4-1.5-.3-.6-.5-1.4-.5-2.2s.2-1.7.6-2.3c.4-.7.9-1.2,1.6-1.6.7-.4,1.4-.6,2.3-.6s2,.3,2.5.9c.6.6.9,1.5.9,2.8h-.1c0,.1-6.4.1-6.4.1v-.6l4.5-.2v-.6c0-1.2-.5-1.8-1.6-1.8s-1.3.3-1.7.9c-.4.6-.6,1.4-.6,2.5,0,2.3.9,3.4,2.6,3.4s2.1-.4,2.7-1.2l.3.2c-.3.7-.7,1.3-1.4,1.7-.6.4-1.4.6-2.3.6h.1ZM91.87,157.53c-.9,0-1.7-.2-2.4-.5-.7-.3-1.3-.8-1.9-1.3-.5-.6-.9-1.2-1.2-2-.3-.8-.4-1.6-.4-2.5s.1-1.7.4-2.5.7-1.4,1.2-2,1.1-1,1.9-1.3c.7-.3,1.5-.5,2.4-.5s1.7.2,2.4.5c.7.3,1.4.8,1.9,1.3.5.6.9,1.2,1.2,2,.3.8.4,1.6.4,2.5s-.1,1.7-.4,2.5-.7,1.4-1.2,2-1.1,1-1.9,1.3c-.7.3-1.5.5-2.4.5ZM91.87,156.73c.5,0,.9,0,1.3-.3.4-.2.7-.5,1-.8s.5-.7.7-1.2.3-1,.4-1.5c0-.5.1-1.1.1-1.7s0-1.1-.1-1.7c0-.5-.2-1-.4-1.5-.2-.5-.4-.8-.7-1.2-.3-.3-.6-.6-1-.8-.4-.2-.8-.3-1.3-.3s-.9,0-1.3.3c-.4.2-.7.5-1,.8s-.5.7-.7,1.2-.3.9-.4,1.5c0,.5-.1,1.1-.1,1.7s0,1.2.1,1.7c0,.5.2,1,.4,1.5s.4.9.7,1.2c.3.3.6.6,1,.8s.8.3,1.3.3ZM107.57,157.53l-2.6-7.5c0-.3-.2-.4-.3-.5-.1,0-.4-.1-.7-.2v-.4h4.3v.4c-.6,0-.9.1-1,.2s-.1.3,0,.6l1.5,4.8h0l1.6-4.5c0-.1,0-.2.1-.3v-.3c0-.2,0-.3-.2-.4-.2,0-.5-.2-.9-.2v-.4h3.4v.4c-.4,0-.7.1-.9.2-.2,0-.4.2-.5.4-.1.1-.2.4-.3.6l-2.5,6.9h-1v.2ZM102.27,157.53l-2.7-7.5c0-.3-.2-.4-.4-.5-.1,0-.4-.1-.8-.2v-.4h4.5v.4c-.4,0-.6,0-.8.1-.2,0-.3.1-.3.2v.5l1.5,4.8h0l1.9-4.9h.7l-2.8,7.3h-.9l.1.2ZM118.17,157.33v-.4l1.2-.3v-4.9c0-.6-.1-1.1-.4-1.4-.3-.3-.7-.5-1.2-.5s-1.4.3-1.9,1v-.8c.4-.4.9-.8,1.4-1s1.1-.4,1.6-.4c1.6,0,2.4.8,2.4,2.4v5.5l1.2.3v.4h-4.2l-.1.1ZM112.87,157.33v-.4l1.2-.3v-6.4l-1.2-.4v-.3l2.8-.8h.2v1.4h0v6.5l1.2.3v.4h-4.3.1ZM127.47,157.53c-.8,0-1.5-.2-2.1-.5-.6-.4-1.1-.9-1.4-1.5s-.5-1.4-.5-2.2.2-1.7.6-2.3c.4-.7.9-1.2,1.6-1.6.7-.4,1.4-.6,2.3-.6s2,.3,2.5.9c.6.6.9,1.5.9,2.8h-.1c0,.1-6.4.1-6.4.1v-.6l4.5-.2v-.6c0-1.2-.5-1.8-1.6-1.8s-1.3.3-1.7.9c-.4.6-.6,1.4-.6,2.5,0,2.3.9,3.4,2.6,3.4s2.1-.4,2.7-1.2l.3.2c-.3.7-.7,1.3-1.4,1.7-.6.4-1.4.6-2.3.6h.1ZM136.07,157.53c-.6,0-1.2-.2-1.7-.6-.5-.4-.9-.9-1.2-1.5-.3-.6-.4-1.4-.4-2.2s.2-1.7.5-2.3c.4-.7.9-1.2,1.5-1.6.6-.4,1.4-.6,2.2-.6s1.2.1,1.8.3v-3.4l-1.2-.4v-.3l2.9-.8h.2v11.8l1.2.3v.2l-2.7,1h-.2v-1.2h0c-.3.4-.7.7-1.2.9-.4.2-.9.3-1.5.3l-.2.1ZM136.87,156.43c.4,0,.7,0,1-.2s.6-.4.8-.6v-4.3c0-.6-.1-1-.4-1.3s-.7-.5-1.2-.5-1.2.3-1.6,1-.6,1.5-.6,2.6.2,1.9.6,2.5.9.9,1.6.9l-.2-.1ZM150.97,157.53c-1.2,0-2.1-.3-2.7-.8-.6-.6-.9-1.3-.9-2.2s0-.8.2-1.2c.1-.4.4-.7.7-1s.7-.7,1.2-1.1c.5-.4,1.1-.8,1.9-1.3.5-.3.9-.6,1.2-.9.3-.3.5-.6.6-.8.1-.3.2-.6.2-.9,0-.6-.1-1-.4-1.3-.3-.3-.6-.4-.9-.4s-.6.1-.9.3-.4.6-.4,1,0,.7.3,1c.2.4.5.8.9,1.4l5.7,7.1,1.4.4v.4h-3.1l-5.6-6.9c-.5-.6-.8-1.2-1-1.6-.1-.5-.2-.8-.2-1.1,0-.6.1-1.1.4-1.5.3-.4.7-.7,1.1-.9.5-.2.9-.3,1.5-.3s.8,0,1.2.2.6.4.9.7c.2.3.3.6.3,1s0,.6-.2.9c-.1.3-.4.6-.6.9-.3.3-.6.6-1,.9-.4.3-.8.6-1.2.9-.5.3-.9.6-1.2,1-.3.3-.6.7-.7,1-.2.4-.2.8-.2,1.2s0,.9.3,1.3c.2.4.4.8.8,1,.4.3.8.4,1.4.4s1.1-.1,1.6-.4c.5-.3,1-.7,1.4-1.2s.8-1.1,1-1.7c.2-.6.4-1.3.4-1.9s0-.3,0-.4c0,0-.2-.2-.4-.2s-.5-.1-1-.2v-.5h4v.5c-.4,0-.8,0-1,.2-.2,0-.4.2-.5.3,0,.1-.1.3-.2.5-.3,1.3-.7,2.3-1.3,3.3-.6.9-1.3,1.6-2.1,2.1s-1.7.7-2.7.7l-.2.1ZM169.97,157.53c-.9,0-1.7-.2-2.4-.5s-1.3-.8-1.9-1.3c-.5-.6-.9-1.2-1.2-2s-.4-1.6-.4-2.5.1-1.7.4-2.5c.3-.8.7-1.4,1.2-2s1.1-1,1.9-1.3c.7-.3,1.5-.5,2.4-.5s1.7.2,2.4.5,1.4.8,1.9,1.3c.5.6.9,1.2,1.2,2s.4,1.6.4,2.5-.1,1.7-.4,2.5c-.3.8-.7,1.4-1.2,2s-1.1,1-1.9,1.3c-.7.3-1.5.5-2.4.5ZM169.97,156.73c.5,0,.9,0,1.3-.3.4-.2.7-.5,1-.8s.5-.7.7-1.2.3-1,.4-1.5c0-.5.1-1.1.1-1.7s0-1.1-.1-1.7c0-.5-.2-1-.4-1.5s-.4-.8-.7-1.2-.6-.6-1-.8c-.4-.2-.8-.3-1.3-.3s-.9,0-1.3.3c-.4.2-.7.5-1,.8s-.5.7-.7,1.2-.3.9-.4,1.5c0,.5-.1,1.1-.1,1.7s0,1.2.1,1.7c0,.5.2,1,.4,1.5s.4.9.7,1.2.6.6,1,.8.8.3,1.3.3ZM176.97,161.33v-.3l1.3-.3v-10.4l-1.2-.4v-.3l2.8-.8h.3v1.3h0c.3-.4.7-.8,1.2-1s.9-.3,1.4-.3,1.3.2,1.8.5c.5.4.9.9,1.2,1.5s.4,1.3.4,2.2-.2,1.7-.6,2.4c-.4.7-.9,1.2-1.6,1.6-.7.4-1.5.6-2.4.6s-.5,0-.8,0c-.2,0-.5,0-.7-.2v3.4l1.8.3v.3h-5l.1-.1ZM181.77,156.83c.5,0,.9-.2,1.2-.5.4-.3.6-.7.8-1.3.2-.5.3-1.2.3-1.9,0-1-.2-1.9-.6-2.4-.4-.6-.9-.9-1.6-.9s-.7,0-1,.3c-.3.2-.6.4-.7.7v4.4c0,.5.1.9.4,1.2.3.3.7.5,1.1.5l.1-.1ZM191.57,157.53c-.8,0-1.5-.2-2.1-.5-.6-.4-1.1-.9-1.4-1.5-.3-.6-.5-1.4-.5-2.2s.2-1.7.6-2.3c.4-.7.9-1.2,1.6-1.6.7-.4,1.4-.6,2.3-.6s2,.3,2.5.9c.6.6.9,1.5.9,2.8h-.1c0,.1-6.4.1-6.4.1v-.6l4.5-.2v-.6c0-1.2-.5-1.8-1.6-1.8s-1.3.3-1.7.9c-.4.6-.6,1.4-.6,2.5,0,2.3.9,3.4,2.6,3.4s2.1-.4,2.7-1.2l.3.2c-.3.7-.7,1.3-1.4,1.7-.6.4-1.4.6-2.3.6h.1ZM196.47,157.33v-.4l1.2-.3v-6.4l-1.2-.4v-.3l2.8-.8h.2v1.6h0v6.2l1.8.3v.4h-4.9l.1.1ZM199.47,151.33v-.8c.4-.5.8-1,1.2-1.3s.8-.4,1.1-.4.6.1.8.3.3.5.3.8,0,.5-.3.7c-.2.2-.4.3-.7.3s-.5,0-.7-.3l-.3-.3h-.3c-.2,0-.4.1-.6.3-.2.2-.5.5-.6.8l.1-.1ZM205.67,157.53c-.6,0-1.1-.2-1.4-.5-.4-.4-.5-.8-.5-1.4s.1-.9.4-1.3c.3-.4.8-.7,1.4-.9.7-.3,1.5-.5,2.6-.7v-1.4c0-.7,0-1.2-.3-1.4-.2-.3-.5-.4-.9-.4s-.8.1-1,.3c-.3.2-.4.5-.4.8v.6c0,.3,0,.5-.3.7-.2.2-.4.3-.7.3s-.5,0-.6-.2c-.2-.2-.2-.4-.2-.6s.1-.7.4-1c.3-.4.6-.7,1.1-.9.7-.4,1.5-.6,2.4-.6s.9,0,1.2.2c.3.1.6.3.7.6,0,.2.2.4.2.7v4.9c0,.5,0,.9.1,1,0,.2.2.3.5.3s.5-.1.7-.4l.3.4c-.3.4-.6.6-.9.8-.3.2-.7.3-1,.3s-.8-.1-1.1-.3-.4-.6-.5-1h0c-.3.4-.7.8-1.2,1-.4.2-.9.4-1.4.4l.4-.3ZM206.67,156.33c.3,0,.6,0,.8-.2.3-.1.5-.3.7-.6v-2.2c-.7.1-1.2.3-1.5.4-.4.1-.6.3-.8.6-.2.2-.2.5-.2.8s0,.7.3.9c.2.2.4.3.8.3h-.1ZM215.17,157.53c-.7,0-1.2-.2-1.5-.5s-.5-.9-.5-1.5v-5.8h-1.1v-.4l2.6-2.4h.4v2.1h2.3l-.2.7h-2.2v5.7c0,.9.3,1.3,1,1.3s.4,0,.6-.1c.2,0,.4-.2.5-.4l.3.3c-.3.4-.6.6-1,.8s-.8.3-1.3.3l.1-.1ZM222.37,157.53c-.8,0-1.5-.2-2.1-.5-.6-.4-1.1-.9-1.4-1.5-.3-.6-.5-1.4-.5-2.2s.2-1.7.6-2.3c.4-.7.9-1.2,1.6-1.6.7-.4,1.4-.6,2.3-.6s2,.3,2.5.9c.6.6.9,1.5.9,2.8h-.1c0,.1-6.4.1-6.4.1v-.6l4.5-.2v-.6c0-1.2-.5-1.8-1.6-1.8s-1.3.3-1.7.9c-.4.6-.6,1.4-.6,2.5,0,2.3.9,3.4,2.6,3.4s2.1-.4,2.7-1.2l.3.2c-.3.7-.7,1.3-1.4,1.7-.6.4-1.4.6-2.3.6h.1ZM230.87,157.53c-.6,0-1.2-.2-1.7-.6-.5-.4-.9-.9-1.2-1.5s-.4-1.4-.4-2.2.2-1.7.5-2.3c.4-.7.9-1.2,1.5-1.6.6-.4,1.4-.6,2.2-.6s1.2.1,1.8.3v-3.4l-1.2-.4v-.3l2.9-.8h.2v11.8l1.2.3v.2l-2.7,1h-.2v-1.2h0c-.3.4-.7.7-1.2.9-.4.2-.9.3-1.5.3l-.2.1ZM231.67,156.43c.4,0,.7,0,1-.2s.6-.4.8-.6v-4.3c0-.6-.1-1-.4-1.3-.3-.3-.7-.5-1.2-.5s-1.2.3-1.6,1c-.4.7-.6,1.5-.6,2.6s.2,1.9.6,2.5c.4.6.9.9,1.6.9l-.2-.1ZM241.47,148.93l-.3-.5c.3-.2.6-.5.8-.8s.3-.5.3-.7,0-.3-.2-.4c-.1-.1-.3-.2-.5-.3-.2,0-.3-.2-.5-.3-.1-.1-.2-.3-.2-.6s.1-.6.3-.8c.2-.2.5-.3.8-.3s.7.1.9.4.3.7.3,1.1c0,.7-.2,1.3-.5,1.8s-.8,1-1.4,1.4h.2ZM238.27,148.93l-.4-.5c.3-.2.6-.5.8-.8s.3-.5.3-.7,0-.3-.2-.4c-.1-.1-.3-.2-.5-.3-.2,0-.3-.2-.5-.3-.1-.1-.2-.3-.2-.6s.1-.6.3-.8c.2-.2.5-.3.8-.3s.7.1.9.4.3.7.3,1.1c0,.7-.2,1.3-.5,1.8s-.8,1-1.4,1.4h.3Z"/>
  <path class="cls-1" d="M26.17,132.33v-.6l2.1-.5v-16.2l-2.1-.5v-.6h6.9v.6l-2.1.4v16.2l2.1.5v.6h-6.9v.1ZM14.67,132.33v-.6l2.1-.5v-16.2l-2.1-.5v-.6h6.9v.6l-2.1.5v16.2l2.1.5v.6s-6.9,0-6.9,0ZM18.37,123.23v-1h11.1v1h-11.1ZM40.57,132.63c-1.2,0-2.2-.3-3.1-.8s-1.6-1.3-2-2.2c-.5-1-.7-2.1-.7-3.3s.3-2.5.8-3.5,1.3-1.8,2.3-2.4,2.1-.9,3.4-.9,2.8.5,3.6,1.4,1.3,2.3,1.3,4h-.2c0,.1-9.3.1-9.3.1v-.7l6.7-.2v-.9c0-1.9-.8-2.9-2.5-2.9s-2.1.5-2.7,1.4-.9,2.2-.9,3.9c0,3.5,1.4,5.2,4.1,5.2s3.1-.6,4-1.9l.4.3c-.4,1.1-1.1,2-2,2.6s-2,.9-3.3.9l.1-.1ZM51.07,132.63c-.9,0-1.6-.3-2.1-.8s-.8-1.2-.8-2.1.2-1.3.6-1.8c.4-.5,1.1-1,2.1-1.3,1-.4,2.2-.7,3.8-1.1v-2.2c0-1-.1-1.7-.4-2.1-.3-.4-.7-.6-1.4-.6s-1.2.2-1.6.5c-.4.3-.6.8-.6,1.3v.9c0,.4-.1.7-.4,1-.2.3-.5.4-.9.4s-.6-.1-.8-.3c-.2-.2-.3-.5-.3-.9,0-.5.2-1.1.7-1.6.5-.6,1.1-1,1.8-1.4,1-.5,2.1-.8,3.2-.8s1.3.1,1.8.3c.5.2.8.5,1.1.9.1.3.2.6.3,1v7.5c0,.8,0,1.3.2,1.6.1.3.4.4.7.4s.8-.2,1.1-.7l.4.4c-.4.6-.8,1-1.2,1.2s-.9.4-1.4.4-1.2-.2-1.5-.5c-.4-.4-.6-.9-.7-1.6h0c-.5.7-1,1.2-1.7,1.6-.6.4-1.3.6-2,.6v-.2ZM52.27,131.03c.5,0,1-.1,1.4-.4s.8-.6,1.1-1.1v-3.4c-1.1.2-1.9.4-2.5.7-.6.2-1,.6-1.3.9-.2.4-.4.8-.4,1.3s.1,1.1.4,1.4c.3.3.7.5,1.3.5v.1ZM60.27,132.33v-.5l1.8-.4v-16.7l-1.8-.6v-.4l4-1.1h.3v18.8l1.8.4v.5s-6.1,0-6.1,0ZM71.87,132.63c-.9,0-1.6-.3-2-.8-.5-.5-.7-1.2-.7-2.2v-9h-1.6v-.4l3.5-3.6h.5v3.1h3.4l-.2.9h-3.2v8.8c0,1.3.5,2,1.4,2s.6,0,.9-.3c.3-.2.6-.4.8-.7l.4.4c-.4.5-.8,1-1.4,1.3-.6.3-1.2.5-1.9.5h.1ZM75.87,132.33v-.5l1.8-.4v-16.7l-1.8-.6v-.4l3.9-1.1h.3v18.8l1.8.4v.5s-6,0-6,0ZM83.87,132.33v-.5l1.8-.3v-7.7c0-1-.2-1.7-.6-2.1-.4-.5-1-.7-1.9-.7s-1.2.1-1.7.4c-.6.3-1.1.7-1.6,1.2v-1c.7-.7,1.5-1.2,2.3-1.5.8-.4,1.6-.5,2.4-.5,2.3,0,3.4,1.1,3.4,3.2v8.7l1.8.3v.5h-6,.1ZM106.77,132.63c-1.7,0-3.2-.4-4.5-1.2-1.3-.8-2.3-1.9-3.1-3.3-.7-1.4-1.1-3-1.1-4.8s.2-2.7.6-3.8c.4-1.2,1-2.2,1.8-3s1.7-1.5,2.8-2c1.1-.5,2.2-.7,3.5-.7s1.9.1,2.7.4c.9.2,1.7.6,2.4,1.1h0l1.2-1.2h.5v5.5h-.8c-.1-.4-.3-.8-.5-1.2-.2-.4-.3-.7-.5-1-.6-.9-1.2-1.5-2-1.9s-1.7-.6-2.7-.6c-1.9,0-3.4.7-4.5,2.1-1,1.4-1.6,3.4-1.6,6.1s.5,4.7,1.6,6.1,2.5,2.2,4.5,2.2,1.8-.2,2.6-.6c.8-.4,1.4-.9,1.9-1.7.3-.4.5-.9.8-1.4.2-.5.4-1.1.5-1.7h.7v6.3h-.6l-1.1-1.6c-.8.6-1.7,1.1-2.5,1.4s-1.7.4-2.7.4l.1.1ZM119.27,132.63c-.9,0-1.6-.3-2.1-.8s-.8-1.2-.8-2.1.2-1.3.6-1.8,1.1-1,2.1-1.3c1-.4,2.2-.7,3.8-1.1v-2.2c0-1-.1-1.7-.4-2.1s-.7-.6-1.4-.6-1.2.2-1.6.5-.6.8-.6,1.3v.9c0,.4-.1.7-.4,1-.2.3-.5.4-.9.4s-.6-.1-.8-.3-.3-.5-.3-.9c0-.5.2-1.1.7-1.6.5-.6,1.1-1,1.8-1.4,1-.5,2.1-.8,3.2-.8s1.3.1,1.8.3c.5.2.8.5,1.1.9.1.3.2.6.3,1v7.5c0,.8,0,1.3.2,1.6.1.3.4.4.7.4s.8-.2,1.1-.7l.4.4c-.4.6-.8,1-1.2,1.2-.4.2-.9.4-1.4.4s-1.2-.2-1.5-.5-.6-.9-.7-1.6h0c-.5.7-1,1.2-1.7,1.6-.6.4-1.3.6-2,.6v-.2ZM120.47,131.03c.5,0,1-.1,1.4-.4s.8-.6,1.1-1.1v-3.4c-1.1.2-1.9.4-2.5.7-.6.2-1,.6-1.3.9-.2.4-.4.8-.4,1.3s.1,1.1.4,1.4.7.5,1.3.5v.1ZM128.67,132.33v-.5l1.8-.4v-9.8l-1.8-.7v-.3l3.8-1.2h.3v2.6h0v9.3l2.5.4v.5h-6.7l.1.1ZM132.67,123.23v-1c.5-.9,1.1-1.5,1.7-2s1.1-.7,1.7-.7.8.2,1.1.5c.3.3.5.7.5,1.1s-.1.7-.4,1-.6.4-1,.4-.7-.1-.9-.4l-.4-.4c-.1,0-.2-.1-.4-.1s-.5.2-.9.5c-.3.3-.7.7-1,1.2v-.1ZM144.57,132.63c-1.2,0-2.2-.3-3.1-.8s-1.6-1.3-2-2.2c-.5-1-.7-2.1-.7-3.3s.3-2.5.8-3.5,1.3-1.8,2.3-2.4c1-.6,2.1-.9,3.4-.9s2.8.5,3.6,1.4,1.3,2.3,1.3,4h-.2c0,.1-9.3.1-9.3.1v-.7l6.7-.2v-.9c0-1.9-.8-2.9-2.5-2.9s-2.1.5-2.7,1.4c-.6.9-.9,2.2-.9,3.9,0,3.5,1.4,5.2,4.1,5.2s3.1-.6,4-1.9l.4.3c-.4,1.1-1.1,2-2,2.6s-2,.9-3.3.9l.1-.1ZM155.97,132.33v-.6c.8-.1,1.4-.3,1.9-.5.4-.2.7-.5.9-.8s.4-.8.6-1.4l4.6-12.7-.7-1.5,2.5-1.3,6.3,16.7c.1.4.3.6.4.8.2.2.4.3.7.4s.7.2,1.3.2v.6h-7.8v-.6c.8,0,1.4-.1,1.7-.2.4,0,.6-.2.7-.5,0-.2,0-.7-.2-1.2l-4.3-11.8h0l-4.1,11.3c-.2.5-.2.9-.1,1.2,0,.3.3.5.7.7s1,.3,1.7.4v.6h-6.8v.2ZM161.37,125.83v-1h6.6v1h-6.6ZM179.17,132.63c-.5,0-1.1,0-1.7-.2-.6,0-1.2-.2-1.6-.4l-.2-3.9h.6c.1,1.2.4,2.1.9,2.7s1.2.9,2.1.9,1.3-.2,1.7-.6.6-.9.6-1.5-.2-1-.5-1.4-.9-.8-1.6-1.2l-1-.5c-1-.5-1.8-1-2.2-1.6s-.7-1.3-.7-2.1.4-2,1.2-2.6,1.9-.9,3.3-.9,1.1,0,1.6.1c.5,0,.9.2,1.2.3v3.3h-.6c-.2-2-1.1-2.9-2.7-2.9s-1.1.2-1.5.5-.6.8-.6,1.3.2.9.5,1.3.9.7,1.7,1.1l1.1.5c.9.5,1.6,1,2,1.5.4.6.6,1.3.6,2.1s-.4,2.1-1.2,2.8-1.9,1.1-3.3,1.1l.3.3ZM189.67,132.63c-.5,0-1.1,0-1.7-.2-.6,0-1.2-.2-1.6-.4l-.2-3.9h.6c.1,1.2.4,2.1.9,2.7s1.2.9,2.1.9,1.3-.2,1.7-.6.6-.9.6-1.5-.2-1-.5-1.4-.9-.8-1.6-1.2l-1-.5c-1-.5-1.8-1-2.2-1.6s-.7-1.3-.7-2.1.4-2,1.2-2.6,1.9-.9,3.3-.9,1.1,0,1.6.1c.5,0,.9.2,1.2.3v3.3h-.6c-.2-2-1.1-2.9-2.7-2.9s-1.1.2-1.5.5-.6.8-.6,1.3.2.9.5,1.3.9.7,1.7,1.1l1.1.5c.9.5,1.6,1,2,1.5.4.6.6,1.3.6,2.1s-.4,2.1-1.2,2.8-1.9,1.1-3.3,1.1l.3.3ZM195.97,132.33v-.5l1.8-.4v-9.8l-1.8-.6v-.4l4-1.1h.3v11.9l1.8.4v.5h-6.1ZM198.97,117.03c-.5,0-.9-.2-1.2-.5s-.4-.7-.4-1.1.1-.8.4-1.2c.3-.3.7-.5,1.2-.5s.9.2,1.2.5.4.7.4,1.2-.1.8-.4,1.1c-.3.3-.7.5-1.2.5ZM207.37,132.63c-.5,0-1.1,0-1.7-.2-.6,0-1.2-.2-1.6-.4l-.2-3.9h.6c.1,1.2.4,2.1.9,2.7s1.2.9,2.1.9,1.3-.2,1.7-.6.6-.9.6-1.5-.2-1-.5-1.4-.9-.8-1.6-1.2l-1-.5c-1-.5-1.8-1-2.2-1.6s-.7-1.3-.7-2.1.4-2,1.2-2.6,1.9-.9,3.3-.9,1.1,0,1.6.1c.5,0,.9.2,1.2.3v3.3h-.6c-.2-2-1.1-2.9-2.7-2.9s-1.1.2-1.5.5-.6.8-.6,1.3.2.9.5,1.3.9.7,1.7,1.1l1.1.5c.9.5,1.6,1,2,1.5.4.6.6,1.3.6,2.1s-.4,2.1-1.2,2.8c-.8.7-1.9,1.1-3.3,1.1l.3.3ZM217.87,132.63c-.9,0-1.6-.3-2-.8-.5-.5-.7-1.2-.7-2.2v-9h-1.6v-.4l3.5-3.6h.5v3.1h3.4l-.2.9h-3.2v8.8c0,1.3.5,2,1.4,2s.6,0,.9-.3c.3-.2.6-.4.8-.7l.4.4c-.4.5-.8,1-1.4,1.3-.6.3-1.2.5-1.9.5h.1ZM225.37,132.63c-.9,0-1.6-.3-2.1-.8s-.8-1.2-.8-2.1.2-1.3.6-1.8c.4-.5,1.1-1,2.1-1.3,1-.4,2.2-.7,3.8-1.1v-2.2c0-1-.1-1.7-.4-2.1-.3-.4-.7-.6-1.4-.6s-1.2.2-1.6.5-.6.8-.6,1.3v.9c0,.4-.1.7-.4,1-.2.3-.5.4-.9.4s-.6-.1-.8-.3c-.2-.2-.3-.5-.3-.9,0-.5.2-1.1.7-1.6.5-.6,1.1-1,1.8-1.4,1-.5,2.1-.8,3.2-.8s1.3.1,1.8.3c.5.2.8.5,1.1.9.1.3.2.6.3,1v7.5c0,.8,0,1.3.2,1.6.1.3.4.4.7.4s.8-.2,1.1-.7l.4.4c-.4.6-.8,1-1.2,1.2s-.9.4-1.4.4-1.2-.2-1.5-.5c-.4-.4-.6-.9-.7-1.6h0c-.5.7-1,1.2-1.7,1.6-.6.4-1.3.6-2,.6v-.2ZM226.57,131.03c.5,0,1-.1,1.4-.4s.8-.6,1.1-1.1v-3.4c-1.1.2-1.9.4-2.5.7-.6.2-1,.6-1.3.9-.2.4-.4.8-.4,1.3s.1,1.1.4,1.4c.3.3.7.5,1.3.5v.1ZM242.57,132.33v-.5l1.8-.3v-7.7c0-1-.2-1.7-.6-2.1-.4-.5-1-.7-1.9-.7-1.3,0-2.3.6-3.1,1.7v-1c.7-.7,1.4-1.2,2.2-1.6s1.6-.6,2.4-.6c2.3,0,3.4,1.1,3.4,3.2v8.7l1.8.3v.5h-6v.1ZM234.77,132.33v-.5l1.8-.4v-9.8l-1.8-.7v-.3l3.8-1.2h.3v2.1h.1v9.8l1.8.4v.5h-6v.1ZM254.07,132.63c-.9,0-1.6-.3-2-.8-.5-.5-.7-1.2-.7-2.2v-9h-1.6v-.4l3.5-3.6h.5v3.1h3.4l-.2.9h-3.2v8.8c0,1.3.5,2,1.4,2s.6,0,.9-.3c.3-.2.6-.4.8-.7l.4.4c-.4.5-.8,1-1.4,1.3-.6.3-1.2.5-1.9.5h.1Z"/>
  <path class="cls-1" d="M163.86,23.43l-.1-.1c-.1,0-.2,0-.3-.1-.9-.3-1.5-.4-1.7-.2l-1.7,4.3-1.1-1.2c-.4-.4-.6-.8-.9-1.3-.1-.2-.3-.4-.4-.6-.9-1.2-3.4-4.7-5.9-4.9h-32.6c-1.4.2-3.6,1.5-6.9,6.6l-.3.5h-.6c-.2,0-.7-.1-1-.7-.2-.4-.3-.8-.5-1.2-.2-.5-.4-1.1-.6-1.4,0,0,0-.1-.2-.1h-.6c-3,.5-6.7,2.3-8.5,5.1-.9,1.4-1.1,3-.7,4.6,1.1,3.8,2.1,7.8,3.1,11.7,1,4.2,2.1,8.5,3.3,12.6,1.4,4.7,4.7,5.5,10,6.6,11.5,2.3,26.7,2.3,38.7.2h.2c4.8-.9,9.2-1.7,10.8-6.3.8-3.2,1.7-6.4,2.5-9.5,1.4-5.4,2.9-11,4.2-16.5.3-5.2-6.2-7.5-8.2-8.1ZM114.16,26.03l.1-.1c1-1.5,3.3-4.7,5.2-4.8h31.8c1.6.1,3.3,2.2,4.2,3.4,1.9,2.4,3.6,5.4,5,8.1.6,1.1,1.2,2.2,1.6,3.4-2.2.3-4.3.7-6.5.9-7.4.8-14.8.7-22.3.7s-16.1,0-23.5-1.4c-.2,0-1.2-.2-1.2-.3,1.7-3.4,3.4-6.8,5.6-9.9ZM163.66,56.93h-.1c-1.3,4.1-7,4.7-10.7,5.3-11.2,1.9-25.7,1.8-36.8-.4-3.2-.6-7.2-1.2-8.5-4.6l-5.4-20.5c.5,0,.9.3,1.4.5,6.9,2.5,16.3,2.8,23.7,2.9,7,.1,14.2.2,21.3-.1,5.8-.3,12.6-.7,18.1-2.4.8-.3,1.5-.6,2.3-.9l-5.3,20.2Z"/>
  <path class="cls-1" d="M137.87,49.43h5.3c.1.1.2.2.2.4.2,1.5-.1,3.2,0,4.7,0,.1-.2.4-.3.4h-5.2v5.2s-.3.3-.4.3c-1.5-.2-3.4.2-4.8,0-.3,0-.4-.3-.4-.6v-4.9h-5.2c-.1,0-.2-.4-.3-.5,0-1-.1-3.5,0-4.5,0-.1.1-.5.2-.5h5.3v-5.3c0-.1.3-.2.5-.2,1-.1,3.4,0,4.4,0,.2,0,.6,0,.6.3v5.2h.1Z"/>
  <g>
    <path class="cls-1" d="M39.68,189l1.12,1.11s-1.29,1.67-3.77,1.67c-2.83,0-4.97-2.17-4.97-5.07s2.14-5.07,4.97-5.07c2.35,0,3.63,1.54,3.63,1.54l-1.13,1.11s-.88-1.08-2.49-1.08c-1.93,0-3.26,1.61-3.26,3.5s1.33,3.5,3.26,3.5c1.72,0,2.65-1.21,2.65-1.21Z"/>
    <path class="cls-1" d="M42.09,181.8h1.68v8.21h4.17v1.6h-5.86v-9.81Z"/>
    <path class="cls-1" d="M49.28,181.8h1.68v9.81h-1.68v-9.81Z"/>
    <path class="cls-1" d="M54.74,181.8l4.9,6.75v-6.75h1.68v9.81h-1.51l-4.9-6.74v6.74h-1.68v-9.81h1.51Z"/>
    <path class="cls-1" d="M63.59,181.8h1.68v9.81h-1.68v-9.81Z"/>
    <path class="cls-1" d="M74.6,189l1.12,1.11s-1.29,1.67-3.77,1.67c-2.83,0-4.97-2.17-4.97-5.07s2.14-5.07,4.97-5.07c2.35,0,3.63,1.54,3.63,1.54l-1.13,1.11s-.88-1.08-2.49-1.08c-1.93,0-3.26,1.61-3.26,3.5s1.33,3.5,3.26,3.5c1.72,0,2.65-1.21,2.65-1.21Z"/>
    <path class="cls-1" d="M79.86,181.8h1.71l3.81,9.81h-1.7l-.9-2.33h-4.15l-.9,2.33h-1.7l3.81-9.81ZM79.24,187.74h2.94l-1.47-3.82-1.47,3.82Z"/>
    <path class="cls-1" d="M86.49,181.8h1.68v8.21h4.17v1.6h-5.86v-9.81Z"/>
    <path class="cls-1" d="M99.29,185.78h3.92v1.6h-3.92v2.63h4.34v1.6h-6.02v-9.81h5.94v1.6h-4.26v2.38Z"/>
    <path class="cls-1" d="M113.27,186.7c0,2.83-1.99,4.9-4.85,4.9h-3.17v-9.81h3.17c2.86,0,4.85,2.07,4.85,4.9ZM111.56,186.7c0-1.79-1.2-3.31-3.11-3.31h-1.51v6.61h1.51c1.91,0,3.11-1.53,3.11-3.31Z"/>
    <path class="cls-1" d="M120.66,181.8h1.68v6.25c0,2.16-1.47,3.73-3.78,3.73s-3.78-1.57-3.78-3.73v-6.25h1.68v6.04c0,1.4.7,2.34,2.1,2.34s2.1-.94,2.1-2.34v-6.04Z"/>
    <path class="cls-1" d="M131.47,189l1.12,1.11s-1.29,1.67-3.77,1.67c-2.83,0-4.97-2.17-4.97-5.07s2.14-5.07,4.97-5.07c2.35,0,3.63,1.54,3.63,1.54l-1.13,1.11s-.88-1.08-2.49-1.08c-1.93,0-3.26,1.61-3.26,3.5s1.33,3.5,3.26,3.5c1.72,0,2.65-1.21,2.65-1.21Z"/>
    <path class="cls-1" d="M136.73,181.8h1.71l3.81,9.81h-1.7l-.9-2.33h-4.15l-.9,2.33h-1.7l3.81-9.81ZM136.11,187.74h2.94l-1.47-3.82-1.47,3.82Z"/>
    <path class="cls-1" d="M144.71,183.4h-2.7v-1.6h7.09v1.6h-2.7v8.21h-1.68v-8.21Z"/>
    <path class="cls-1" d="M150.52,181.8h1.68v9.81h-1.68v-9.81Z"/>
    <path class="cls-1" d="M163.82,186.7c0,2.9-2.1,5.07-4.96,5.07s-4.96-2.17-4.96-5.07,2.1-5.07,4.96-5.07,4.96,2.17,4.96,5.07ZM162.11,186.7c0-1.89-1.27-3.47-3.25-3.47s-3.25,1.58-3.25,3.47,1.27,3.47,3.25,3.47,3.25-1.58,3.25-3.47Z"/>
    <path class="cls-1" d="M166.84,181.8l4.9,6.75v-6.75h1.68v9.81h-1.51l-4.9-6.74v6.74h-1.68v-9.81h1.51Z"/>
    <path class="cls-1" d="M181.16,181.8l3.19,4.93,3.19-4.93h1.56v9.81h-1.68v-6.58l-3.07,4.67-3.07-4.67v6.58h-1.68v-9.81h1.56Z"/>
    <path class="cls-1" d="M194.03,181.8h1.71l3.81,9.81h-1.7l-.9-2.33h-4.15l-.9,2.33h-1.7l3.81-9.81ZM193.41,187.74h2.94l-1.47-3.82-1.47,3.82Z"/>
    <path class="cls-1" d="M203.77,187.52c-1.44-.5-3.07-1.29-3.07-3.11,0-1.39,1.23-2.77,3.21-2.77s3.19,1.55,3.19,1.55l-1.16,1.15s-.81-1.11-2.03-1.11c-.84,0-1.5.52-1.5,1.18,0,.85.77,1.12,2.12,1.62,1.5.56,2.75,1.23,2.75,3.01s-1.57,2.73-3.42,2.73c-2.45,0-3.59-2-3.59-2l1.26-1.06s.84,1.47,2.33,1.47c.84,0,1.71-.34,1.71-1.13s-.63-1.12-1.79-1.53Z"/>
    <path class="cls-1" d="M210.86,183.4h-2.7v-1.6h7.09v1.6h-2.7v8.21h-1.68v-8.21Z"/>
    <path class="cls-1" d="M218.15,185.78h3.92v1.6h-3.92v2.63h4.34v1.6h-6.02v-9.81h5.94v1.6h-4.26v2.38Z"/>
    <path class="cls-1" d="M224.11,181.8h3.22c1.95,0,3.25,1.26,3.25,3.05,0,1.47-.78,2.59-2.18,2.94l2.45,3.81h-1.96l-2.33-3.7h-.77v3.7h-1.68v-9.81ZM228.88,184.85c0-.97-.67-1.46-1.75-1.46h-1.33v2.91h1.33c1.08,0,1.75-.49,1.75-1.46Z"/>
    <path class="cls-1" d="M236.1,191.61h-1.68v-3.87l-3.35-5.94h1.85l2.4,4.38,2.4-4.38h1.74l-3.35,5.94v3.87Z"/>
  </g>
</svg>